<?xml version="1.0" encoding="utf-8"?>
<!-- Generator: Adobe Illustrator 21.1.0, SVG Export Plug-In . SVG Version: 6.00 Build 0)  -->
<svg version="1.1" xmlns="http://www.w3.org/2000/svg" xmlns:xlink="http://www.w3.org/1999/xlink" x="0px" y="0px"
	 viewBox="0 0 945 383.4" style="enable-background:new 0 0 945 383.4;" xml:space="preserve">
<style type="text/css">
	.st0{fill:#564A70;}
	.st1{fill:#36223D;}
	.st2{fill:#65778C;}
	.st3{fill:#8DC6CF;}
	.st4{fill:#BFE7F3;}
	.st5{fill:#D6D6D6;}
	.st6{fill:#FFFFFF;}
	.st7{fill:#3A2121;}
	.st8{fill:#6D4A49;}
	.st9{fill:#8A6564;}
	.st10{fill:#CE8E8E;}
	.st11{fill:#F1C0BF;}
	.st12{fill:#8DC6CF;stroke:#8DC6CF;stroke-miterlimit:10;}
	.st13{fill:none;stroke:#8DC6CF;stroke-width:3;stroke-miterlimit:10;}
	.st14{fill:#CE8E8D;}
	.st15{fill:none;stroke:#564A70;stroke-miterlimit:10;}
</style>
<g id="Layer_1">
</g>
<g id="Layer_2">
	<g>
		<path class="st3" d="M118.2,181.2c2.4,5.5-11,15.1-14.1,24.1c-3.1,9,6.4,9.2,20.1,20.8c13.7,11.5,41.4,16.4,62.7,18.2
			c21.3,1.8,56.1-23.5,59-32.5s-13.3-22.6-17.2-25.6c-3.9-3-7-19.2-7-19.2"/>
		<g id="XMLID_12_">
			<g>
				<path class="st3" d="M258.8,114.7c1.5,2,8.1,14.5,7.9,15c-1.3,2.8-1.9,14.1-3.8,14.5c-1.9,0.4-4.9-3.3-6.6-5.9
					c-0.6-0.9-0.6-4-0.4-7.7c0.4,1.8,0.7,3,0.7,3s0.8-5.7,1.3-11.8c0.2-2.4,0.4-5,0.5-7.2C258.6,114.6,258.7,114.6,258.8,114.7z"/>
				<path class="st3" d="M258,121.9c-0.5,6.1-1.3,11.8-1.3,11.8s-0.3-1.2-0.7-3c0.3-6.5,1.5-14.7,2.5-15.9
					C258.3,117,258.2,119.5,258,121.9z"/>
				<path class="st4" d="M258.4,114.8c-1,1.2-2.2,9.5-2.5,15.9c-0.2-0.7-0.4-1.5-0.6-2.4c0,0,0,0,0-0.1c-0.1-0.9-2-11.6-2.8-13.8
					c-0.5-3.9-7.2-12.1-12.2-16.4c0,0-0.1-0.1-0.1-0.1c-1.6-1.5-3.1-2.5-4.1-2.5c-3.6-0.6-18.8,3.1-20.7,3.6c-0.1,0-0.2,0-0.2,0
					s0,0,0,0c-2.2-2.7-4.7-5.2-7.4-7.4c1.1,0.8,19.2-2.8,21.1-2c1.9,0.8,9.8,2.8,13.9,3.4c4.1,0.6,12.8,12.4,15,14.8
					C258.4,108.5,258.5,111.3,258.4,114.8z"/>
				<path class="st0" d="M252.6,114.4c0.8,2.3,2.7,12.9,2.8,13.8C254.3,123.6,253,117.4,252.6,114.4z"/>
				<path class="st0" d="M252.6,114.4c0.4,3.1,1.7,9.3,2.8,13.8c-0.3-1-7.9-0.5-9.8,1.5c-1.9,2-12.2,3.8-14.1,4
					c-1.9,0.2-4.7-2.8-4.7-2.8s-0.3-3.5-0.6-7.9c0-0.1,0-0.2,0-0.3c-0.1-1.6-0.2-3.1-0.3-4.3c0-0.1,0-0.2,0-0.3
					c-0.2-1.7-1-3.9-2.2-6.1c0,0,0-0.1-0.1-0.1c-1.8-3.8-4.6-8.5-8.2-12.8c-0.1-0.1-0.1-0.2-0.1-0.2s0.1,0,0.2,0
					c1.9-0.4,16.9-3.4,20.7-3.6c1,0.1,2.4,1.1,4.1,2.5c0.1,0,0.1,0.1,0.1,0.1C245.4,102.7,252,112.5,252.6,114.4z"/>
				<path class="st3" d="M252.6,114.4c-0.6-1.9-7.2-11.6-12.2-16.4C245.4,102.2,252.1,110.5,252.6,114.4z"/>
				<path class="st0" d="M236.1,95.4c1,0,2.5,0.9,4.1,2.5C238.5,96.5,237.1,95.5,236.1,95.4z"/>
				<path class="st3" d="M236.1,95.4c-3.8,0.2-18.8,3.2-20.7,3.6C217.3,98.5,232.5,94.8,236.1,95.4z"/>
				<path class="st3" d="M226.1,123.1c0.3,4.4,0.6,7.9,0.6,7.9C226.4,128.1,226.2,125.4,226.1,123.1z"/>
				<path class="st0" d="M226.1,122.9c-0.1-1.4-0.2-2.8-0.3-4.3C226,119.8,226,121.2,226.1,122.9z"/>
				<path class="st3" d="M223.6,112.1c1.1,2.3,2,4.5,2.2,6.1C225.6,116.8,224.8,114.6,223.6,112.1z"/>
				<path class="st0" d="M223.6,112c-2.8-5.6-7.4-11.8-8.2-12.8C219,103.5,221.8,108.2,223.6,112z"/>
				<path class="st3" d="M220.1,166.8c4.1,8.8-0.3,16-1.7,21.5c-3-7.4-13.4-25.3-18.8-29.6c-6.4-5.1-10.6-9.9-17.6-10.5
					c-7.1-0.6-6.9-8.7-13.5-8.7s-25.7,19.8-26.6,28.2c-0.9,8.3-10.9,33.5,5.4,34.6c-3.8,0.3-7.6,0-10.5-0.8c-2.3-0.7-3.9-1.6-5-3
					c-3-3.5-3.7-10.1-7.8-23c-5.8-18,25.4-27.3,28.9-31.2c3.5-3.9,8.7-15.5,10.3-21.2c1.6-5.7-5.8-29.7-7.1-32.1
					c-0.9-1.7,1.3-1.6,3.9-1.2c0.3,0.1,0.6,0.1,0.9,0.2c1,0.2,1.8,0.3,2.3,0.4c0.1,0,0.2,0,0.3,0c3.5,0.4,12-1.9,13.6-4
					c0.2,0,0.3-0.1,0.4-0.1c1,1.3,0.3,15.1-1.2,19.7c-1.6,5.1,4.8,27.6,8.7,31.5C188.6,141.3,215.2,156.3,220.1,166.8z"/>
				<path class="st4" d="M218.8,189.6c-0.3,0.5-0.6,1.1-0.9,1.6c0-0.9,0.2-1.9,0.4-2.9C218.5,188.8,218.7,189.2,218.8,189.6z"/>
				<path class="st4" d="M217.9,191.1c0,1.7-0.3,2.9-1,3.9c-0.6,0.5-1.4,1-2.2,1.5C215.6,194.9,216.7,193.1,217.9,191.1z"/>
				<path class="st4" d="M214.7,196.5c0.9-0.5,1.6-0.9,2.2-1.5c-0.6,0.8-1.4,1.4-2.5,2C214.5,196.8,214.6,196.7,214.7,196.5z"/>
				<path class="st4" d="M215.2,99c0,0,0,0,0.1,0.2c0.8,1,5.4,7.2,8.2,12.8c0,0,0,0.1,0.1,0.1c1.2,2.6,2,4.7,2.2,6.1
					c0,0.1,0,0.2,0,0.3c0.1,1.5,0.2,2.9,0.3,4.3c0,0.1,0,0.2,0,0.3c0.1,2.3,0.2,5,0.6,7.9c0.6,6.1,2,13.1,5.6,19.4
					c4.3,7.6-5.9,26.5-13.4,39.3c-0.1-0.4-0.3-0.8-0.5-1.3c1.4-5.5,5.8-12.6,1.7-21.5c-4.8-10.5-31.4-25.5-35.3-29.4
					c-3.9-3.9-10.3-26.4-8.7-31.5c1.4-4.5,2.2-18.3,1.2-19.7c3.6-0.7,8.1-1.3,13.9-1.3c6,0,11.7,2.7,16.5,6.5
					C207.1,91.2,214.7,98.5,215.2,99C215.2,99,215.2,99,215.2,99z M211.9,129.3c2.1-1.6,3.7-4.3,2.6-4.7s-3.7-2.9-5.9-4.4
					c-2.3-1.5-6.5-0.6-9.4,0c-3,0.7-5.1,6.7-5.1,6.7c-0.6,1.5,4.4,4.4,7.9,4.9C205.5,132.2,209.8,130.9,211.9,129.3z"/>
				<path class="st0" d="M214.6,124.5c1.1,0.5-0.5,3.1-2.6,4.7c-2.1,1.6-6.5,2.9-10,2.4c-3.5-0.5-8.5-3.4-7.9-4.9c0,0,2.1-6,5.1-6.7
					c3-0.6,7.2-1.5,9.4,0C210.9,121.6,213.5,124,214.6,124.5z"/>
				<path class="st4" d="M214.7,196.5c-0.1,0.2-0.2,0.3-0.3,0.5c-0.9,0.4-2.1,0.8-3.4,1.2C212.4,197.6,213.6,197.1,214.7,196.5z"/>
				<path class="st4" d="M210.9,198.1c-1.3,0.5-2.7,0.9-4.4,1.3c-0.7,0.2-1.5,0.2-2.4,0.2c0.4,0,0.8-0.1,1.1-0.2
					C207.5,199,209.4,198.6,210.9,198.1z"/>
				<path class="st4" d="M207.8,91.5c2.7,2.2,5.2,4.7,7.4,7.4C214.7,98.5,207.1,91.2,207.8,91.5C207.7,91.5,207.7,91.5,207.8,91.5
					L207.8,91.5z"/>
				<path class="st4" d="M204.2,199.6c-5.7,0.5-13.2-4.2-18.7-8C191.4,195.1,198.9,199.3,204.2,199.6z"/>
				<path class="st2" d="M193.3,157.9c1.5,2.2-1.7,9.6-4.9,13c-3.2,3.4-11.8,5.4-16.6,4.6c-4.8-0.8-13.8-11-14-14.4
					c-0.2-3.4,6.4-9.4,9.6-10.4c3.2-1,6.9,0,6.9,0s2.8,0,7.7-0.4C186.9,149.8,191.8,155.7,193.3,157.9z"/>
				<path class="st4" d="M193.3,157.9c-1.5-2.2-6.4-8.1-11.3-7.6c-4.9,0.4-7.7,0.4-7.7,0.4s-3.6-1-6.9,0c-3.2,1-9.8,7-9.6,10.4
					c0.2,3.4,9.2,13.6,14,14.4c4.8,0.8,13.4-1.1,16.6-4.6C191.6,167.5,194.8,160.1,193.3,157.9z M181.9,148.2
					c7.1,0.6,11.2,5.4,17.6,10.5c5.4,4.3,15.8,22.1,18.8,29.6c-0.3,1-0.4,2-0.4,2.9v0c-1.2,2-2.3,3.8-3.2,5.3
					c-1.1,0.6-2.3,1.1-3.7,1.6c0,0,0,0,0,0c-1.6,0.4-3.5,0.8-5.6,1.3c-0.4,0.1-0.7,0.1-1.1,0.2c-5.2-0.3-12.8-4.6-18.7-8
					c-3.1-2.1-5.6-4-6.8-4.5c-3.5-1.5-8.3,3.6-14.1,9c-3.7,3.4-10.7,5.6-17.4,6.1c-16.3-1.1-6.4-26.3-5.4-34.6
					c1-8.4,20.1-28.2,26.6-28.2S174.8,147.6,181.9,148.2z"/>
				<path class="st2" d="M176.7,187.3c1.2,0,4.6,1.9,8.7,4.3c5.5,3.8,13.1,8.5,18.7,8c0.9,0.1,1.7,0,2.4-0.2
					c1.6-0.4,3.1-0.9,4.4-1.3c0,0,0,0,0,0c1.3-0.4,2.5-0.7,3.4-1.2c-1.5,2.6-2.6,4.3-2.7,4.9c-0.6,3-13.5,6-17.3,6s-10.9-4.8-16.7-6
					s-21.8,9.6-30.8,9.6c-7.3,0-11.6-5.9-18.5-12.3l3.2-0.6c1.2,1.4,2.7,2.3,5,3c3,0.9,6.7,1.1,10.5,0.8c0.2,0,0.5,0,0.7,0
					C165.2,202.8,173.5,187.4,176.7,187.3z"/>
				<path class="st3" d="M177.3,86.3c-0.2,0-0.3,0.1-0.4,0.1C177,86.1,177.1,86.1,177.3,86.3z"/>
				<path class="st3" d="M176.8,86.4c-1.6,2.1-10.1,4.5-13.6,4C165.8,90.6,169.1,88,176.8,86.4z"/>
				<path class="st3" d="M162.9,90.4c-0.5-0.1-1.3-0.2-2.3-0.4C161.5,90.1,162.3,90.3,162.9,90.4z"/>
				<path class="st2" d="M159.8,89.8c-2.5-0.4-4.8-0.5-3.9,1.2c1.3,2.4,8.7,26.4,7.1,32.1c-1.6,5.7-6.7,17.3-10.3,21.2
					c-3.5,3.9-34.7,13.2-28.9,31.2c4.1,12.9,4.8,19.4,7.8,23l-3.2,0.6c-1.6-1.5-3.3-3-5.2-4.4c-10.3-7.8-10.9-24.6-12.2-30
					c-0.6-2.7-0.6-14.3-0.5-25.2c0.2-10.8,0.5-21,0.5-21s2.9-5.5,6.9-11.9c1.7-2.7,3.6-5.6,5.7-8.3c3.4-3.7,7-7.2,7.4-7.6
					c0,0,0,0,0,0c0,0,0,0,0,0C138.9,86.3,153.1,88.6,159.8,89.8z M128.7,129c0,2.9,0,2.9,0,2.9s-0.7,3.2,4.4,4.2
					c5.1,1,9.9,2.9,12.1,0c2.2-2.9,1.8-8.4,0-10.1c-1.8-1.6-6.6-1.6-9.9,0C132,127.7,128.7,126.1,128.7,129z"/>
				<path class="st4" d="M178.7,187.2c1.2,0.5,3.7,2.3,6.8,4.5c-4.1-2.4-7.5-4.4-8.7-4.3c-3.2,0.1-11.6,15.4-28.9,15
					c-0.2,0-0.5,0-0.7,0c6.7-0.5,13.7-2.7,17.4-6.1C170.3,190.8,175.1,185.7,178.7,187.2z"/>
				<path class="st0" d="M145.2,126.1c1.8,1.6,2.2,7.1,0,10.1c-2.2,2.9-7,1-12.1,0c-5.1-1-4.4-4.2-4.4-4.2s0,0,0-2.9
					c0-2.9,3.3-1.3,6.6-2.9C138.6,124.4,143.4,124.4,145.2,126.1z"/>
				<path class="st3" d="M130.9,90.8C130.9,90.8,130.9,90.8,130.9,90.8C130.9,90.8,130.9,90.8,130.9,90.8L130.9,90.8z"/>
				<path class="st3" d="M123.5,98.4c1.6-2.1,3.2-4,4.8-5.7c0.8-0.8,1.6-1.4,2.6-2C130.5,91.2,126.8,94.7,123.5,98.4z"/>
				<path class="st3" d="M123.5,98.4c-2,2.6-3.9,5.5-5.7,8.3C117.9,105,120.6,101.7,123.5,98.4z"/>
				<path class="st0" d="M112.5,102c5.1,0,5.4,4.7,5.4,4.7c-4,6.3-6.9,11.9-6.9,11.9s-0.3,10.1-0.5,21h-0.1c0,0-24.5,0.3-26.4-1.9
					c-1.9-2.1-10.9-3.9-10.9-3.9c0-3,5.8-9.4,8.8-13.4c3-4,11.1-19.2,13.3-18.4C97.3,102.8,107.3,102,112.5,102z"/>
				<path class="st3" d="M128.3,92.8c-1.6,1.6-3.2,3.6-4.8,5.7c-2.9,3.2-5.6,6.6-5.7,8.3c0,0-0.2-4.7-5.4-4.7
					c-5.1,0-15.2,0.8-17.3,0c-2.1-0.8-10.3,14.4-13.3,18.4c-3,4-8.8,10.4-8.8,13.4c0,0,0,0.1,0,0.3c-0.1-0.4-0.2-4.1-0.2-8
					c0.1-3.4,0.3-6.9,1-8.2c1.7-3.3,9.6-13.9,12.4-15.9c2.8-2,16.7-8.2,19-8c2.3,0.2,9.8,2.8,12.4,2.6c2.5-0.2,12.5-5.4,13.1-5.8
					c0,0,0,0,0,0C129.9,91.4,129,92,128.3,92.8z"/>
				<path class="st3" d="M73.1,133.7c0,0.3,0,0.4,0,0.3v0C73.1,133.9,73.1,133.7,73.1,133.7z"/>
				<path class="st3" d="M72.9,126.1c-0.1,3.9,0.1,7.6,0.2,8v0c-0.2,2.3-1.2,15.7-3,18.4c-1.9,3-8.1-10-6.8-11
					C64.5,140.5,72.9,126.1,72.9,126.1L72.9,126.1z"/>
			</g>
		</g>
		<g>
			<circle class="st12" cx="201.4" cy="125.9" r="5.3"/>
			<circle class="st0" cx="200.9" cy="125.2" r="4.9"/>
			<ellipse transform="matrix(0.9227 -0.3854 0.3854 0.9227 -32.016 88.5989)" class="st4" cx="205" cy="124.2" rx="1.2" ry="1.2"/>
		</g>
		<g>
			<circle class="st12" cx="141.4" cy="129.7" r="4.9"/>
			<circle class="st0" cx="141.8" cy="129.1" r="4.5"/>
			
				<ellipse transform="matrix(0.3854 -0.9227 0.9227 0.3854 -33.3749 206.119)" class="st4" cx="138.1" cy="128.1" rx="1.1" ry="1.1"/>
		</g>
		<path class="st0" d="M198,118.2c0,0,5.2-4,7.4-3.2c2.1,0.8,10.3,3.8,10.7,5.4c0.5,1.6,1.4,1.7,1.2,0.5s-2.8-2.9-5.3-3.8
			c-2.5-0.9-7.6-3.6-8.8-3c-1.2,0.5-4.8,3.4-5,3.8C198,118.2,198,118.2,198,118.2z"/>
		<path class="st0" d="M125.3,128.9c0,0,1.4-6.4,3.6-7.2c2.2-0.8,10.3-3.7,11.7-2.8c1.4,0.9,2.1,0.4,1.2-0.4s-4-0.4-6.5,0.5
			c-2.5,0.9-8.1,2.1-8.7,3.3c-0.6,1.2-1.5,5.6-1.4,6.1C125.3,128.9,125.3,128.9,125.3,128.9z"/>
		<path class="st0" d="M183.4,153.3c0,0-6.6,0.2-8.2,1c-1.6,0.9-3.9,2.8-5.6,2.1c-1.7-0.7-3-2.3-4.4-1.1c-1.4,1.2-1.1-2.8,3.1-4.1
			c4.2-1.3,7,1.5,8.7,1.6S183.4,153.3,183.4,153.3z"/>
		<path class="st0" d="M192.8,159.3c0,0,2.7,6.6-7.1,8.2s-5.1-8.1-3.4-7.8c1.7,0.3,2.4,1.6,2.5,3.7s2.4,3.7,5.4,0.6
			C193.1,160.9,192.8,159.3,192.8,159.3z"/>
		<path class="st0" d="M157.9,160.3c0,0,2.1,7.4,6.1,7c4-0.4,3.1-3,4.1-4.5c1-1.6,4-0.4,4.1,1.4c0.1,1.8,0.3,4.9-3,4.8
			C165.8,168.9,157.8,169.7,157.9,160.3z"/>
		<path class="st0" d="M174.6,166.2c0,0-1.2,1.3-0.4,3.3c0.8,2,0.5,5.8,1.5,6c1,0.2,3.7-0.3,4-0.7c0.4-0.4-2-2-2.8-2.8
			c-0.9-0.8-1.9-3.8-2.1-4.8C174.6,166.2,174.6,166.2,174.6,166.2z"/>
		<path class="st0" d="M167.5,196c0,0,5,2.2,10.2,1.6c5.1-0.6,11.5-3.2,11.5-3.2s-9.8-7.1-12-7.1C174.9,187.3,167.5,196,167.5,196z"
			/>
		<g>
			<path class="st1" d="M138.1,305v5h-2.9v-14.2h5.5c1.1,0,2,0.2,2.8,0.6s1.4,0.9,1.9,1.7s0.7,1.5,0.7,2.5c0,1.4-0.5,2.5-1.4,3.3
				s-2.3,1.2-4,1.2H138.1z M138.1,302.6h2.6c0.8,0,1.4-0.2,1.8-0.5s0.6-0.9,0.6-1.6c0-0.7-0.2-1.3-0.6-1.7s-1-0.7-1.7-0.7h-2.7
				V302.6z"/>
			<path class="st1" d="M151.3,310h-2.9v-14.2h2.9V310z"/>
			<path class="st1" d="M164.6,298.2h-4.4V310h-2.9v-11.8H153v-2.4h11.6V298.2z"/>
			<path class="st1" d="M170.9,310v-14.2h5c1.7,0,3,0.3,3.9,1s1.3,1.6,1.3,2.9c0,0.7-0.2,1.3-0.5,1.8s-0.9,0.9-1.5,1.2
				c0.7,0.2,1.3,0.5,1.7,1.1s0.6,1.2,0.6,2c0,1.4-0.4,2.4-1.3,3.1s-2.1,1.1-3.7,1.1H170.9z M173.8,301.7h2.2c1.5,0,2.2-0.6,2.2-1.8
				c0-0.6-0.2-1.1-0.6-1.4s-1-0.4-1.8-0.4h-2.1V301.7z M173.8,303.8v3.8h2.5c0.7,0,1.2-0.2,1.6-0.5s0.6-0.8,0.6-1.4c0-1.3-0.7-2-2-2
				H173.8z"/>
			<path class="st1" d="M194.5,295.8v9.4c0,1.6-0.5,2.8-1.5,3.7s-2.3,1.4-4,1.4c-1.7,0-3-0.4-4-1.3s-1.5-2.1-1.5-3.6v-9.5h2.9v9.4
				c0,0.9,0.2,1.6,0.7,2s1.1,0.6,1.9,0.6c1.6,0,2.5-0.9,2.5-2.6v-9.5H194.5z"/>
			<path class="st1" d="M200,307.7h6.2v2.4h-9.2v-14.2h2.9V307.7z"/>
			<path class="st1" d="M210.9,307.7h6.2v2.4H208v-14.2h2.9V307.7z"/>
			<path class="st0" d="M97.6,338H88v-1.6l4.7-5.2c0.7-0.8,1.2-1.4,1.5-1.9s0.4-1,0.4-1.5c0-0.7-0.2-1.2-0.6-1.6s-0.9-0.6-1.5-0.6
				c-0.8,0-1.4,0.2-1.8,0.7s-0.6,1.1-0.6,1.9h-2.4c0-0.9,0.2-1.6,0.6-2.3s1-1.2,1.7-1.6s1.6-0.6,2.5-0.6c1.4,0,2.5,0.3,3.3,1
				s1.2,1.7,1.2,2.9c0,0.7-0.2,1.5-0.6,2.2s-1.1,1.7-2,2.7l-3.5,3.7h6.6V338z"/>
			<path class="st0" d="M102.3,329.8h1.4c0.7,0,1.3-0.2,1.7-0.6s0.6-0.9,0.6-1.6c0-0.7-0.2-1.2-0.5-1.6s-0.9-0.6-1.6-0.6
				c-0.6,0-1.2,0.2-1.6,0.6s-0.6,0.8-0.6,1.4h-2.4c0-0.7,0.2-1.4,0.6-2s0.9-1.1,1.6-1.4s1.5-0.5,2.3-0.5c1.4,0,2.5,0.4,3.3,1.1
				s1.2,1.7,1.2,3c0,0.6-0.2,1.2-0.6,1.8s-0.9,1-1.6,1.3c0.8,0.3,1.4,0.7,1.8,1.3s0.6,1.3,0.6,2.1c0,1.3-0.4,2.3-1.3,3
				s-2,1.1-3.5,1.1c-1.4,0-2.5-0.4-3.4-1.1s-1.3-1.7-1.3-2.9h2.4c0,0.6,0.2,1.1,0.6,1.5s1,0.6,1.7,0.6c0.7,0,1.3-0.2,1.7-0.6
				s0.6-1,0.6-1.7c0-0.7-0.2-1.3-0.7-1.7s-1.1-0.6-2-0.6h-1.4V329.8z"/>
			<path class="st0" d="M111.6,331l0.8-7.2h7.6v2.1h-5.7l-0.4,3.4c0.7-0.4,1.4-0.6,2.2-0.6c1.4,0,2.4,0.4,3.2,1.3s1.1,2,1.1,3.5
				c0,1.4-0.4,2.6-1.2,3.5s-2,1.3-3.4,1.3c-1.3,0-2.4-0.4-3.2-1.1s-1.3-1.7-1.4-2.9h2.3c0.1,0.7,0.3,1.2,0.7,1.6s0.9,0.6,1.6,0.6
				c0.7,0,1.3-0.3,1.7-0.8s0.6-1.2,0.6-2.1c0-0.9-0.2-1.6-0.7-2.1s-1.1-0.8-1.9-0.8c-0.4,0-0.8,0.1-1.1,0.2s-0.6,0.3-1,0.7
				L111.6,331z"/>
			<path class="st0" d="M137,332.8c0,1.6-0.4,2.9-1.1,3.9s-1.7,1.5-3,1.5c-1.2,0-2.1-0.4-2.8-1.1v5h-2.4v-14.6h2.2l0.1,1.1
				c0.7-0.8,1.6-1.3,2.8-1.3c1.3,0,2.3,0.5,3,1.4s1.1,2.3,1.1,4V332.8z M134.6,332.6c0-1.1-0.2-1.9-0.6-2.5s-1-0.9-1.8-0.9
				c-1,0-1.7,0.4-2.1,1.2v4.7c0.4,0.8,1.1,1.2,2.1,1.2c0.8,0,1.3-0.3,1.8-0.9S134.6,333.9,134.6,332.6z"/>
			<path class="st0" d="M138.7,332.6c0-1,0.2-2,0.6-2.8s1-1.5,1.7-1.9s1.6-0.7,2.6-0.7c1.4,0,2.6,0.5,3.5,1.4s1.4,2.1,1.4,3.7l0,0.6
				c0,1-0.2,2-0.6,2.8s-1,1.5-1.7,1.9s-1.6,0.7-2.6,0.7c-1.5,0-2.7-0.5-3.6-1.5s-1.3-2.3-1.3-4V332.6z M141,332.8
				c0,1.1,0.2,1.9,0.7,2.6s1.1,0.9,1.9,0.9s1.4-0.3,1.9-0.9s0.7-1.5,0.7-2.7c0-1.1-0.2-1.9-0.7-2.5s-1.1-0.9-1.9-0.9
				c-0.8,0-1.4,0.3-1.8,0.9S141,331.6,141,332.8z"/>
			<path class="st0" d="M157,337c-0.7,0.8-1.7,1.2-3,1.2c-1.1,0-2-0.3-2.6-1s-0.9-1.6-0.9-2.9v-6.8h2.4v6.8c0,1.3,0.6,2,1.7,2
				c1.2,0,1.9-0.4,2.3-1.2v-7.6h2.4V338h-2.2L157,337z"/>
			<path class="st0" d="M164.1,327.4l0.1,1.2c0.8-0.9,1.8-1.4,3.1-1.4c2.2,0,3.3,1.3,3.4,3.8v7h-2.4v-6.8c0-0.7-0.1-1.2-0.4-1.5
				s-0.8-0.5-1.4-0.5c-1,0-1.7,0.4-2.1,1.3v7.5h-2.4v-10.6H164.1z"/>
			<path class="st0" d="M172.7,332.6c0-1.6,0.4-2.9,1.1-3.9s1.8-1.5,3-1.5c1.1,0,2,0.4,2.7,1.2V323h2.4v15h-2.1l-0.1-1.1
				c-0.7,0.9-1.7,1.3-2.8,1.3c-1.2,0-2.2-0.5-3-1.5S172.7,334.4,172.7,332.6z M175,332.9c0,1.1,0.2,1.9,0.6,2.5s1,0.9,1.8,0.9
				c1,0,1.7-0.4,2.1-1.3v-4.5c-0.4-0.8-1.1-1.3-2.1-1.3c-0.8,0-1.4,0.3-1.8,0.9S175,331.6,175,332.9z"/>
			<path class="st0" d="M190.4,335.1c0-0.4-0.2-0.7-0.5-1s-0.9-0.4-1.7-0.6s-1.5-0.4-2-0.6c-1.2-0.6-1.8-1.4-1.8-2.5
				c0-0.9,0.4-1.7,1.2-2.3s1.7-0.9,2.9-0.9c1.3,0,2.3,0.3,3.1,0.9s1.2,1.4,1.2,2.4h-2.4c0-0.5-0.2-0.8-0.5-1.1s-0.8-0.5-1.3-0.5
				c-0.5,0-0.9,0.1-1.3,0.4s-0.5,0.6-0.5,1c0,0.4,0.2,0.6,0.5,0.8s0.9,0.4,1.9,0.6s1.7,0.4,2.2,0.7s0.9,0.6,1.2,1s0.4,0.9,0.4,1.4
				c0,1-0.4,1.7-1.2,2.3s-1.8,0.9-3.1,0.9c-0.9,0-1.6-0.2-2.3-0.5s-1.2-0.7-1.6-1.3s-0.6-1.1-0.6-1.8h2.3c0,0.6,0.2,1,0.6,1.3
				s0.9,0.5,1.6,0.5c0.6,0,1.1-0.1,1.4-0.4S190.4,335.5,190.4,335.1z"/>
			<path class="st0" d="M199.6,332.6c0-1,0.2-2,0.6-2.8s1-1.5,1.7-1.9s1.6-0.7,2.6-0.7c1.4,0,2.6,0.5,3.5,1.4s1.4,2.1,1.4,3.7l0,0.6
				c0,1-0.2,2-0.6,2.8s-1,1.5-1.7,1.9s-1.6,0.7-2.6,0.7c-1.5,0-2.7-0.5-3.6-1.5s-1.3-2.3-1.3-4V332.6z M202,332.8
				c0,1.1,0.2,1.9,0.7,2.6s1.1,0.9,1.9,0.9s1.4-0.3,1.9-0.9s0.7-1.5,0.7-2.7c0-1.1-0.2-1.9-0.7-2.5s-1.1-0.9-1.9-0.9
				c-0.8,0-1.4,0.3-1.8,0.9S202,331.6,202,332.8z"/>
			<path class="st0" d="M212.4,338v-8.8h-1.6v-1.8h1.6v-1c0-1.2,0.3-2.1,1-2.7s1.6-1,2.7-1c0.4,0,0.9,0.1,1.3,0.2l-0.1,1.9
				c-0.3-0.1-0.6-0.1-0.9-0.1c-1.1,0-1.7,0.6-1.7,1.7v0.9h2.1v1.8h-2.1v8.8H212.4z"/>
			<path class="st0" d="M224.7,338v-8.8h-1.6v-1.8h1.6v-1c0-1.2,0.3-2.1,1-2.7s1.6-1,2.7-1c0.4,0,0.9,0.1,1.3,0.2l-0.1,1.9
				c-0.3-0.1-0.6-0.1-0.9-0.1c-1.1,0-1.7,0.6-1.7,1.7v0.9h2.1v1.8h-2.1v8.8H224.7z"/>
			<path class="st0" d="M230.6,332.6c0-1,0.2-2,0.6-2.8s1-1.5,1.7-1.9s1.6-0.7,2.6-0.7c1.4,0,2.6,0.5,3.5,1.4s1.4,2.1,1.4,3.7l0,0.6
				c0,1-0.2,2-0.6,2.8s-1,1.5-1.7,1.9s-1.6,0.7-2.6,0.7c-1.5,0-2.7-0.5-3.6-1.5s-1.3-2.3-1.3-4V332.6z M233,332.8
				c0,1.1,0.2,1.9,0.7,2.6s1.1,0.9,1.9,0.9s1.4-0.3,1.9-0.9s0.7-1.5,0.7-2.7c0-1.1-0.2-1.9-0.7-2.5s-1.1-0.9-1.9-0.9
				c-0.8,0-1.4,0.3-1.8,0.9S233,331.6,233,332.8z"/>
			<path class="st0" d="M248.1,329.6c-0.3-0.1-0.6-0.1-1-0.1c-1.1,0-1.8,0.4-2.2,1.2v7.2h-2.4v-10.6h2.3l0.1,1.2
				c0.6-0.9,1.4-1.4,2.4-1.4c0.3,0,0.6,0,0.8,0.1L248.1,329.6z"/>
			<path class="st0" d="M253.9,336.3c0.6,0,1.1-0.2,1.5-0.5s0.6-0.8,0.6-1.3h2.2c0,0.7-0.2,1.3-0.6,1.8s-0.9,1-1.6,1.4
				c-0.7,0.3-1.4,0.5-2.1,0.5c-1.5,0-2.6-0.5-3.5-1.4s-1.3-2.3-1.3-4v-0.2c0-1.6,0.4-2.9,1.3-3.9s2-1.5,3.5-1.5
				c1.3,0,2.3,0.4,3.1,1.1s1.2,1.7,1.2,2.9H256c0-0.6-0.2-1.1-0.6-1.5s-0.9-0.6-1.5-0.6c-0.8,0-1.4,0.3-1.8,0.8s-0.6,1.4-0.6,2.5
				v0.4c0,1.1,0.2,2,0.6,2.6S253.1,336.3,253.9,336.3z"/>
			<path class="st0" d="M264.8,338.2c-1.5,0-2.7-0.5-3.7-1.4s-1.4-2.2-1.4-3.8v-0.3c0-1.1,0.2-2,0.6-2.8s1-1.5,1.7-1.9
				s1.6-0.7,2.5-0.7c1.4,0,2.6,0.5,3.3,1.4s1.2,2.2,1.2,3.9v1h-6.9c0.1,0.9,0.4,1.6,0.9,2.1s1.2,0.8,1.9,0.8c1.1,0,2-0.4,2.7-1.3
				l1.3,1.2c-0.4,0.6-1,1.1-1.7,1.5S265.7,338.2,264.8,338.2z M264.5,329.2c-0.7,0-1.2,0.2-1.6,0.7s-0.7,1.1-0.8,1.9h4.5v-0.2
				c-0.1-0.8-0.3-1.4-0.6-1.8S265.2,329.2,264.5,329.2z"/>
		</g>
	</g>
	<g>
		<path class="st3" d="M445.6,127.2c0,0-5.4-28.9-13.5-27c0,0-1.1,13.4-1.1,16.8c0,3.3-15.5,36-16.3,40.1s13.4,52,13.4,52
			s9.5,28.8,12.9,31.3s42.2,17.1,71,9.9c0,0,44-46.2,45.2-61.6s-15.3-23-15.3-24.4s-0.4-41-0.2-42.4s-11.2-13.8-15.3-12
			C522.2,111.6,448.9,127.2,445.6,127.2z"/>
		<path class="st2" d="M425.9,201.9c0,0-13.3-39.8-11.3-44.8s19.4-42.8,19.9-44.4c0.6-1.6,17.1-2.7,16.9,1.1
			c-0.1,3.8-8.7,61.1-8.5,65.2c0.2,4.1-11.3,34.8-13.3,30.1C427.8,204.4,425.9,201.9,425.9,201.9z"/>
		<path class="st1" d="M444.5,172.3c0,0-14.9,23.3-14.9,33.2c0,9.9,8.1,32,14.3,35.7c6.2,3.7,37.4,15.8,48,11.4
			c10.5-4.4,43.3-43.3,40.3-47.1c-3-3.8-16.6,4.1-21.5,7.4c-4.9,3.2-43.7,15.4-62.4,4c0,0-8.3-22.5-5.6-30.4
			S444.5,172.3,444.5,172.3z"/>
		<path class="st1" d="M444.4,129.1c0,0,6.4-0.2,3.9,7.9l-5,37.1c0,0,6.9,18.5,9.2,21.5s12.4,14.7,26.4,9.2c0,0,26.5-20.4,28.5-26.6
			c2-6.2,8.7-55.4,8.8-56.3S444.4,129.1,444.4,129.1z"/>
		<path class="st2" d="M548.9,47.4c0,0,5.8-6,8.1,2c2.3,8-11.6,74.7-19.2,84.6s-5.9-20-16.6-25c0,0,19.3-15.1,24.8-33.1
			C551.6,58,548.9,47.4,548.9,47.4z"/>
		<path class="st4" d="M546.6,47c0,0,10.2-6.8,7.8,16.9C552,87.6,543.9,90.7,541,93.8s-16.1,15.5-19.2,15.7
			c-3.1,0.2-5.4-2.5-5.5-4.4s11.2-38,17.7-44.5S546.6,47,546.6,47z"/>
		<path class="st2" d="M431.7,107.2c0,0,32.4-28.2,36.1-27.5s27.5-0.2,36.7,4.8c9.2,4.9,16.5,23.7,16.5,23.7s20.7,14.3,17.6,19.5
			c-3,5.2-6.4-4.9-12.6-5.5c-6.2-0.5,6.1,14.9-11.1,16.5c-17.2,1.6-65.5-26.4-77.9-21.4C424.5,122.1,431.7,107.2,431.7,107.2z"/>
		<path class="st2" d="M449.3,145.6c0,0-10.2-15.3-9.4-19.8c0.8-4.4,7.3-19.9,9.4-21.6c2.2-1.7,27.2-20.9,46.1-12.9
			s25.3,30.2,24.5,35.5c-0.8,5.3-8.5,13.4-12.3,23.6c-3.7,10.1-4.4,12.5-4.4,12.5l-47.8-10L449.3,145.6z"/>
		<path class="st1" d="M503.5,84.3c0,0,42-41.9,45.1-41.2s6.7,1.8,6.6,5.6c-0.1,3.8-2-5.5-6.6-1.1c-4.7,4.4-31.8,48-28.6,59.1
			S508.3,86.4,503.5,84.3z"/>
		<path class="st1" d="M477.7,86.8c0,0-19.8-51.7-27.3-52.2c-7.6-0.5-12.2,5-14.3,11.1s-11.1,56.6-7.4,68.8
			C432.4,126.8,438.4,100.7,477.7,86.8z"/>
		<path class="st4" d="M443.3,44.3c0,0,17.5,33.2,16.9,39.4c-0.5,6.2-27.6,24.2-27.8,23.2C432.3,105.9,430.7,53.5,443.3,44.3z"/>
		<path class="st4" d="M466,183.8c0,0-9.6,15.4-9.5,18.5s0.7,16.1,6.9,16.6c6.2,0.5,14.5-3.5,15.7-5.9c1.2-2.4,0.7-10.8-0.6-22.3
			C477.2,179.2,466,183.8,466,183.8z"/>
		<path class="st1" d="M472.3,147.2c0,0-2.7-18.5-1.8-24.1c0.9-5.7-13.8-9.7-19.1-6.1c-5.3,3.6-8.9,7.1-7.9,13.4
			s12.9,15.3,11.8,18.6c-1.2,3.3,15.2,2.6,15.2,2.6L472.3,147.2z"/>
		<path class="st0" d="M451.1,120.3c0,0,3.7-3.7,11.3-2c7.6,1.7,7.7,10.3,4.2,15c0,0-10.4,3.4-12.7,1.3
			C451.6,132.5,447.1,127.6,451.1,120.3z"/>
		<circle class="st4" cx="463.5" cy="125.6" r="5.7"/>
		<circle class="st0" cx="464" cy="124.9" r="5.2"/>
		
			<ellipse transform="matrix(0.3854 -0.9227 0.9227 0.3854 168.3232 500.2106)" class="st4" cx="459.7" cy="123.7" rx="1.2" ry="1.2"/>
		<path class="st1" d="M477.9,147.1c0,0,10.8-14.3,12.5-20.1s15.1-7.3,18.7,1s4.9,7.2,0.2,15.1s-4,10.3-10.7,14.5
			c-6.7,4.1-8,0.6-8,3.3S477.9,147.1,477.9,147.1z"/>
		<path class="st0" d="M491.5,134.9c0,0,5.8-9.7,8.9-8.5c3.1,1.2,10.6,5,7.9,11.2c-2.7,6.2-7.8,7.4-10.3,5.8
			C495.5,141.9,491.5,134.9,491.5,134.9z"/>
		<circle class="st4" cx="497.9" cy="134.3" r="5.2"/>
		<circle class="st0" cx="497.4" cy="133.7" r="4.7"/>
		
			<ellipse transform="matrix(0.9227 -0.3854 0.3854 0.9227 -12.3725 203.4886)" class="st4" cx="501.4" cy="132.6" rx="1.1" ry="1.1"/>
		<path class="st7" d="M515.1,156.2c0,0,1.4-3,2.6-2.3c1.2,0.7,1,2.4,0,3.1c-1,0.7-3.1,2.5-3.3,1.9S515.1,156.2,515.1,156.2z"/>
		<path class="st7" d="M443.3,146.6c0,0-2-1.6-1.6-2.5c0.4-0.9,1.6-0.8,2.1-0.1c0.5,0.7,1.8,2.1,1.3,2.3
			C444.6,146.4,443.3,146.6,443.3,146.6z"/>
		<path class="st2" d="M475.7,170.8c0,0-1.1,3.1-3.2,4.5c-2.1,1.4-3.8,7.2-3.5,8.6c0.3,1.4,0.9,7.2,0.6,8.7c-0.4,1.6-4,7-4.3,9.2
			c-0.3,2.1,0.2,6.1,0.8,7.3c0.6,1.2,1.2-0.7,1.2-0.7s-1.3-5.5-0.6-6.4c0.7-0.9,4.1-7.2,4.7-8.3c0.6-1.1,0.9-6.4,0.6-8.1
			c-0.3-1.7,0.8-6.1,1.4-6.8c0.6-0.7,3.5-2.7,3.6-3.1s1.2-1.5,1.2-1.5S475.7,171.9,475.7,170.8z"/>
		<path class="st0" d="M449.6,145.6c0,0,20.4-0.5,28.6-4.3s17.2,21.6,25.3,21.6c0,0-1,11.9-4.3,17.3s-11.4,18.9-16.7,18.4
			c-5.3-0.5-14.1-6.9-14.1-6.9s-13.5,0.7-16.4-3C449.2,185,444.9,175.3,449.6,145.6z"/>
		<path class="st1" d="M464.1,164.7c0,0,17.4,0.2,19.7,9.6c2.4,9.4-4.7,13.3-7.4,13.2s-14.7-0.9-15.4-3.3c-0.6-2.5-2.3-6.4-1.7-9.1
			C460,172.3,460.3,166,464.1,164.7z"/>
		<path class="st0" d="M484.1,177.8c0,0,1.9,4.8-5.1,5.9c-7,1.1-3.7-5.8-2.5-5.6s1.8,1.1,1.8,2.7c0,1.5,1.7,2.7,3.9,0.5
			C484.3,179,484.1,177.8,484.1,177.8z"/>
		<path class="st0" d="M459.2,176.1c0,0,1.5,5.3,4.4,5c2.9-0.3,2.2-2.1,2.9-3.2c0.7-1.1,2.9-0.3,2.9,1c0.1,1.3,0.2,3.5-2.2,3.4
			C464.9,182.3,459.1,182.9,459.2,176.1z"/>
		<path class="st0" d="M474,167.3c0,0-4.1,0.1-5.1,0.6c-1,0.5-2.4,1.7-3.5,1.3c-1.1-0.4-1.9-1.4-2.7-0.7s-0.7-1.7,1.9-2.5
			c2.6-0.8,4.3,1,5.4,1C471.1,167,474,167.3,474,167.3z"/>
		<path class="st0" d="M472.2,180.6c0,0-1.1,0.7-0.9,2.2c0.2,1.5-0.7,4.1,0,4.4c0.7,0.3,2.6,0.4,2.9,0.2c0.3-0.2-1-1.7-1.4-2.4
			c-0.5-0.7-0.6-3-0.6-3.7C472.2,180.6,472.2,180.6,472.2,180.6z"/>
		<path class="st1" d="M501.4,119.7c3.7,0.5,7.4,3,7.5,3.5c0.1,0.5,2.1,1.7,2.1,1.7s-3.5-4.3-5.7-5.2c-2.2-0.9-7.4-2.4-7.8-0.9
			C496.9,120.2,497.7,119.2,501.4,119.7z"/>
		<g>
			<path class="st1" d="M397.8,310.6c-0.5,0.6-1.3,1.1-2.2,1.5c-1,0.3-2,0.5-3.2,0.5c-1.2,0-2.3-0.3-3.2-0.8s-1.6-1.3-2.1-2.3
				c-0.5-1-0.8-2.2-0.8-3.6v-1c0-1.4,0.2-2.6,0.7-3.7s1.2-1.8,2.1-2.4c0.9-0.5,2-0.8,3.2-0.8c1.7,0,3,0.4,4,1.2c1,0.8,1.5,2,1.7,3.5
				H395c-0.1-0.8-0.4-1.4-0.9-1.8c-0.4-0.4-1.1-0.6-1.8-0.6c-1,0-1.8,0.4-2.3,1.1c-0.5,0.7-0.8,1.9-0.8,3.3v0.9
				c0,1.5,0.3,2.6,0.8,3.4s1.4,1.1,2.5,1.1c1.1,0,1.9-0.2,2.4-0.7v-2.5h-2.7V305h5.6V310.6z"/>
			<path class="st1" d="M408.9,306.3h-5.6v3.8h6.6v2.4h-9.5v-14.2h9.5v2.4h-6.6v3.4h5.6V306.3z"/>
			<path class="st1" d="M417,307.2h-2.3v5.2h-2.9v-14.2h5.3c1.7,0,3,0.4,3.9,1.1c0.9,0.7,1.4,1.8,1.4,3.2c0,1-0.2,1.8-0.6,2.4
				s-1.1,1.2-1.9,1.5l3.1,5.8v0.1h-3.1L417,307.2z M414.6,304.9h2.4c0.7,0,1.3-0.2,1.7-0.6c0.4-0.4,0.6-0.9,0.6-1.5
				c0-0.7-0.2-1.2-0.6-1.6s-1-0.6-1.8-0.6h-2.4V304.9z"/>
			<path class="st1" d="M428.4,298.2l3.7,10.3l3.6-10.3h3.8v14.2h-2.9v-3.9l0.3-6.7l-3.8,10.6h-2l-3.8-10.6l0.3,6.7v3.9h-2.9v-14.2
				H428.4z"/>
			<path class="st1" d="M450.4,309.5h-5.1l-1,2.9h-3.1l5.3-14.2h2.7l5.3,14.2h-3.1L450.4,309.5z M446.1,307.1h3.6l-1.8-5.3
				L446.1,307.1z"/>
			<path class="st1" d="M467.5,312.4h-2.9l-5.7-9.4v9.4H456v-14.2h2.9l5.7,9.4v-9.4h2.9V312.4z"/>
			<path class="st1" d="M482.7,308.7c0-0.6-0.2-1-0.6-1.3s-1.1-0.6-2.1-0.9s-1.8-0.7-2.4-1c-1.6-0.9-2.4-2-2.4-3.5
				c0-0.8,0.2-1.5,0.6-2.1c0.4-0.6,1.1-1.1,1.9-1.4s1.7-0.5,2.7-0.5c1,0,1.9,0.2,2.7,0.6c0.8,0.4,1.4,0.9,1.9,1.6s0.7,1.4,0.7,2.3
				h-2.9c0-0.7-0.2-1.2-0.6-1.5s-1-0.5-1.7-0.5c-0.7,0-1.3,0.2-1.7,0.5c-0.4,0.3-0.6,0.7-0.6,1.2c0,0.5,0.2,0.8,0.7,1.2
				c0.5,0.3,1.2,0.6,2.1,0.9c1.7,0.5,2.9,1.1,3.6,1.9s1.1,1.7,1.1,2.8c0,1.2-0.5,2.2-1.4,2.9c-0.9,0.7-2.2,1-3.8,1
				c-1.1,0-2.1-0.2-3-0.6s-1.6-0.9-2.1-1.6c-0.5-0.7-0.7-1.5-0.7-2.4h2.9c0,1.6,0.9,2.4,2.8,2.4c0.7,0,1.2-0.1,1.6-0.4
				S482.7,309.2,482.7,308.7z"/>
			<path class="st1" d="M499.3,312.4h-2.9v-6.1h-5.7v6.1h-2.9v-14.2h2.9v5.8h5.7v-5.8h2.9V312.4z"/>
			<path class="st1" d="M510.5,306.3h-5.6v3.8h6.6v2.4H502v-14.2h9.5v2.4h-6.6v3.4h5.6V306.3z"/>
			<path class="st1" d="M516.3,307.4v5h-2.9v-14.2h5.5c1.1,0,2,0.2,2.8,0.6s1.4,0.9,1.9,1.7c0.4,0.7,0.7,1.5,0.7,2.5
				c0,1.4-0.5,2.5-1.4,3.3c-1,0.8-2.3,1.2-4,1.2H516.3z M516.3,305.1h2.6c0.8,0,1.4-0.2,1.8-0.5c0.4-0.4,0.6-0.9,0.6-1.6
				c0-0.7-0.2-1.3-0.6-1.7s-1-0.7-1.7-0.7h-2.7V305.1z"/>
			<path class="st1" d="M538,312.4H535v-6.1h-5.7v6.1h-2.9v-14.2h2.9v5.8h5.7v-5.8h2.9V312.4z"/>
			<path class="st1" d="M549.2,306.3h-5.6v3.8h6.6v2.4h-9.5v-14.2h9.5v2.4h-6.6v3.4h5.6V306.3z"/>
			<path class="st1" d="M557.3,307.2h-2.3v5.2H552v-14.2h5.3c1.7,0,3,0.4,3.9,1.1c0.9,0.7,1.4,1.8,1.4,3.2c0,1-0.2,1.8-0.6,2.4
				s-1.1,1.2-1.9,1.5l3.1,5.8v0.1h-3.1L557.3,307.2z M554.9,304.9h2.4c0.7,0,1.3-0.2,1.7-0.6c0.4-0.4,0.6-0.9,0.6-1.5
				c0-0.7-0.2-1.2-0.6-1.6s-1-0.6-1.8-0.6h-2.4V304.9z"/>
			<path class="st1" d="M564.9,312.4v-14.2h4.4c1.2,0,2.4,0.3,3.4,0.8s1.8,1.4,2.3,2.4c0.6,1,0.8,2.2,0.8,3.5v0.7
				c0,1.3-0.3,2.5-0.8,3.5c-0.5,1-1.3,1.8-2.3,2.4c-1,0.6-2.1,0.9-3.3,0.9H564.9z M567.8,300.6v9.5h1.4c1.1,0,2-0.4,2.6-1.1
				s0.9-1.8,0.9-3.2V305c0-1.4-0.3-2.5-0.9-3.3c-0.6-0.7-1.5-1.1-2.6-1.1H567.8z"/>
			<path class="st0" d="M402.8,340.4h-9.6v-1.6l4.7-5.2c0.7-0.8,1.2-1.4,1.5-1.9c0.3-0.5,0.4-1,0.4-1.5c0-0.7-0.2-1.2-0.6-1.6
				s-0.9-0.6-1.5-0.6c-0.8,0-1.4,0.2-1.8,0.7c-0.4,0.5-0.6,1.1-0.6,1.9H393c0-0.9,0.2-1.6,0.6-2.3c0.4-0.7,1-1.2,1.7-1.6
				s1.6-0.6,2.5-0.6c1.4,0,2.5,0.3,3.3,1c0.8,0.7,1.2,1.7,1.2,2.9c0,0.7-0.2,1.5-0.6,2.2s-1.1,1.7-2,2.7l-3.5,3.7h6.6V340.4z"/>
			<path class="st0" d="M407.5,332.2h1.4c0.7,0,1.3-0.2,1.7-0.6c0.4-0.4,0.6-0.9,0.6-1.6c0-0.7-0.2-1.2-0.5-1.6
				c-0.4-0.4-0.9-0.6-1.6-0.6c-0.6,0-1.2,0.2-1.6,0.6s-0.6,0.8-0.6,1.4h-2.4c0-0.7,0.2-1.4,0.6-2c0.4-0.6,0.9-1.1,1.6-1.4
				s1.5-0.5,2.3-0.5c1.4,0,2.5,0.4,3.3,1.1s1.2,1.7,1.2,3c0,0.6-0.2,1.2-0.6,1.8c-0.4,0.6-0.9,1-1.6,1.3c0.8,0.3,1.4,0.7,1.8,1.3
				c0.4,0.6,0.6,1.3,0.6,2.1c0,1.3-0.4,2.3-1.3,3c-0.9,0.8-2,1.1-3.5,1.1c-1.4,0-2.5-0.4-3.4-1.1c-0.9-0.7-1.3-1.7-1.3-2.9h2.4
				c0,0.6,0.2,1.1,0.6,1.5s1,0.6,1.7,0.6c0.7,0,1.3-0.2,1.7-0.6c0.4-0.4,0.6-1,0.6-1.7c0-0.7-0.2-1.3-0.7-1.7
				c-0.4-0.4-1.1-0.6-2-0.6h-1.4V332.2z"/>
			<path class="st0" d="M425.2,330c0,0.7-0.2,1.3-0.5,1.9c-0.4,0.5-0.8,1-1.5,1.3c0.7,0.3,1.3,0.8,1.7,1.4s0.6,1.3,0.6,2
				c0,1.2-0.4,2.2-1.3,3c-0.8,0.7-2,1.1-3.4,1.1c-1.4,0-2.5-0.4-3.4-1.1s-1.3-1.7-1.3-3c0-0.8,0.2-1.4,0.6-2.1
				c0.4-0.6,1-1.1,1.7-1.4c-0.6-0.3-1.1-0.7-1.5-1.3c-0.4-0.5-0.5-1.2-0.5-1.9c0-1.2,0.4-2.2,1.2-2.9s1.8-1.1,3.2-1.1
				c1.3,0,2.4,0.4,3.2,1.1S425.2,328.8,425.2,330z M423.1,336.4c0-0.7-0.2-1.3-0.6-1.7s-1-0.6-1.7-0.6c-0.7,0-1.2,0.2-1.7,0.6
				c-0.4,0.4-0.6,1-0.6,1.7c0,0.7,0.2,1.3,0.6,1.7c0.4,0.4,1,0.6,1.7,0.6c0.7,0,1.3-0.2,1.7-0.6S423.1,337.2,423.1,336.4z
				 M422.8,330.1c0-0.6-0.2-1.1-0.5-1.5c-0.4-0.4-0.8-0.6-1.4-0.6s-1.1,0.2-1.4,0.6s-0.5,0.9-0.5,1.6c0,0.7,0.2,1.2,0.5,1.6
				c0.4,0.4,0.8,0.6,1.4,0.6s1.1-0.2,1.4-0.6C422.6,331.2,422.8,330.7,422.8,330.1z"/>
			<path class="st0" d="M442.2,335.3c0,1.6-0.4,2.9-1.1,3.9s-1.7,1.5-3,1.5c-1.2,0-2.1-0.4-2.8-1.1v5h-2.4v-14.6h2.2l0.1,1.1
				c0.7-0.8,1.6-1.3,2.8-1.3c1.3,0,2.3,0.5,3,1.4s1.1,2.3,1.1,4V335.3z M439.8,335.1c0-1.1-0.2-1.9-0.6-2.5s-1-0.9-1.8-0.9
				c-1,0-1.7,0.4-2.1,1.2v4.7c0.4,0.8,1.1,1.2,2.1,1.2c0.8,0,1.3-0.3,1.8-0.9C439.6,337.2,439.8,336.3,439.8,335.1z"/>
			<path class="st0" d="M443.9,335.1c0-1,0.2-2,0.6-2.8s1-1.5,1.7-1.9s1.6-0.7,2.6-0.7c1.4,0,2.6,0.5,3.5,1.4s1.4,2.1,1.4,3.7l0,0.6
				c0,1-0.2,2-0.6,2.8s-1,1.5-1.7,1.9c-0.7,0.4-1.6,0.7-2.6,0.7c-1.5,0-2.7-0.5-3.6-1.5c-0.9-1-1.3-2.3-1.3-4V335.1z M446.3,335.3
				c0,1.1,0.2,1.9,0.7,2.6s1.1,0.9,1.9,0.9s1.4-0.3,1.9-0.9c0.4-0.6,0.7-1.5,0.7-2.7c0-1.1-0.2-1.9-0.7-2.5s-1.1-0.9-1.9-0.9
				c-0.8,0-1.4,0.3-1.8,0.9C446.5,333.1,446.3,334,446.3,335.3z"/>
			<path class="st0" d="M462.2,339.4c-0.7,0.8-1.7,1.2-3,1.2c-1.1,0-2-0.3-2.6-1c-0.6-0.7-0.9-1.6-0.9-2.9v-6.8h2.4v6.8
				c0,1.3,0.6,2,1.7,2c1.2,0,1.9-0.4,2.3-1.2v-7.6h2.4v10.6h-2.2L462.2,339.4z"/>
			<path class="st0" d="M469.3,329.9l0.1,1.2c0.8-0.9,1.8-1.4,3.1-1.4c2.2,0,3.3,1.3,3.4,3.8v7h-2.4v-6.8c0-0.7-0.1-1.2-0.4-1.5
				c-0.3-0.3-0.8-0.5-1.4-0.5c-1,0-1.7,0.4-2.1,1.3v7.5H467v-10.6H469.3z"/>
			<path class="st0" d="M477.9,335.1c0-1.6,0.4-2.9,1.1-3.9c0.8-1,1.8-1.5,3-1.5c1.1,0,2,0.4,2.7,1.2v-5.4h2.4v15H485l-0.1-1.1
				c-0.7,0.9-1.7,1.3-2.8,1.3c-1.2,0-2.2-0.5-3-1.5C478.3,338.1,477.9,336.8,477.9,335.1z M480.2,335.3c0,1.1,0.2,1.9,0.6,2.5
				c0.4,0.6,1,0.9,1.8,0.9c1,0,1.7-0.4,2.1-1.3v-4.5c-0.4-0.8-1.1-1.3-2.1-1.3c-0.8,0-1.4,0.3-1.8,0.9
				C480.5,333.1,480.2,334.1,480.2,335.3z"/>
			<path class="st0" d="M495.6,337.6c0-0.4-0.2-0.7-0.5-1c-0.3-0.2-0.9-0.4-1.7-0.6c-0.8-0.2-1.5-0.4-2-0.6
				c-1.2-0.6-1.8-1.4-1.8-2.5c0-0.9,0.4-1.7,1.2-2.3c0.8-0.6,1.7-0.9,2.9-0.9c1.3,0,2.3,0.3,3.1,0.9c0.8,0.6,1.2,1.4,1.2,2.4h-2.4
				c0-0.5-0.2-0.8-0.5-1.1c-0.3-0.3-0.8-0.5-1.3-0.5c-0.5,0-0.9,0.1-1.3,0.4c-0.3,0.2-0.5,0.6-0.5,1c0,0.4,0.2,0.6,0.5,0.8
				c0.3,0.2,0.9,0.4,1.9,0.6c0.9,0.2,1.7,0.4,2.2,0.7c0.5,0.3,0.9,0.6,1.2,1c0.3,0.4,0.4,0.9,0.4,1.4c0,1-0.4,1.7-1.2,2.3
				c-0.8,0.6-1.8,0.9-3.1,0.9c-0.9,0-1.6-0.2-2.3-0.5c-0.7-0.3-1.2-0.7-1.6-1.3c-0.4-0.5-0.6-1.1-0.6-1.8h2.3c0,0.6,0.2,1,0.6,1.3
				s0.9,0.5,1.6,0.5c0.6,0,1.1-0.1,1.4-0.4C495.5,338.3,495.6,338,495.6,337.6z"/>
			<path class="st0" d="M504.8,335.1c0-1,0.2-2,0.6-2.8s1-1.5,1.7-1.9s1.6-0.7,2.6-0.7c1.4,0,2.6,0.5,3.5,1.4s1.4,2.1,1.4,3.7l0,0.6
				c0,1-0.2,2-0.6,2.8s-1,1.5-1.7,1.9c-0.7,0.4-1.6,0.7-2.6,0.7c-1.5,0-2.7-0.5-3.6-1.5c-0.9-1-1.3-2.3-1.3-4V335.1z M507.2,335.3
				c0,1.1,0.2,1.9,0.7,2.6s1.1,0.9,1.9,0.9s1.4-0.3,1.9-0.9c0.4-0.6,0.7-1.5,0.7-2.7c0-1.1-0.2-1.9-0.7-2.5s-1.1-0.9-1.9-0.9
				c-0.8,0-1.4,0.3-1.8,0.9C507.4,333.1,507.2,334,507.2,335.3z"/>
			<path class="st0" d="M517.6,340.4v-8.8H516v-1.8h1.6v-1c0-1.2,0.3-2.1,1-2.7c0.7-0.6,1.6-1,2.7-1c0.4,0,0.9,0.1,1.3,0.2l-0.1,1.9
				c-0.3-0.1-0.6-0.1-0.9-0.1c-1.1,0-1.7,0.6-1.7,1.7v0.9h2.1v1.8H520v8.8H517.6z"/>
			<path class="st0" d="M529.9,340.4v-8.8h-1.6v-1.8h1.6v-1c0-1.2,0.3-2.1,1-2.7c0.7-0.6,1.6-1,2.7-1c0.4,0,0.9,0.1,1.3,0.2
				l-0.1,1.9c-0.3-0.1-0.6-0.1-0.9-0.1c-1.1,0-1.7,0.6-1.7,1.7v0.9h2.1v1.8h-2.1v8.8H529.9z"/>
			<path class="st0" d="M535.8,335.1c0-1,0.2-2,0.6-2.8s1-1.5,1.7-1.9s1.6-0.7,2.6-0.7c1.4,0,2.6,0.5,3.5,1.4s1.4,2.1,1.4,3.7l0,0.6
				c0,1-0.2,2-0.6,2.8s-1,1.5-1.7,1.9c-0.7,0.4-1.6,0.7-2.6,0.7c-1.5,0-2.7-0.5-3.6-1.5c-0.9-1-1.3-2.3-1.3-4V335.1z M538.2,335.3
				c0,1.1,0.2,1.9,0.7,2.6s1.1,0.9,1.9,0.9s1.4-0.3,1.9-0.9c0.4-0.6,0.7-1.5,0.7-2.7c0-1.1-0.2-1.9-0.7-2.5s-1.1-0.9-1.9-0.9
				c-0.8,0-1.4,0.3-1.8,0.9C538.4,333.1,538.2,334,538.2,335.3z"/>
			<path class="st0" d="M553.3,332c-0.3-0.1-0.6-0.1-1-0.1c-1.1,0-1.8,0.4-2.2,1.2v7.2h-2.4v-10.6h2.3l0.1,1.2
				c0.6-0.9,1.4-1.4,2.4-1.4c0.3,0,0.6,0,0.8,0.1L553.3,332z"/>
			<path class="st0" d="M559.1,338.7c0.6,0,1.1-0.2,1.5-0.5s0.6-0.8,0.6-1.3h2.2c0,0.7-0.2,1.3-0.6,1.8c-0.4,0.6-0.9,1-1.6,1.4
				c-0.7,0.3-1.4,0.5-2.1,0.5c-1.5,0-2.7-0.5-3.5-1.4c-0.9-1-1.3-2.3-1.3-4V335c0-1.6,0.4-2.9,1.3-3.9s2-1.5,3.5-1.5
				c1.3,0,2.3,0.4,3.1,1.1s1.2,1.7,1.2,2.9h-2.2c0-0.6-0.2-1.1-0.6-1.5c-0.4-0.4-0.9-0.6-1.5-0.6c-0.8,0-1.4,0.3-1.8,0.8
				c-0.4,0.6-0.6,1.4-0.6,2.5v0.4c0,1.1,0.2,2,0.6,2.6C557.7,338.5,558.3,338.7,559.1,338.7z"/>
			<path class="st0" d="M570,340.6c-1.5,0-2.7-0.5-3.7-1.4c-0.9-0.9-1.4-2.2-1.4-3.8v-0.3c0-1.1,0.2-2,0.6-2.8
				c0.4-0.8,1-1.5,1.7-1.9c0.7-0.5,1.6-0.7,2.5-0.7c1.4,0,2.6,0.5,3.3,1.4c0.8,0.9,1.2,2.2,1.2,3.9v1h-6.9c0.1,0.9,0.4,1.6,0.9,2.1
				c0.5,0.5,1.2,0.8,1.9,0.8c1.1,0,2-0.4,2.7-1.3l1.3,1.2c-0.4,0.6-1,1.1-1.7,1.5C571.7,340.5,570.9,340.6,570,340.6z M569.7,331.6
				c-0.7,0-1.2,0.2-1.6,0.7s-0.7,1.1-0.8,1.9h4.5V334c-0.1-0.8-0.3-1.4-0.6-1.8S570.4,331.6,569.7,331.6z"/>
		</g>
		<path class="st2" d="M541.7,148c0,0-0.1,1.1-0.4,3c-1,5.5-3.8,17.6-10.5,25.2c-9,10.2-16.3,19.8-16.3,19.8s1,3.3,8,0
			c7-3.3,24.7-10.7,26-15.2s1.1-10.1,1.1-10.1l-7.7-6.6"/>
	</g>
	<g>
		<g>
			<path class="st1" d="M733.9,160.4c0,0,4.8,16.6,7.1,20.8c2.3,4.2-2.8,12.7-3.5,16.8c-0.7,4.1-1.4,16.7,2.9,19.1
				c4.3,2.5,34.9,23,37.8,27.3c2.9,4.3,23.4,7.2,29.4,5.6c6-1.6,17.5-7.4,18.9-11.7c1.4-4.3,19.8-32,24.8-36.5
				c5-4.5,10.9-13.6,10.9-20.6c0-7.1-4.1-15-6.8-15s-17.8,2-17.8,2L733.9,160.4z"/>
			<path class="st2" d="M748.2,167.8c0,0-1.8,2.8,0,4.3c1.8,1.4,5.8,1.4,5.6,7.3c-0.2,5.9,1.5,6.5-0.6,10.4
				c-2.1,3.8-1.7,9.5,0.6,13.1c2.3,3.6,12.2,14,12.8,15.5c0.7,1.6,7.9,4.1,11.5,5.6c3.6,1.6,10.3,6.5,12.1,9.2
				c1.8,2.7,6,9.2,7.8,9.2s9.8,3.2,15.3,0c5.4-3.2,6.8-5.6,7.7-10.6c0.9-5,4.5-13.3,6.6-16.5c2.2-3.3,10.9-12.5,12.4-13
				c1.5-0.5,9.3-12.4,9.3-14.6s1.8-9,1.9-9.9c0.1-0.9,1.5-3.1,2.2-5.2c0.7-2.1,0.9-6.2-1.1-4.8c-2,1.4-7.7,5.2-7.7,5.2L748.2,167.8z
				"/>
			<path class="st3" d="M856.1,126.9c0,0-5.6-30.9-8.8-32.9c-3.2-2-16.6-18.9-16.6-18.9l1.8-3.5c0,0,17.8,6.8,22,16
				s2.9,27.4,2.9,29.7C857.5,119.6,856.1,126.9,856.1,126.9z"/>
			<path class="st3" d="M764.4,75c0,0-28.2,6.9-29.8,13c-1.6,6.1-10.9,38.7-10.9,42.4s1.2,9.9,1.2,9.9s8.4-11.3,8.4-14.7
				s1.9-17.7,5.1-23.1s22.5-24,24.2-25C764.3,76.5,764.4,75,764.4,75z"/>
			<path class="st1" d="M729.5,130.4c0,0,1,22.3,3.7,27c2.7,4.7,22.6,14.3,23.6,14.6c1,0.3,5.1,22.9,16.6,27
				c11.5,4.1,24.3,15.9,27.7,16.2c3.4,0.3,17.2-4.1,20.3-7.8s16.6-19.3,17.6-21.3c1-2,12.2-22,12.2-22s5.1-14.2,0-22.3
				c0,0,2.5-3.4,2.3-11.5s-3.3-15.9-3.3-16.9s-1.4-16.6-2.7-19.6c-1.4-3-18.9-26.7-24.7-27.7c-5.7-1-27.4-0.3-32.5,3.4
				c-5,3.7-30,0-39.8,12.2c-9.8,12.2-18.9,23.3-18.6,29.7C732.2,117.9,729.5,130.4,729.5,130.4z"/>
			<path class="st2" d="M791.4,132.4c0,0-7.9,2.7-9.6,5.1c-1.7,2.4-3.7,5.4-3.7,6.8s-0.3,7.4-2.7,7.8c-2.4,0.3-7.8-6.8-13.2-2
				c-5.4,4.7-8.4,10.1-8.4,13.5s3.9,7,4.9,8.5c1,1.5,4.9,13.1,7.1,16.3s6.1,9.6,10.3,10.1s11.8,4.4,13.2,5.2
				c1.4,0.8,10.5,9.8,12.5,9.8s12.2-3.4,14.7-5.7c2.5-2.4,4.4-2.2,5.9-3.5s3.5-6.4,4.7-7.6c1.2-1.2,9-11.3,9.6-11.3
				c0.7,0,6.8-11.3,7.8-12.3c1-1,6.8-16.2,6.8-18.1s-3-10.6-10-12.5s-7.6,1-11,3.2c-3.4,2.2-5.1-9-6.8-10.8s-8.8-3.2-10.6-3.2
				c-1.9,0-4.6,0-4.6,0L791.4,132.4z"/>
			<path class="st0" d="M799.2,130.4c-6.1,0.6-11.1,3.5-11.1,5.1c0,1.5-1,11.3,1.4,13c2.4,1.7,6.3,6.8,9.8,6.8
				c3.5,0,8.6-1.4,10.6-2.5s7.6-4.9,7.8-8.6c0.2-3.7,2.7-7.1,0-8.8s-4.9-2.7-9.3-3.7C803.9,130.6,805.4,129.9,799.2,130.4z"/>
			<path class="st1" d="M763.2,155.3c0,0-2.7,2.5,0.8,8.3s12.3,15.9,20.3,14.4s15-12.5,20.3-12.3c5.2,0.2,14,11.1,18.8,9.5
				c4.7-1.7,16.2-19.8,17.4-19.8c1.2,0,1.7,8.6,0,13.7s-9.5,16-12.3,18.6c-2.9,2.5-10.5,15.2-13.2,16.6s-10.5,3.2-12.8,3
				c-2.3-0.2-11.7-8.4-13.8-8.4c-2,0-8.8-2.2-10.1-3.9c-1.4-1.7-20.4-26-19.9-30.9C759.2,159,763.2,155.3,763.2,155.3z"/>
			<path class="st2" d="M743.1,124.8c0,0,6.3,0.3,6.8,2.5c0.5,2.2,0.7,4.6,2.5,6.6c1.9,2,0.2,3.8-3.7,6.6c-3.9,2.7-0.1,11-0.6,14.2
				c-0.5,3.2-5-1.2-5-4.1c0-2.9,0.7-9.3,1.7-11.5c1-2.2-1.7-7.3-1.7-10.8C743.1,124.8,743.1,124.8,743.1,124.8z"/>
			<path class="st2" d="M776.4,102.2c0,0-1.7,0.8-1.5,2c0.2,1.2,2.7,7.8,4.4,7.9c1.7,0.2,5.6-5.2,5.9-7.1c0.3-1.9-2.9-6.4-4.2-6.6
				c-1.4-0.2-3.9-0.3-4.2,1.7C776.4,102.2,776.4,102.2,776.4,102.2z"/>
			<path class="st2" d="M807.5,100c0,0,1.7,7.3,2.7,7.8c1,0.5,2.5,0.2,3.9,0c1.4-0.2,4.9-6.8,6.4-7.8c1.5-1-2.4-3.9-5.1-2.5
				c-2.7,1.4-2.9,0.8-4.6,0.9S807.5,100,807.5,100z"/>
			<path class="st2" d="M846.3,113c0,0-1.2,4.2-3.2,5.4c-2,1.2-3.2,5.6-3.2,6.4s3.7,5.7,6.4,6.8s2.7,3.2,3.7,2.2
				c1-1-3.4-9.2-3.5-10.3c-0.2-1.1,1.7-8.3,1.5-9.5C847.9,112.8,846.3,113,846.3,113z"/>
			<path class="st0" d="M817,118.8c0,0-0.9-9.2,2.6-9.3c3.5-0.2,8.5-4,14.2,0c5.7,4,2.2,8.5-2.4,11.3c-4.6,2.8-14.3,4.7-14.3,1.4
				S817,118.8,817,118.8z"/>
			<path class="st0" d="M761.5,120.5c0,0,3-6.6,6.5-6.3s8.7,0.7,10.6,4.2c1.9,3.5,3,4.8,1.9,6.8c-1.1,1.9-4.2,2.7-9.3,2.2
				s-9.7-1.9-9.7-4.4C761.5,120.5,761.5,120.5,761.5,120.5z"/>
			<path class="st1" d="M765.7,73.6c0,0-14.5,0.2-16.6,1c-2,0.8-19.9,11.7-23.3,12.7c-3.4,1-8.8,3.5-13,6.8s-7.8,5.2-9.3,5.8
				c-1.5,0.6-1.7,13.6-1.4,14.6c0.3,1,15.9,18.8,15.9,22.1c0,3.4-2.2,12.8-1,13.2c1.2,0.3,6.8,2,7.4,0c0.7-2,0.7-12,0.8-14.3
				c0.2-2.3,2.9-13.8,3.4-18.3s9.5-28.5,11-29.1s5.5-2.9,7.7-3.9C749.6,83.2,765.7,73.6,765.7,73.6z"/>
			<path class="st1" d="M827.5,69.4c0,0,3.8,2.3,6.6,2.3s9.4,0.3,11,0c1.6-0.3,15.1,5.2,17.2,5.2c2,0,11.7,3.7,11.7,4.6
				s1.5,11.3,0.7,15.7c-0.8,4.4-3.2,8.5-5.7,12.9s-6.8,11.8-6.4,14.9s2.2,7.4,2.2,9.2s-1,3.1-2.2,3.1s-6.1-7.6-6.3-10.3
				c-0.2-2.7,0-12-0.2-16.6c-0.2-4.6-0.9-16.2-2.6-18.6c-1.8-2.4-3.4-3.9-6.8-7.4c-3.4-3.5-6.6-9.1-8.3-9.3
				c-1.7-0.2-3.8-1.6-5.1-1.4c-1.3,0.2-4.7,0-4.7,0L827.5,69.4z"/>
			<g>
				<circle class="st12" cx="822.3" cy="114.3" r="5.3"/>
				<circle class="st0" cx="821.8" cy="113.7" r="4.8"/>
				
					<ellipse transform="matrix(0.9227 -0.3854 0.3854 0.9227 20.4034 327.0196)" class="st4" cx="825.9" cy="112.6" rx="1.1" ry="1.1"/>
			</g>
			<g>
				<circle class="st12" cx="774" cy="120.9" r="5.1"/>
				<circle class="st0" cx="774.4" cy="120.3" r="4.7"/>
				
					<ellipse transform="matrix(0.3854 -0.9227 0.9227 0.3854 363.4926 784.3099)" class="st4" cx="770.5" cy="119.3" rx="1.1" ry="1.1"/>
			</g>
			<path class="st3" d="M802,178.2c0,0-0.7-0.4-1.8-0.6c-0.5-0.1-1-0.2-1.7-0.1c-2.1,0-8.4,0.3-9.7,1.9s-3.7,5.8-3.8,8.5
				c-0.1,2.7-1.1,6.9,0.1,7.2s0.7-0.5,3.4,1.8s4.5,7.9,6.3,8.7c1.8,0.8,7.3,1.9,10.7,1.2c3.4-0.7,7.6-2.9,8.5-5c0.9-2.1,2-7.5,3-8
				c1-0.5,4-0.7,4.8-2c0.8-1.3-0.4-13.6-1.7-14.8c-1.3-1.3-5.9-2-7.9-1.8c-1.9,0.2-5.5,0.9-7,1.6S802,178.2,802,178.2z"/>
			<path class="st2" d="M800.3,177.6l3.8-0.2c0,0-1.7,1-1.6,1.8c0.1,0.8-0.5,3.4,0,5.2s1.4,4.1,1.6,5.5c0.1,1.4-1.3,4.7-1.6,5.4
				c-0.3,0.7-0.6,3,0,4.8s0,1.8,0,1.8s-1-3.5-0.9-4.1c0.1-0.6,0.6-3.6,0.9-5.2c0.3-1.6,0.3-5.4-0.3-6.3c-0.6-0.8-1.2-3.1-1.2-3.9
				c0-0.8,0.1-2.6,0-3.1C800.9,178.8,801.1,178.2,800.3,177.6z"/>
			<path class="st1" d="M817.4,141.6c0,0,2.1,5.3-5.6,6.5c-7.7,1.2-4.1-6.5-2.7-6.2c1.3,0.3,1.9,1.3,2,3c0,1.7,1.9,2.9,4.3,0.5
				C817.7,143,817.4,141.6,817.4,141.6z"/>
			<path class="st1" d="M788.1,143.2c0,0,1.7,6,5,5.7c3.3-0.3,2.5-2.4,3.3-3.7s3.3-0.3,3.3,1.2c0.1,1.5,0.2,4-2.5,3.9
				C794.5,150.2,788,150.8,788.1,143.2z"/>
			<path class="st1" d="M811.1,132.8c0,0-5.3,0.1-6.7,0.5c-1.3,0.5-3.2,1.5-4.6,1.1c-1.4-0.4-2.4-1.2-3.6-0.6
				c-1.1,0.6-0.9-1.5,2.6-2.2c3.4-0.7,5.7,0.9,7.1,0.9S811.1,132.8,811.1,132.8z"/>
			<path class="st1" d="M803,147.1c0,0-0.8,0.9-0.5,2.5c0.4,1.6,0,4.5,0.6,4.8s2.3,0.1,2.5-0.2s-1.1-1.8-1.6-2.5s-1-3.2-1-3.9
				C803,147.1,803,147.1,803,147.1z"/>
		</g>
		<g>
			<path class="st1" d="M737.3,305.9H735v5.2H732v-14.2h5.3c1.7,0,3,0.4,3.9,1.1c0.9,0.7,1.4,1.8,1.4,3.2c0,1-0.2,1.8-0.6,2.4
				s-1.1,1.2-1.9,1.5l3.1,5.8v0.1H740L737.3,305.9z M735,303.6h2.4c0.7,0,1.3-0.2,1.7-0.6c0.4-0.4,0.6-0.9,0.6-1.5
				c0-0.7-0.2-1.2-0.6-1.6s-1-0.6-1.8-0.6H735V303.6z"/>
			<path class="st1" d="M756.6,304.4c0,1.4-0.2,2.6-0.7,3.7c-0.5,1.1-1.2,1.9-2.1,2.4c-0.9,0.6-2,0.9-3.2,0.9
				c-1.2,0-2.2-0.3-3.2-0.8c-0.9-0.6-1.6-1.4-2.1-2.4s-0.8-2.3-0.8-3.6v-0.7c0-1.4,0.3-2.6,0.8-3.7c0.5-1.1,1.2-1.9,2.1-2.5
				c0.9-0.6,2-0.9,3.2-0.9c1.2,0,2.2,0.3,3.2,0.9c0.9,0.6,1.6,1.4,2.1,2.5c0.5,1.1,0.8,2.3,0.8,3.7V304.4z M753.6,303.7
				c0-1.5-0.3-2.6-0.8-3.4c-0.5-0.8-1.3-1.2-2.3-1.2c-1,0-1.7,0.4-2.3,1.1c-0.5,0.8-0.8,1.9-0.8,3.4v0.7c0,1.5,0.3,2.6,0.8,3.4
				c0.5,0.8,1.3,1.2,2.3,1.2c1,0,1.7-0.4,2.3-1.2s0.8-1.9,0.8-3.4V303.7z"/>
			<path class="st1" d="M768.7,299.3h-4.4v11.8h-2.9v-11.8h-4.3v-2.4h11.6V299.3z"/>
			<path class="st1" d="M781.4,299.3H777v11.8h-2.9v-11.8h-4.3v-2.4h11.6V299.3z"/>
			<path class="st1" d="M794.4,307l1.9-10.1h2.9l-3.2,14.2h-2.9l-2.3-9.5l-2.3,9.5h-2.9l-3.2-14.2h2.9l1.9,10.1l2.3-10.1h2.5
				L794.4,307z"/>
			<path class="st1" d="M809.5,305h-5.6v3.8h6.6v2.4h-9.5v-14.2h9.5v2.4h-6.6v3.4h5.6V305z"/>
			<path class="st1" d="M815.4,311.1h-2.9v-14.2h2.9V311.1z"/>
			<path class="st1" d="M821.2,308.8h6.2v2.4h-9.2v-14.2h2.9V308.8z"/>
			<path class="st1" d="M837.7,305h-5.6v3.8h6.6v2.4h-9.5v-14.2h9.5v2.4h-6.6v3.4h5.6V305z"/>
			<path class="st1" d="M845.8,305.9h-2.3v5.2h-2.9v-14.2h5.3c1.7,0,3,0.4,3.9,1.1c0.9,0.7,1.4,1.8,1.4,3.2c0,1-0.2,1.8-0.6,2.4
				s-1.1,1.2-1.9,1.5l3.1,5.8v0.1h-3.1L845.8,305.9z M843.5,303.6h2.4c0.7,0,1.3-0.2,1.7-0.6c0.4-0.4,0.6-0.9,0.6-1.5
				c0-0.7-0.2-1.2-0.6-1.6s-1-0.6-1.8-0.6h-2.4V303.6z"/>
			<path class="st0" d="M706.4,330.9h1.4c0.7,0,1.3-0.2,1.7-0.6c0.4-0.4,0.6-0.9,0.6-1.6c0-0.7-0.2-1.2-0.5-1.6
				c-0.4-0.4-0.9-0.6-1.6-0.6c-0.6,0-1.2,0.2-1.6,0.6s-0.6,0.8-0.6,1.4h-2.4c0-0.7,0.2-1.4,0.6-2c0.4-0.6,0.9-1.1,1.6-1.4
				s1.5-0.5,2.3-0.5c1.4,0,2.5,0.4,3.3,1.1s1.2,1.7,1.2,3c0,0.6-0.2,1.2-0.6,1.8c-0.4,0.6-0.9,1-1.6,1.3c0.8,0.3,1.4,0.7,1.8,1.3
				c0.4,0.6,0.6,1.3,0.6,2.1c0,1.3-0.4,2.3-1.3,3c-0.9,0.8-2,1.1-3.5,1.1c-1.4,0-2.5-0.4-3.4-1.1c-0.9-0.7-1.3-1.7-1.3-2.9h2.4
				c0,0.6,0.2,1.1,0.6,1.5s1,0.6,1.7,0.6c0.7,0,1.3-0.2,1.7-0.6c0.4-0.4,0.6-1,0.6-1.7c0-0.7-0.2-1.3-0.7-1.7
				c-0.4-0.4-1.1-0.6-2-0.6h-1.4V330.9z"/>
			<path class="st0" d="M724.7,339.1h-9.6v-1.6l4.7-5.2c0.7-0.8,1.2-1.4,1.5-1.9c0.3-0.5,0.4-1,0.4-1.5c0-0.7-0.2-1.2-0.6-1.6
				s-0.9-0.6-1.5-0.6c-0.8,0-1.4,0.2-1.8,0.7c-0.4,0.5-0.6,1.1-0.6,1.9h-2.4c0-0.9,0.2-1.6,0.6-2.3c0.4-0.7,1-1.2,1.7-1.6
				s1.6-0.6,2.5-0.6c1.4,0,2.5,0.3,3.3,1c0.8,0.7,1.2,1.7,1.2,2.9c0,0.7-0.2,1.5-0.6,2.2s-1.1,1.7-2,2.7l-3.5,3.7h6.6V339.1z"/>
			<path class="st0" d="M735.6,328.7c0,0.7-0.2,1.3-0.5,1.9c-0.4,0.5-0.8,1-1.5,1.3c0.7,0.3,1.3,0.8,1.7,1.4s0.6,1.3,0.6,2
				c0,1.2-0.4,2.2-1.3,3c-0.8,0.7-2,1.1-3.4,1.1c-1.4,0-2.5-0.4-3.4-1.1s-1.3-1.7-1.3-3c0-0.8,0.2-1.4,0.6-2.1
				c0.4-0.6,1-1.1,1.7-1.4c-0.6-0.3-1.1-0.7-1.5-1.3c-0.4-0.5-0.5-1.2-0.5-1.9c0-1.2,0.4-2.2,1.2-2.9s1.8-1.1,3.2-1.1
				c1.3,0,2.4,0.4,3.2,1.1S735.6,327.5,735.6,328.7z M733.5,335.1c0-0.7-0.2-1.3-0.6-1.7s-1-0.6-1.7-0.6c-0.7,0-1.2,0.2-1.7,0.6
				c-0.4,0.4-0.6,1-0.6,1.7c0,0.7,0.2,1.3,0.6,1.7c0.4,0.4,1,0.6,1.7,0.6c0.7,0,1.3-0.2,1.7-0.6S733.5,335.9,733.5,335.1z
				 M733.2,328.8c0-0.6-0.2-1.1-0.5-1.5c-0.4-0.4-0.8-0.6-1.4-0.6s-1.1,0.2-1.4,0.6s-0.5,0.9-0.5,1.6c0,0.7,0.2,1.2,0.5,1.6
				c0.4,0.4,0.8,0.6,1.4,0.6s1.1-0.2,1.4-0.6C733.1,329.9,733.2,329.4,733.2,328.8z"/>
			<path class="st0" d="M752.6,334c0,1.6-0.4,2.9-1.1,3.9s-1.7,1.5-3,1.5c-1.2,0-2.1-0.4-2.8-1.1v5h-2.4v-14.6h2.2l0.1,1.1
				c0.7-0.8,1.6-1.3,2.8-1.3c1.3,0,2.3,0.5,3,1.4s1.1,2.3,1.1,4V334z M750.3,333.8c0-1.1-0.2-1.9-0.6-2.5s-1-0.9-1.8-0.9
				c-1,0-1.7,0.4-2.1,1.2v4.7c0.4,0.8,1.1,1.2,2.1,1.2c0.8,0,1.3-0.3,1.8-0.9C750.1,335.9,750.3,335,750.3,333.8z"/>
			<path class="st0" d="M754.3,333.8c0-1,0.2-2,0.6-2.8s1-1.5,1.7-1.9s1.6-0.7,2.6-0.7c1.4,0,2.6,0.5,3.5,1.4s1.4,2.1,1.4,3.7l0,0.6
				c0,1-0.2,2-0.6,2.8s-1,1.5-1.7,1.9c-0.7,0.4-1.6,0.7-2.6,0.7c-1.5,0-2.7-0.5-3.6-1.5c-0.9-1-1.3-2.3-1.3-4V333.8z M756.7,334
				c0,1.1,0.2,1.9,0.7,2.6s1.1,0.9,1.9,0.9s1.4-0.3,1.9-0.9c0.4-0.6,0.7-1.5,0.7-2.7c0-1.1-0.2-1.9-0.7-2.5s-1.1-0.9-1.9-0.9
				c-0.8,0-1.4,0.3-1.8,0.9C756.9,331.8,756.7,332.7,756.7,334z"/>
			<path class="st0" d="M772.7,338.1c-0.7,0.8-1.7,1.2-3,1.2c-1.1,0-2-0.3-2.6-1c-0.6-0.7-0.9-1.6-0.9-2.9v-6.8h2.4v6.8
				c0,1.3,0.6,2,1.7,2c1.2,0,1.9-0.4,2.3-1.2v-7.6h2.4v10.6h-2.2L772.7,338.1z"/>
			<path class="st0" d="M779.7,328.6l0.1,1.2c0.8-0.9,1.8-1.4,3.1-1.4c2.2,0,3.3,1.3,3.4,3.8v7h-2.4v-6.8c0-0.7-0.1-1.2-0.4-1.5
				c-0.3-0.3-0.8-0.5-1.4-0.5c-1,0-1.7,0.4-2.1,1.3v7.5h-2.4v-10.6H779.7z"/>
			<path class="st0" d="M788.3,333.8c0-1.6,0.4-2.9,1.1-3.9c0.8-1,1.8-1.5,3-1.5c1.1,0,2,0.4,2.7,1.2v-5.4h2.4v15h-2.1l-0.1-1.1
				c-0.7,0.9-1.7,1.3-2.8,1.3c-1.2,0-2.2-0.5-3-1.5C788.7,336.8,788.3,335.5,788.3,333.8z M790.7,334c0,1.1,0.2,1.9,0.6,2.5
				c0.4,0.6,1,0.9,1.8,0.9c1,0,1.7-0.4,2.1-1.3v-4.5c-0.4-0.8-1.1-1.3-2.1-1.3c-0.8,0-1.4,0.3-1.8,0.9
				C790.9,331.8,790.7,332.8,790.7,334z"/>
			<path class="st0" d="M806.1,336.3c0-0.4-0.2-0.7-0.5-1c-0.3-0.2-0.9-0.4-1.7-0.6c-0.8-0.2-1.5-0.4-2-0.6
				c-1.2-0.6-1.8-1.4-1.8-2.5c0-0.9,0.4-1.7,1.2-2.3c0.8-0.6,1.7-0.9,2.9-0.9c1.3,0,2.3,0.3,3.1,0.9c0.8,0.6,1.2,1.4,1.2,2.4H806
				c0-0.5-0.2-0.8-0.5-1.1c-0.3-0.3-0.8-0.5-1.3-0.5c-0.5,0-0.9,0.1-1.3,0.4c-0.3,0.2-0.5,0.6-0.5,1c0,0.4,0.2,0.6,0.5,0.8
				c0.3,0.2,0.9,0.4,1.9,0.6c0.9,0.2,1.7,0.4,2.2,0.7c0.5,0.3,0.9,0.6,1.2,1c0.3,0.4,0.4,0.9,0.4,1.4c0,1-0.4,1.7-1.2,2.3
				c-0.8,0.6-1.8,0.9-3.1,0.9c-0.9,0-1.6-0.2-2.3-0.5c-0.7-0.3-1.2-0.7-1.6-1.3c-0.4-0.5-0.6-1.1-0.6-1.8h2.3c0,0.6,0.2,1,0.6,1.3
				s0.9,0.5,1.6,0.5c0.6,0,1.1-0.1,1.4-0.4C805.9,337,806.1,336.7,806.1,336.3z"/>
			<path class="st0" d="M815.2,333.8c0-1,0.2-2,0.6-2.8s1-1.5,1.7-1.9s1.6-0.7,2.6-0.7c1.4,0,2.6,0.5,3.5,1.4s1.4,2.1,1.4,3.7l0,0.6
				c0,1-0.2,2-0.6,2.8s-1,1.5-1.7,1.9c-0.7,0.4-1.6,0.7-2.6,0.7c-1.5,0-2.7-0.5-3.6-1.5c-0.9-1-1.3-2.3-1.3-4V333.8z M817.6,334
				c0,1.1,0.2,1.9,0.7,2.6s1.1,0.9,1.9,0.9s1.4-0.3,1.9-0.9c0.4-0.6,0.7-1.5,0.7-2.7c0-1.1-0.2-1.9-0.7-2.5s-1.1-0.9-1.9-0.9
				c-0.8,0-1.4,0.3-1.8,0.9C817.9,331.8,817.6,332.7,817.6,334z"/>
			<path class="st0" d="M828,339.1v-8.8h-1.6v-1.8h1.6v-1c0-1.2,0.3-2.1,1-2.7c0.7-0.6,1.6-1,2.7-1c0.4,0,0.9,0.1,1.3,0.2L833,326
				c-0.3-0.1-0.6-0.1-0.9-0.1c-1.1,0-1.7,0.6-1.7,1.7v0.9h2.1v1.8h-2.1v8.8H828z"/>
			<path class="st0" d="M840.3,339.1v-8.8h-1.6v-1.8h1.6v-1c0-1.2,0.3-2.1,1-2.7c0.7-0.6,1.6-1,2.7-1c0.4,0,0.9,0.1,1.3,0.2
				l-0.1,1.9c-0.3-0.1-0.6-0.1-0.9-0.1c-1.1,0-1.7,0.6-1.7,1.7v0.9h2.1v1.8h-2.1v8.8H840.3z"/>
			<path class="st0" d="M846.3,333.8c0-1,0.2-2,0.6-2.8s1-1.5,1.7-1.9s1.6-0.7,2.6-0.7c1.4,0,2.6,0.5,3.5,1.4s1.4,2.1,1.4,3.7l0,0.6
				c0,1-0.2,2-0.6,2.8s-1,1.5-1.7,1.9c-0.7,0.4-1.6,0.7-2.6,0.7c-1.5,0-2.7-0.5-3.6-1.5c-0.9-1-1.3-2.3-1.3-4V333.8z M848.6,334
				c0,1.1,0.2,1.9,0.7,2.6s1.1,0.9,1.9,0.9s1.4-0.3,1.9-0.9c0.4-0.6,0.7-1.5,0.7-2.7c0-1.1-0.2-1.9-0.7-2.5s-1.1-0.9-1.9-0.9
				c-0.8,0-1.4,0.3-1.8,0.9C848.9,331.8,848.6,332.7,848.6,334z"/>
			<path class="st0" d="M863.8,330.7c-0.3-0.1-0.6-0.1-1-0.1c-1.1,0-1.8,0.4-2.2,1.2v7.2h-2.4v-10.6h2.3l0.1,1.2
				c0.6-0.9,1.4-1.4,2.4-1.4c0.3,0,0.6,0,0.8,0.1L863.8,330.7z"/>
			<path class="st0" d="M869.5,337.4c0.6,0,1.1-0.2,1.5-0.5s0.6-0.8,0.6-1.3h2.2c0,0.7-0.2,1.3-0.6,1.8c-0.4,0.6-0.9,1-1.6,1.4
				c-0.7,0.3-1.4,0.5-2.1,0.5c-1.5,0-2.7-0.5-3.5-1.4c-0.9-1-1.3-2.3-1.3-4v-0.2c0-1.6,0.4-2.9,1.3-3.9s2-1.5,3.5-1.5
				c1.3,0,2.3,0.4,3.1,1.1s1.2,1.7,1.2,2.9h-2.2c0-0.6-0.2-1.1-0.6-1.5c-0.4-0.4-0.9-0.6-1.5-0.6c-0.8,0-1.4,0.3-1.8,0.8
				c-0.4,0.6-0.6,1.4-0.6,2.5v0.4c0,1.1,0.2,2,0.6,2.6C868.2,337.2,868.8,337.4,869.5,337.4z"/>
			<path class="st0" d="M880.4,339.3c-1.5,0-2.7-0.5-3.7-1.4c-0.9-0.9-1.4-2.2-1.4-3.8v-0.3c0-1.1,0.2-2,0.6-2.8
				c0.4-0.8,1-1.5,1.7-1.9c0.7-0.5,1.6-0.7,2.5-0.7c1.4,0,2.6,0.5,3.3,1.4c0.8,0.9,1.2,2.2,1.2,3.9v1h-6.9c0.1,0.9,0.4,1.6,0.9,2.1
				c0.5,0.5,1.2,0.8,1.9,0.8c1.1,0,2-0.4,2.7-1.3l1.3,1.2c-0.4,0.6-1,1.1-1.7,1.5C882.1,339.2,881.3,339.3,880.4,339.3z
				 M880.2,330.3c-0.7,0-1.2,0.2-1.6,0.7s-0.7,1.1-0.8,1.9h4.5v-0.2c-0.1-0.8-0.3-1.4-0.6-1.8S880.8,330.3,880.2,330.3z"/>
		</g>
	</g>
</g>
<g id="Layer_3">
</g>
</svg>
