<?xml version="1.0" encoding="utf-8"?>
<!-- Generator: Adobe Illustrator 21.1.0, SVG Export Plug-In . SVG Version: 6.00 Build 0)  -->
<svg version="1.1" id="Layer_1" xmlns="http://www.w3.org/2000/svg" xmlns:xlink="http://www.w3.org/1999/xlink" x="0px" y="0px"
	 viewBox="0 0 612 311.2" style="enable-background:new 0 0 612 311.2;" xml:space="preserve">
<style type="text/css">
	.st0{fill:#8DC6CF;}
	.st1{fill:#65778C;}
	.st2{fill:#36223D;}
	.st3{fill:#BFE7F3;}
	.st4{fill:#564A70;}
	.st5{fill:#3A2121;}
	.st6{fill:#8DC6CF;stroke:#8DC6CF;stroke-miterlimit:10;}
</style>
<path class="st0" d="M283.5,113.2c0,0-3.7-19.5-9.1-18.2c0,0-0.8,9.1-0.8,11.3s-10.4,24.2-10.9,27c-0.5,2.8,9,35,9,35
	s6.4,19.4,8.7,21.1c2.3,1.7,28.4,11.5,47.8,6.6c0,0,29.6-31.1,30.4-41.5s-10.3-15.5-10.3-16.4s-0.3-27.6-0.1-28.5
	c0.1-0.9-7.6-9.3-10.3-8.1S285.7,113.2,283.5,113.2z"/>
<path class="st1" d="M270.2,163.5c0,0-9-26.8-7.6-30.2c1.4-3.4,13-28.8,13.4-29.9s11.5-1.8,11.4,0.7c-0.1,2.6-5.9,41.1-5.7,43.9
	s-7.6,23.4-8.9,20.3C271.5,165.1,270.2,163.5,270.2,163.5z"/>
<path class="st2" d="M282.8,143.5c0,0-10,15.7-10,22.3c0,6.7,5.4,21.5,9.6,24c4.2,2.5,25.2,10.6,32.3,7.7
	c7.1-2.9,29.1-29.1,27.1-31.7s-11.2,2.8-14.5,5c-3.3,2.2-29.4,10.4-42,2.7c0,0-5.6-15.1-3.8-20.5
	C283.4,147.7,282.8,143.5,282.8,143.5z"/>
<path class="st2" d="M282.7,114.5c0,0,4.3-0.1,2.7,5.3l-3.3,25c0,0,4.6,12.5,6.2,14.5c1.6,2,8.4,9.9,17.8,6.2
	c0,0,17.8-13.7,19.2-17.9c1.3-4.2,5.8-37.3,5.9-37.9S282.7,114.5,282.7,114.5z"/>
<path class="st1" d="M353,59.5c0,0,3.9-4,5.4,1.4s-7.8,50.3-12.9,56.9c-5.1,6.7-4-13.5-11.1-16.8c0,0,13-10.2,16.7-22.2
	S353,59.5,353,59.5z"/>
<path class="st3" d="M351.5,59.2c0,0,6.9-4.5,5.3,11.4c-1.6,15.9-7.1,18-9,20.1c-2,2.1-10.9,10.5-12.9,10.6
	c-2.1,0.1-3.6-1.7-3.7-2.9c-0.1-1.2,7.6-25.6,11.9-29.9C347.3,64,351.5,59.2,351.5,59.2z"/>
<path class="st1" d="M274.1,99.7c0,0,21.8-19,24.3-18.5s18.5-0.1,24.7,3.2c6.2,3.3,11.1,15.9,11.1,15.9s13.9,9.6,11.9,13.2
	c-2,3.5-4.3-3.3-8.5-3.7c-4.2-0.4,4.1,10-7.5,11.1c-11.6,1.1-44.1-17.8-52.5-14.4C269.3,109.8,274.1,99.7,274.1,99.7z"/>
<path class="st1" d="M286,125.6c0,0-6.8-10.3-6.3-13.3s4.9-13.4,6.3-14.5s18.3-14.1,31-8.7c12.7,5.4,17,20.3,16.5,23.9
	s-5.7,9-8.2,15.9c-2.5,6.8-3,8.4-3,8.4l-32.2-6.7L286,125.6z"/>
<path class="st2" d="M322.5,84.3c0,0,28.3-28.2,30.3-27.7s4.5,1.2,4.5,3.8s-1.3-3.7-4.5-0.7c-3.1,2.9-21.4,32.3-19.3,39.8
	C335.7,107,325.7,85.8,322.5,84.3z"/>
<path class="st2" d="M305.1,86c0,0-13.3-34.8-18.4-35.1c-5.1-0.4-8.2,3.4-9.6,7.5c-1.4,4.1-7.4,38.1-5,46.3
	C274.6,112.9,278.7,95.3,305.1,86z"/>
<path class="st3" d="M281.9,57.4c0,0,11.8,22.3,11.4,26.5c-0.4,4.1-18.6,16.3-18.7,15.6C274.5,98.9,273.5,63.6,281.9,57.4z"/>
<path class="st3" d="M297.2,151.3c0,0-6.4,10.4-6.4,12.5c0,2.1,0.5,10.8,4.6,11.2c4.2,0.4,9.8-2.4,10.6-4s0.4-7.2-0.4-15
	C304.8,148.2,297.2,151.3,297.2,151.3z"/>
<path class="st2" d="M301.5,126.7c0,0-1.8-12.4-1.2-16.3c0.6-3.8-9.3-6.5-12.8-4.1c-3.6,2.4-6,4.8-5.3,9c0.7,4.2,8.7,10.3,7.9,12.5
	s10.2,1.8,10.2,1.8L301.5,126.7z"/>
<path class="st4" d="M287.2,108.6c0,0,2.5-2.5,7.6-1.4c5.1,1.2,5.1,7,2.8,10.1c0,0-7,2.3-8.6,0.9
	C287.5,116.8,284.5,113.4,287.2,108.6z"/>
<circle class="st3" cx="295.5" cy="112.1" r="3.8"/>
<circle class="st4" cx="295.9" cy="111.7" r="3.5"/>
<ellipse transform="matrix(0.3854 -0.9227 0.9227 0.3854 77.7389 338.4727)" class="st3" cx="293" cy="110.9" rx="0.8" ry="0.8"/>
<path class="st2" d="M305.2,126.6c0,0,7.3-9.6,8.4-13.5c1.1-3.9,10.1-4.9,12.6,0.7c2.4,5.6,3.3,4.8,0.1,10.1s-2.7,7-7.2,9.7
	c-4.5,2.8-5.4,0.4-5.4,2.2S305.2,126.6,305.2,126.6z"/>
<path class="st4" d="M314.4,118.4c0,0,3.9-6.5,6-5.7c2.1,0.8,7.1,3.4,5.3,7.5c-1.8,4.2-5.3,5-6.9,3.9
	C317,123.1,314.4,118.4,314.4,118.4z"/>
<circle class="st3" cx="318.7" cy="118" r="3.5"/>
<circle class="st4" cx="318.4" cy="117.6" r="3.2"/>
<ellipse transform="matrix(0.9227 -0.3854 0.3854 0.9227 -20.2308 132.7591)" class="st3" cx="321" cy="116.8" rx="0.8" ry="0.8"/>
<path class="st5" d="M330.3,132.7c0,0,0.9-2,1.8-1.6c0.8,0.5,0.7,1.6,0,2.1s-2.1,1.7-2.2,1.3C329.7,134.1,330.3,132.7,330.3,132.7z"
	/>
<path class="st5" d="M281.9,126.2c0,0-1.4-1.1-1.1-1.7c0.3-0.6,1.1-0.5,1.4-0.1c0.3,0.5,1.2,1.4,0.9,1.5
	C282.8,126.1,281.9,126.2,281.9,126.2z"/>
<path class="st1" d="M303.8,142.5c0,0-0.8,2.1-2.2,3s-2.6,4.8-2.3,5.8c0.2,0.9,0.6,4.8,0.4,5.9c-0.2,1.1-2.7,4.7-2.9,6.2
	c-0.2,1.4,0.1,4.1,0.5,4.9c0.4,0.8,0.8-0.5,0.8-0.5s-0.9-3.7-0.4-4.3c0.5-0.6,2.8-4.9,3.1-5.6c0.4-0.7,0.6-4.3,0.4-5.5
	c-0.2-1.2,0.6-4.1,1-4.6c0.4-0.5,2.3-1.8,2.4-2.1s0.8-1,0.8-1S303.8,143.3,303.8,142.5z"/>
<path class="st4" d="M286.2,125.6c0,0,13.7-0.3,19.2-2.9s11.6,14.5,17,14.5c0,0-0.7,8-2.9,11.6c-2.2,3.6-7.7,12.7-11.2,12.4
	s-9.5-4.6-9.5-4.6s-9.1,0.5-11-2C285.9,152.1,283,145.6,286.2,125.6z"/>
<path class="st2" d="M295.9,138.5c0,0,11.7,0.1,13.3,6.4c1.6,6.3-3.2,8.9-5,8.9s-9.9-0.6-10.4-2.2s-1.6-4.3-1.1-6.1
	C293.2,143.6,293.4,139.3,295.9,138.5z"/>
<path class="st4" d="M309.4,147.3c0,0,1.3,3.2-3.4,4s-2.5-3.9-1.7-3.8c0.8,0.2,1.2,0.8,1.2,1.8s1.2,1.8,2.6,0.3
	C309.5,148.1,309.4,147.3,309.4,147.3z"/>
<path class="st4" d="M292.6,146.1c0,0,1,3.6,3,3.4c1.9-0.2,1.5-1.4,2-2.2c0.5-0.8,1.9-0.2,2,0.7c0,0.9,0.1,2.4-1.5,2.3
	C296.4,150.3,292.6,150.7,292.6,146.1z"/>
<path class="st4" d="M302.6,140.2c0,0-2.7,0.1-3.4,0.4c-0.7,0.4-1.6,1.2-2.3,0.9s-1.3-0.9-1.8-0.5c-0.6,0.5-0.4-1.2,1.3-1.7
	c1.8-0.5,2.9,0.6,3.6,0.6C300.7,140,302.6,140.2,302.6,140.2z"/>
<path class="st4" d="M301.4,149.1c0,0-0.7,0.5-0.6,1.5s-0.5,2.7,0,3s1.7,0.3,1.9,0.2s-0.7-1.2-1-1.6s-0.4-2-0.4-2.5
	C301.4,149.1,301.4,149.1,301.4,149.1z"/>
<path class="st2" d="M321,108.2c2.5,0.3,5,2,5,2.3c0,0.3,1.4,1.1,1.4,1.1s-2.3-2.9-3.8-3.5c-1.5-0.6-5-1.6-5.3-0.6
	C318,108.5,318.5,107.8,321,108.2z"/>
<g>
	<path class="st2" d="M251.4,236.6c-0.4,0.4-0.9,0.8-1.5,1s-1.4,0.4-2.2,0.4c-0.8,0-1.6-0.2-2.2-0.5c-0.6-0.4-1.1-0.9-1.4-1.6
		c-0.3-0.7-0.5-1.5-0.5-2.4v-0.7c0-1,0.2-1.8,0.5-2.5c0.3-0.7,0.8-1.2,1.4-1.6c0.6-0.4,1.3-0.6,2.1-0.6c1.1,0,2,0.3,2.7,0.8
		c0.6,0.5,1,1.3,1.1,2.4h-1.9c-0.1-0.5-0.3-0.9-0.6-1.2c-0.3-0.3-0.7-0.4-1.2-0.4c-0.7,0-1.2,0.3-1.5,0.8s-0.5,1.3-0.5,2.2v0.6
		c0,1,0.2,1.8,0.6,2.3c0.4,0.5,0.9,0.8,1.7,0.8c0.7,0,1.3-0.2,1.6-0.5v-1.6h-1.8v-1.5h3.8V236.6z"/>
	<path class="st2" d="M258.8,233.7H255v2.6h4.4v1.6H253v-9.6h6.4v1.6H255v2.3h3.8V233.7z"/>
	<path class="st2" d="M264.2,234.4h-1.6v3.5h-2v-9.6h3.6c1.1,0,2,0.3,2.6,0.8s0.9,1.2,0.9,2.1c0,0.7-0.1,1.2-0.4,1.6
		c-0.3,0.4-0.7,0.8-1.3,1l2.1,3.9v0.1H266L264.2,234.4z M262.7,232.8h1.6c0.5,0,0.9-0.1,1.1-0.4c0.3-0.3,0.4-0.6,0.4-1
		c0-0.5-0.1-0.8-0.4-1.1c-0.3-0.3-0.6-0.4-1.2-0.4h-1.6V232.8z"/>
	<path class="st2" d="M271.9,228.3l2.5,6.9l2.4-6.9h2.6v9.6h-2v-2.6l0.2-4.5l-2.6,7.1h-1.4l-2.6-7.1l0.2,4.5v2.6h-2v-9.6H271.9z"/>
	<path class="st2" d="M286.7,235.9h-3.5l-0.7,2h-2.1l3.6-9.6h1.8l3.6,9.6h-2.1L286.7,235.9z M283.8,234.3h2.4l-1.2-3.6L283.8,234.3z
		"/>
	<path class="st2" d="M298.3,237.9h-2l-3.8-6.3v6.3h-2v-9.6h2l3.8,6.3v-6.3h2V237.9z"/>
	<path class="st2" d="M308.5,235.3c0-0.4-0.1-0.7-0.4-0.9s-0.7-0.4-1.4-0.6c-0.7-0.2-1.2-0.4-1.6-0.7c-1.1-0.6-1.6-1.4-1.6-2.4
		c0-0.5,0.1-1,0.4-1.4s0.7-0.7,1.3-0.9c0.5-0.2,1.2-0.3,1.8-0.3c0.7,0,1.3,0.1,1.8,0.4c0.5,0.2,0.9,0.6,1.2,1s0.4,1,0.4,1.5h-2
		c0-0.4-0.1-0.8-0.4-1c-0.3-0.2-0.7-0.4-1.2-0.4c-0.5,0-0.9,0.1-1.1,0.3c-0.3,0.2-0.4,0.5-0.4,0.8c0,0.3,0.2,0.6,0.5,0.8
		c0.3,0.2,0.8,0.4,1.4,0.6c1.1,0.3,1.9,0.8,2.5,1.3c0.5,0.5,0.8,1.1,0.8,1.9c0,0.8-0.3,1.5-0.9,1.9c-0.6,0.5-1.5,0.7-2.5,0.7
		c-0.7,0-1.4-0.1-2-0.4c-0.6-0.3-1.1-0.6-1.4-1.1c-0.3-0.5-0.5-1-0.5-1.6h2c0,1.1,0.6,1.6,1.9,1.6c0.5,0,0.8-0.1,1.1-0.3
		S308.5,235.7,308.5,235.3z"/>
	<path class="st2" d="M319.6,237.9h-2v-4.1h-3.8v4.1h-2v-9.6h2v3.9h3.8v-3.9h2V237.9z"/>
	<path class="st2" d="M327.2,233.7h-3.8v2.6h4.4v1.6h-6.4v-9.6h6.4v1.6h-4.4v2.3h3.8V233.7z"/>
	<path class="st2" d="M331.1,234.5v3.4h-2v-9.6h3.7c0.7,0,1.4,0.1,1.9,0.4c0.5,0.3,1,0.6,1.3,1.1c0.3,0.5,0.4,1,0.4,1.7
		c0,0.9-0.3,1.7-1,2.2s-1.5,0.8-2.7,0.8H331.1z M331.1,232.9h1.8c0.5,0,0.9-0.1,1.2-0.4c0.3-0.2,0.4-0.6,0.4-1.1
		c0-0.5-0.1-0.8-0.4-1.1s-0.7-0.4-1.1-0.4h-1.8V232.9z"/>
	<path class="st2" d="M345.6,237.9h-2v-4.1h-3.8v4.1h-2v-9.6h2v3.9h3.8v-3.9h2V237.9z"/>
	<path class="st2" d="M353.2,233.7h-3.8v2.6h4.4v1.6h-6.4v-9.6h6.4v1.6h-4.4v2.3h3.8V233.7z"/>
	<path class="st2" d="M358.6,234.4h-1.6v3.5h-2v-9.6h3.6c1.1,0,2,0.3,2.6,0.8c0.6,0.5,0.9,1.2,0.9,2.1c0,0.7-0.1,1.2-0.4,1.6
		c-0.3,0.4-0.7,0.8-1.3,1l2.1,3.9v0.1h-2.1L358.6,234.4z M357.1,232.8h1.6c0.5,0,0.9-0.1,1.2-0.4c0.3-0.3,0.4-0.6,0.4-1
		c0-0.5-0.1-0.8-0.4-1.1c-0.3-0.3-0.6-0.4-1.2-0.4h-1.6V232.8z"/>
	<path class="st2" d="M363.8,237.9v-9.6h2.9c0.8,0,1.6,0.2,2.3,0.6s1.2,0.9,1.6,1.6c0.4,0.7,0.6,1.5,0.6,2.4v0.4
		c0,0.9-0.2,1.7-0.5,2.4c-0.4,0.7-0.9,1.2-1.5,1.6s-1.4,0.6-2.3,0.6H363.8z M365.7,229.9v6.4h1c0.8,0,1.4-0.3,1.8-0.8
		c0.4-0.5,0.6-1.2,0.6-2.2v-0.5c0-1-0.2-1.7-0.6-2.2c-0.4-0.5-1-0.8-1.8-0.8H365.7z"/>
	<path class="st4" d="M254.7,256.7h-6.4v-1.1l3.2-3.5c0.5-0.5,0.8-0.9,1-1.3c0.2-0.3,0.3-0.7,0.3-1c0-0.5-0.1-0.8-0.4-1.1
		c-0.3-0.3-0.6-0.4-1-0.4c-0.5,0-0.9,0.2-1.2,0.5c-0.3,0.3-0.4,0.7-0.4,1.3h-1.6c0-0.6,0.1-1.1,0.4-1.6c0.3-0.5,0.6-0.8,1.1-1.1
		c0.5-0.3,1.1-0.4,1.7-0.4c0.9,0,1.7,0.2,2.2,0.7s0.8,1.1,0.8,1.9c0,0.5-0.1,1-0.4,1.5s-0.7,1.1-1.3,1.8l-2.3,2.5h4.4V256.7z"/>
	<path class="st4" d="M257.8,251.2h1c0.5,0,0.9-0.1,1.2-0.4c0.3-0.2,0.4-0.6,0.4-1.1c0-0.5-0.1-0.8-0.4-1.1s-0.6-0.4-1.1-0.4
		c-0.4,0-0.8,0.1-1.1,0.4c-0.3,0.2-0.4,0.6-0.4,1h-1.6c0-0.5,0.1-0.9,0.4-1.3c0.3-0.4,0.6-0.7,1.1-0.9c0.5-0.2,1-0.3,1.6-0.3
		c1,0,1.7,0.2,2.3,0.7c0.5,0.5,0.8,1.1,0.8,2c0,0.4-0.1,0.8-0.4,1.2c-0.3,0.4-0.6,0.7-1.1,0.9c0.5,0.2,0.9,0.5,1.2,0.8
		c0.3,0.4,0.4,0.8,0.4,1.4c0,0.9-0.3,1.5-0.9,2.1s-1.4,0.8-2.3,0.8c-0.9,0-1.7-0.2-2.3-0.7c-0.6-0.5-0.9-1.1-0.9-2h1.6
		c0,0.4,0.1,0.8,0.4,1c0.3,0.3,0.7,0.4,1.1,0.4c0.5,0,0.9-0.1,1.2-0.4c0.3-0.3,0.4-0.6,0.4-1.1c0-0.5-0.1-0.9-0.4-1.2
		c-0.3-0.3-0.7-0.4-1.3-0.4h-0.9V251.2z"/>
	<path class="st4" d="M269.7,249.7c0,0.5-0.1,0.9-0.4,1.3c-0.2,0.4-0.6,0.7-1,0.9c0.5,0.2,0.9,0.5,1.2,1c0.3,0.4,0.4,0.9,0.4,1.4
		c0,0.8-0.3,1.5-0.9,2c-0.6,0.5-1.3,0.7-2.3,0.7c-1,0-1.7-0.2-2.3-0.7s-0.9-1.2-0.9-2c0-0.5,0.1-1,0.4-1.4c0.3-0.4,0.7-0.7,1.1-0.9
		c-0.4-0.2-0.7-0.5-1-0.9c-0.2-0.4-0.4-0.8-0.4-1.3c0-0.8,0.3-1.5,0.8-1.9s1.2-0.7,2.1-0.7c0.9,0,1.6,0.2,2.1,0.7
		C269.5,248.2,269.7,248.8,269.7,249.7z M268.4,254c0-0.5-0.1-0.9-0.4-1.1c-0.3-0.3-0.7-0.4-1.1-0.4s-0.8,0.1-1.1,0.4
		c-0.3,0.3-0.4,0.7-0.4,1.2c0,0.5,0.1,0.8,0.4,1.1c0.3,0.3,0.7,0.4,1.1,0.4s0.9-0.1,1.1-0.4S268.4,254.5,268.4,254z M268.2,249.7
		c0-0.4-0.1-0.8-0.4-1c-0.2-0.3-0.6-0.4-1-0.4c-0.4,0-0.7,0.1-1,0.4c-0.2,0.3-0.4,0.6-0.4,1c0,0.4,0.1,0.8,0.4,1
		c0.2,0.3,0.6,0.4,1,0.4c0.4,0,0.7-0.1,1-0.4C268,250.5,268.2,250.2,268.2,249.7z"/>
	<path class="st4" d="M281.2,253.2c0,1.1-0.2,2-0.7,2.6c-0.5,0.7-1.2,1-2,1c-0.8,0-1.4-0.3-1.9-0.8v3.4H275v-9.8h1.5l0.1,0.7
		c0.5-0.6,1.1-0.9,1.9-0.9c0.9,0,1.5,0.3,2,1C281,251.1,281.2,252,281.2,253.2L281.2,253.2z M279.6,253.1c0-0.7-0.1-1.3-0.4-1.7
		c-0.3-0.4-0.7-0.6-1.2-0.6c-0.7,0-1.1,0.3-1.4,0.8v3.2c0.3,0.6,0.8,0.8,1.4,0.8c0.5,0,0.9-0.2,1.2-0.6
		C279.5,254.5,279.6,253.9,279.6,253.1z"/>
	<path class="st4" d="M282.3,253.1c0-0.7,0.1-1.3,0.4-1.9s0.7-1,1.2-1.3c0.5-0.3,1.1-0.5,1.7-0.5c1,0,1.7,0.3,2.3,0.9
		c0.6,0.6,0.9,1.4,1,2.5l0,0.4c0,0.7-0.1,1.3-0.4,1.9s-0.7,1-1.2,1.3c-0.5,0.3-1.1,0.5-1.7,0.5c-1,0-1.8-0.3-2.4-1
		C282.6,255.2,282.3,254.3,282.3,253.1L282.3,253.1z M283.9,253.2c0,0.7,0.2,1.3,0.5,1.7s0.7,0.6,1.3,0.6c0.5,0,1-0.2,1.3-0.6
		c0.3-0.4,0.5-1,0.5-1.8c0-0.7-0.2-1.3-0.5-1.7c-0.3-0.4-0.7-0.6-1.3-0.6c-0.5,0-0.9,0.2-1.2,0.6
		C284.1,251.8,283.9,252.4,283.9,253.2z"/>
	<path class="st4" d="M294.7,256c-0.5,0.6-1.1,0.8-2,0.8c-0.8,0-1.4-0.2-1.8-0.7c-0.4-0.5-0.6-1.1-0.6-2v-4.6h1.6v4.6
		c0,0.9,0.4,1.4,1.1,1.4c0.8,0,1.3-0.3,1.6-0.8v-5.1h1.6v7.1h-1.5L294.7,256z"/>
	<path class="st4" d="M299.4,249.6l0,0.8c0.5-0.6,1.2-1,2.1-1c1.5,0,2.2,0.8,2.3,2.5v4.7h-1.6v-4.6c0-0.5-0.1-0.8-0.3-1
		c-0.2-0.2-0.5-0.3-1-0.3c-0.6,0-1.1,0.3-1.4,0.9v5.1h-1.6v-7.1H299.4z"/>
	<path class="st4" d="M305.2,253.1c0-1.1,0.3-2,0.8-2.6c0.5-0.7,1.2-1,2-1c0.8,0,1.4,0.3,1.8,0.8v-3.6h1.6v10.1H310l-0.1-0.7
		c-0.5,0.6-1.1,0.9-1.9,0.9c-0.8,0-1.5-0.3-2-1C305.5,255.2,305.2,254.2,305.2,253.1z M306.8,253.2c0,0.7,0.1,1.3,0.4,1.7
		c0.3,0.4,0.7,0.6,1.2,0.6c0.7,0,1.1-0.3,1.4-0.9v-3c-0.3-0.6-0.8-0.9-1.4-0.9c-0.5,0-0.9,0.2-1.2,0.6
		C306.9,251.8,306.8,252.4,306.8,253.2z"/>
	<path class="st4" d="M317.2,254.8c0-0.3-0.1-0.5-0.4-0.7c-0.2-0.1-0.6-0.3-1.2-0.4c-0.5-0.1-1-0.3-1.4-0.4
		c-0.8-0.4-1.2-0.9-1.2-1.7c0-0.6,0.3-1.1,0.8-1.5c0.5-0.4,1.2-0.6,2-0.6c0.8,0,1.5,0.2,2.1,0.6c0.5,0.4,0.8,1,0.8,1.6h-1.6
		c0-0.3-0.1-0.6-0.3-0.8s-0.5-0.3-0.9-0.3c-0.4,0-0.6,0.1-0.9,0.2c-0.2,0.2-0.3,0.4-0.3,0.7c0,0.2,0.1,0.4,0.3,0.6s0.6,0.3,1.2,0.4
		c0.6,0.1,1.1,0.3,1.5,0.5s0.6,0.4,0.8,0.7c0.2,0.3,0.3,0.6,0.3,1c0,0.6-0.3,1.2-0.8,1.6s-1.2,0.6-2.1,0.6c-0.6,0-1.1-0.1-1.6-0.3
		c-0.5-0.2-0.8-0.5-1.1-0.9s-0.4-0.8-0.4-1.2h1.6c0,0.4,0.2,0.7,0.4,0.9s0.6,0.3,1,0.3c0.4,0,0.7-0.1,1-0.2
		C317.1,255.2,317.2,255,317.2,254.8z"/>
	<path class="st4" d="M323.3,253.1c0-0.7,0.1-1.3,0.4-1.9c0.3-0.6,0.7-1,1.2-1.3c0.5-0.3,1.1-0.5,1.7-0.5c1,0,1.7,0.3,2.3,0.9
		c0.6,0.6,0.9,1.4,1,2.5l0,0.4c0,0.7-0.1,1.3-0.4,1.9c-0.3,0.6-0.7,1-1.2,1.3c-0.5,0.3-1.1,0.5-1.7,0.5c-1,0-1.8-0.3-2.4-1
		C323.6,255.2,323.3,254.3,323.3,253.1L323.3,253.1z M324.9,253.2c0,0.7,0.2,1.3,0.5,1.7c0.3,0.4,0.7,0.6,1.3,0.6s1-0.2,1.3-0.6
		c0.3-0.4,0.5-1,0.5-1.8c0-0.7-0.2-1.3-0.5-1.7c-0.3-0.4-0.7-0.6-1.3-0.6c-0.5,0-0.9,0.2-1.2,0.6
		C325.1,251.8,324.9,252.4,324.9,253.2z"/>
	<path class="st4" d="M331.9,256.7v-5.9h-1.1v-1.2h1.1v-0.7c0-0.8,0.2-1.4,0.7-1.8s1.1-0.6,1.8-0.6c0.3,0,0.6,0,0.9,0.1l0,1.2
		c-0.2,0-0.4-0.1-0.6-0.1c-0.8,0-1.1,0.4-1.1,1.2v0.6h1.4v1.2h-1.4v5.9H331.9z"/>
	<path class="st4" d="M340.2,256.7v-5.9h-1.1v-1.2h1.1v-0.7c0-0.8,0.2-1.4,0.7-1.8s1.1-0.6,1.8-0.6c0.3,0,0.6,0,0.9,0.1l0,1.2
		c-0.2,0-0.4-0.1-0.6-0.1c-0.8,0-1.1,0.4-1.1,1.2v0.6h1.4v1.2h-1.4v5.9H340.2z"/>
	<path class="st4" d="M344.2,253.1c0-0.7,0.1-1.3,0.4-1.9c0.3-0.6,0.7-1,1.2-1.3c0.5-0.3,1.1-0.5,1.7-0.5c1,0,1.7,0.3,2.3,0.9
		c0.6,0.6,0.9,1.4,1,2.5l0,0.4c0,0.7-0.1,1.3-0.4,1.9c-0.3,0.6-0.7,1-1.2,1.3c-0.5,0.3-1.1,0.5-1.7,0.5c-1,0-1.8-0.3-2.4-1
		C344.5,255.2,344.2,254.3,344.2,253.1L344.2,253.1z M345.8,253.2c0,0.7,0.2,1.3,0.5,1.7c0.3,0.4,0.7,0.6,1.3,0.6s1-0.2,1.3-0.6
		c0.3-0.4,0.5-1,0.5-1.8c0-0.7-0.2-1.3-0.5-1.7c-0.3-0.4-0.7-0.6-1.3-0.6c-0.5,0-0.9,0.2-1.2,0.6C346,251.8,345.8,252.4,345.8,253.2
		z"/>
	<path class="st4" d="M356,251c-0.2,0-0.4-0.1-0.7-0.1c-0.7,0-1.2,0.3-1.5,0.8v4.9h-1.6v-7.1h1.5l0,0.8c0.4-0.6,0.9-0.9,1.6-0.9
		c0.2,0,0.4,0,0.6,0.1L356,251z"/>
	<path class="st4" d="M359.9,255.6c0.4,0,0.7-0.1,1-0.3c0.3-0.2,0.4-0.5,0.4-0.9h1.5c0,0.4-0.2,0.9-0.4,1.2
		c-0.3,0.4-0.6,0.7-1.1,0.9c-0.4,0.2-0.9,0.3-1.4,0.3c-1,0-1.8-0.3-2.4-1c-0.6-0.6-0.9-1.5-0.9-2.7V253c0-1.1,0.3-1.9,0.9-2.6
		c0.6-0.7,1.4-1,2.4-1c0.8,0,1.5,0.2,2.1,0.7c0.5,0.5,0.8,1.1,0.8,1.9h-1.5c0-0.4-0.2-0.7-0.4-1s-0.6-0.4-1-0.4
		c-0.5,0-0.9,0.2-1.2,0.6c-0.3,0.4-0.4,0.9-0.4,1.7v0.3c0,0.8,0.1,1.3,0.4,1.7S359.3,255.6,359.9,255.6z"/>
	<path class="st4" d="M367.2,256.8c-1,0-1.8-0.3-2.5-1c-0.6-0.6-0.9-1.5-0.9-2.5v-0.2c0-0.7,0.1-1.3,0.4-1.9s0.7-1,1.2-1.3
		c0.5-0.3,1-0.5,1.7-0.5c1,0,1.7,0.3,2.2,0.9c0.5,0.6,0.8,1.5,0.8,2.6v0.6h-4.6c0,0.6,0.2,1.1,0.6,1.4c0.3,0.3,0.8,0.5,1.3,0.5
		c0.7,0,1.3-0.3,1.8-0.9l0.9,0.8c-0.3,0.4-0.7,0.8-1.1,1S367.8,256.8,367.2,256.8z M367,250.7c-0.4,0-0.8,0.2-1.1,0.5
		s-0.4,0.7-0.5,1.3h3v-0.1c0-0.5-0.2-0.9-0.4-1.2C367.8,250.9,367.5,250.7,367,250.7z"/>
</g>
<g>
	<path class="st2" d="M483.5,135.9c0,0,3.2,11.2,4.8,14c1.5,2.8-1.9,8.6-2.4,11.3s-1,11.2,1.9,12.9s23.5,15.5,25.5,18.3
		c2,2.9,15.8,4.9,19.8,3.8c4-1.1,11.8-5,12.7-7.9c1-2.9,13.3-21.5,16.7-24.6c3.4-3,7.3-9.1,7.3-13.9s-2.7-10.1-4.5-10.1
		c-1.8,0-12,1.4-12,1.4L483.5,135.9z"/>
	<path class="st1" d="M493.2,140.8c0,0-1.2,1.9,0,2.9c1.2,1,3.9,1,3.8,4.9s1,4.4-0.4,7c-1.4,2.6-1.1,6.4,0.4,8.8
		c1.5,2.4,8.2,9.4,8.6,10.5c0.5,1.1,5.3,2.7,7.7,3.8c2.4,1.1,6.9,4.4,8.2,6.2s4.1,6.2,5.2,6.2c1.2,0,6.6,2.1,10.3,0
		c3.6-2.1,4.5-3.8,5.2-7.1c0.6-3.3,3-8.9,4.5-11.1c1.5-2.2,7.4-8.4,8.4-8.7c1-0.3,6.3-8.3,6.3-9.9s1.2-6.1,1.3-6.7
		c0.1-0.6,1-2.1,1.5-3.5c0.4-1.4,0.6-4.2-0.8-3.2c-1.4,0.9-5.2,3.5-5.2,3.5L493.2,140.8z"/>
	<path class="st0" d="M565.8,113.3c0,0-3.8-20.8-5.9-22.2c-2.2-1.4-11.1-12.7-11.1-12.7L550,76c0,0,12,4.5,14.8,10.8
		c2.8,6.3,1.9,18.4,1.9,20C566.7,108.4,565.8,113.3,565.8,113.3z"/>
	<path class="st0" d="M504.1,78.4c0,0-19,4.7-20.1,8.8s-7.3,26-7.3,28.5c0,2.5,0.8,6.7,0.8,6.7s5.7-7.6,5.7-9.9s1.3-11.9,3.4-15.5
		c2.2-3.7,15.1-16.2,16.3-16.9S504.1,78.4,504.1,78.4z"/>
	<path class="st2" d="M480.6,115.7c0,0,0.7,15,2.5,18.2c1.8,3.2,15.2,9.6,15.9,9.8c0.7,0.2,3.4,15.4,11.1,18.2
		c7.7,2.7,16.4,10.7,18.6,10.9s11.6-2.7,13.6-5.2s11.1-13,11.8-14.3c0.7-1.4,8.2-14.8,8.2-14.8s3.4-9.5,0-15c0,0,1.7-2.3,1.5-7.7
		s-2.2-10.7-2.2-11.4c0-0.7-0.9-11.1-1.8-13.2c-0.9-2-12.7-18-16.6-18.6c-3.9-0.7-18.5-0.2-21.9,2.3c-3.4,2.5-20.2,0-26.8,8.2
		s-12.7,15.7-12.5,20S480.6,115.7,480.6,115.7z"/>
	<path class="st1" d="M522.3,117.1c0,0-5.3,1.8-6.4,3.4c-1.1,1.6-2.5,3.6-2.5,4.5s-0.2,5-1.8,5.2c-1.6,0.2-5.2-4.5-8.9-1.4
		c-3.6,3.2-5.7,6.8-5.7,9.1s2.6,4.7,3.3,5.7c0.7,1,3.3,8.8,4.8,11c1.5,2.2,4.1,6.5,6.9,6.8c2.8,0.3,8,3,8.9,3.5
		c0.9,0.6,7,6.6,8.4,6.6c1.4,0,8.2-2.3,9.9-3.9c1.7-1.6,3-1.5,4-2.4c1-0.9,2.4-4.3,3.2-5.1c0.8-0.8,6-7.6,6.5-7.6s4.5-7.6,5.2-8.3
		c0.7-0.7,4.5-10.9,4.5-12.2s-2-7.2-6.7-8.4c-4.7-1.3-5.1,0.7-7.4,2.2s-3.4-6-4.5-7.3c-1.1-1.3-5.9-2.2-7.2-2.2s-3.1,0-3.1,0
		L522.3,117.1z"/>
	<path class="st4" d="M527.5,115.7c-4.1,0.4-7.5,2.4-7.5,3.4c0,1-0.7,7.6,0.9,8.8c1.6,1.1,4.2,4.5,6.6,4.5c2.4,0,5.8-0.9,7.2-1.7
		c1.4-0.8,5.1-3.3,5.2-5.8c0.1-2.5,1.8-4.8,0-5.9s-3.3-1.8-6.3-2.5C530.7,115.8,531.7,115.3,527.5,115.7z"/>
	<path class="st2" d="M503.3,132.4c0,0-1.8,1.7,0.6,5.6s8.3,10.7,13.6,9.7c5.3-1,10.1-8.4,13.6-8.3s9.4,7.5,12.6,6.4
		c3.2-1.1,10.9-13.3,11.7-13.3s1.1,5.8,0,9.2c-1.1,3.4-6.4,10.8-8.3,12.5c-1.9,1.7-7,10.2-8.9,11.1c-1.8,0.9-7,2.2-8.6,2
		c-1.5-0.1-7.9-5.7-9.3-5.7c-1.4,0-5.9-1.5-6.8-2.6c-0.9-1.1-13.8-17.5-13.4-20.8C500.6,134.9,503.3,132.4,503.3,132.4z"/>
	<path class="st1" d="M489.8,112c0,0,4.2,0.2,4.5,1.7c0.3,1.5,0.5,3.1,1.7,4.4s0.1,2.6-2.5,4.4s-0.1,7.4-0.4,9.6
		c-0.3,2.2-3.4-0.8-3.4-2.7c0-1.9,0.5-6.3,1.1-7.7c0.7-1.5-1.1-4.9-1.1-7.3S489.8,112,489.8,112z"/>
	<path class="st1" d="M512.2,96.7c0,0-1.1,0.6-1,1.4s1.8,5.2,3,5.3c1.1,0.1,3.8-3.5,4-4.8s-1.9-4.3-2.8-4.4
		c-0.9-0.1-2.6-0.2-2.8,1.1C512.2,96.7,512.2,96.7,512.2,96.7z"/>
	<path class="st1" d="M533.1,95.3c0,0,1.1,4.9,1.8,5.2s1.7,0.1,2.6,0c0.9-0.1,3.3-4.5,4.3-5.2s-1.6-2.6-3.4-1.7s-1.9,0.6-3.1,0.6
		C534.2,94.2,533.1,95.3,533.1,95.3z"/>
	<path class="st1" d="M559.2,104c0,0-0.8,2.8-2.2,3.6s-2.2,3.8-2.2,4.3s2.5,3.9,4.3,4.5c1.8,0.7,1.8,2.2,2.5,1.5
		c0.7-0.7-2.3-6.2-2.4-6.9c-0.1-0.7,1.1-5.6,1-6.4C560.3,103.9,559.2,104,559.2,104z"/>
	<path class="st4" d="M539.5,107.9c0,0-0.6-6.2,1.7-6.3c2.3-0.1,5.7-2.7,9.5,0s1.5,5.7-1.6,7.6c-3.1,1.9-9.6,3.2-9.6,0.9
		S539.5,107.9,539.5,107.9z"/>
	<path class="st4" d="M502.1,109c0,0,2-4.4,4.4-4.2s5.8,0.5,7.1,2.8c1.3,2.3,2,3.3,1.3,4.5c-0.7,1.3-2.8,1.8-6.3,1.5
		s-6.5-1.3-6.5-2.9C502.1,109,502.1,109,502.1,109z"/>
	<path class="st2" d="M505,77.5c0,0-9.8,0.1-11.1,0.7s-13.4,7.8-15.7,8.5c-2.3,0.7-5.9,2.4-8.8,4.5c-2.8,2.2-5.2,3.5-6.3,3.9
		c-1,0.4-1.1,9.1-0.9,9.8c0.2,0.7,10.7,12.6,10.7,14.9s-1.5,8.6-0.7,8.9c0.8,0.2,4.5,1.4,5,0c0.5-1.4,0.5-8.1,0.6-9.6
		c0.1-1.5,1.9-9.3,2.3-12.3c0.3-3.1,6.4-19.2,7.4-19.6c1-0.3,3.7-1.9,5.2-2.6C494.2,84,505,77.5,505,77.5z"/>
	<path class="st2" d="M546.6,74.6c0,0,2.5,1.5,4.4,1.5c1.9,0,6.3,0.2,7.4,0c1.1-0.2,10.2,3.5,11.5,3.5s7.8,2.5,7.8,3.1
		s1,7.6,0.5,10.6c-0.6,3-2.2,5.7-3.9,8.7c-1.7,3-4.5,8-4.3,10c0.2,2,1.5,5,1.5,6.2s-0.7,2.1-1.5,2.1c-0.8,0-4.1-5.1-4.2-6.9
		c-0.1-1.8,0-8.1-0.1-11.1c-0.1-3.1-0.6-10.9-1.8-12.5c-1.2-1.6-2.3-2.6-4.6-5c-2.3-2.4-4.4-6.1-5.6-6.3c-1.1-0.1-2.5-1.1-3.4-1
		s-3.2,0-3.2,0L546.6,74.6z"/>
	<g>
		<circle class="st6" cx="543.1" cy="104.9" r="3.6"/>
		<circle class="st4" cx="542.7" cy="104.5" r="3.2"/>
		
			<ellipse transform="matrix(0.9227 -0.3854 0.3854 0.9227 2.1615 218.2521)" class="st3" cx="545.5" cy="103.7" rx="0.8" ry="0.8"/>
	</g>
	<g>
		<circle class="st6" cx="510.5" cy="109.3" r="3.4"/>
		<circle class="st4" cx="510.8" cy="108.9" r="3.1"/>
		
			<ellipse transform="matrix(0.3854 -0.9227 0.9227 0.3854 212.4865 535.4617)" class="st3" cx="508.2" cy="108.2" rx="0.7" ry="0.7"/>
	</g>
	<path class="st0" d="M529.4,147.9c0,0-0.5-0.3-1.2-0.4c-0.3-0.1-0.7-0.1-1.1-0.1c-1.4,0-5.6,0.2-6.5,1.3c-0.9,1.1-2.5,3.9-2.6,5.7
		c-0.1,1.8-0.7,4.6,0.1,4.8c0.8,0.2,0.5-0.3,2.3,1.2s3,5.3,4.2,5.8c1.2,0.5,4.9,1.3,7.2,0.8c2.3-0.5,5.1-1.9,5.7-3.3s1.4-5.1,2-5.4
		c0.6-0.3,2.7-0.5,3.2-1.3s-0.3-9.1-1.1-10c-0.8-0.8-4-1.3-5.3-1.2s-3.7,0.6-4.7,1.1C530.7,147.4,529.4,147.9,529.4,147.9z"/>
	<path class="st1" d="M528.2,147.5l2.6-0.1c0,0-1.1,0.7-1.1,1.2c0.1,0.5-0.3,2.3,0,3.5c0.3,1.2,1,2.8,1.1,3.7
		c0.1,0.9-0.9,3.2-1.1,3.6c-0.2,0.5-0.4,2,0,3.2c0.4,1.3,0,1.2,0,1.2s-0.7-2.3-0.6-2.7c0.1-0.4,0.4-2.4,0.6-3.5
		c0.2-1.1,0.2-3.6-0.2-4.2s-0.8-2.1-0.8-2.6s0.1-1.8,0-2.1C528.7,148.3,528.8,147.9,528.2,147.5z"/>
	<path class="st2" d="M539.8,123.3c0,0,1.4,3.5-3.8,4.4c-5.2,0.8-2.7-4.4-1.8-4.2c0.9,0.2,1.3,0.8,1.3,2c0,1.2,1.3,2,2.9,0.3
		C539.9,124.1,539.8,123.3,539.8,123.3z"/>
	<path class="st2" d="M520,124.3c0,0,1.2,4,3.3,3.8c2.2-0.2,1.7-1.6,2.2-2.5c0.5-0.8,2.2-0.2,2.2,0.8c0,1,0.2,2.7-1.7,2.6
		C524.4,129,520,129.4,520,124.3z"/>
	<path class="st2" d="M535.5,117.3c0,0-3.6,0.1-4.5,0.4c-0.9,0.3-2.1,1-3.1,0.8c-0.9-0.2-1.6-0.8-2.4-0.4c-0.8,0.4-0.6-1,1.7-1.5
		c2.3-0.5,3.8,0.6,4.8,0.6S535.5,117.3,535.5,117.3z"/>
	<path class="st2" d="M530.1,126.9c0,0-0.6,0.6-0.3,1.7c0.2,1.1,0,3,0.4,3.2c0.4,0.2,1.5,0.1,1.7-0.1c0.2-0.2-0.7-1.2-1.1-1.7
		c-0.3-0.5-0.6-2.1-0.7-2.6S530.1,126.9,530.1,126.9z"/>
</g>
<g>
	<path class="st2" d="M485.8,231.1h-1.6v3.5h-2v-9.6h3.6c1.1,0,2,0.3,2.6,0.8c0.6,0.5,0.9,1.2,0.9,2.1c0,0.7-0.1,1.2-0.4,1.6
		c-0.3,0.4-0.7,0.8-1.3,1l2.1,3.9v0.1h-2.1L485.8,231.1z M484.3,229.5h1.6c0.5,0,0.9-0.1,1.2-0.4c0.3-0.3,0.4-0.6,0.4-1
		c0-0.5-0.1-0.8-0.4-1.1c-0.3-0.3-0.6-0.4-1.2-0.4h-1.6V229.5z"/>
	<path class="st2" d="M498.8,230.1c0,0.9-0.2,1.8-0.5,2.5c-0.3,0.7-0.8,1.3-1.4,1.6c-0.6,0.4-1.3,0.6-2.1,0.6
		c-0.8,0-1.5-0.2-2.1-0.6s-1.1-0.9-1.4-1.6c-0.3-0.7-0.5-1.5-0.5-2.4v-0.5c0-0.9,0.2-1.8,0.5-2.5c0.3-0.7,0.8-1.3,1.4-1.6
		c0.6-0.4,1.3-0.6,2.1-0.6c0.8,0,1.5,0.2,2.1,0.6c0.6,0.4,1.1,0.9,1.4,1.6c0.3,0.7,0.5,1.5,0.5,2.5V230.1z M496.8,229.6
		c0-1-0.2-1.8-0.5-2.3c-0.4-0.5-0.9-0.8-1.5-0.8c-0.7,0-1.2,0.3-1.5,0.8s-0.5,1.3-0.5,2.3v0.5c0,1,0.2,1.7,0.5,2.3
		c0.4,0.5,0.9,0.8,1.6,0.8c0.7,0,1.2-0.3,1.5-0.8c0.4-0.5,0.5-1.3,0.5-2.3V229.6z"/>
	<path class="st2" d="M507,226.7h-2.9v8h-2v-8h-2.9v-1.6h7.8V226.7z"/>
	<path class="st2" d="M515.5,226.7h-2.9v8h-2v-8h-2.9v-1.6h7.8V226.7z"/>
	<path class="st2" d="M524.3,231.9l1.3-6.8h2l-2.1,9.6h-2l-1.6-6.4l-1.6,6.4h-2l-2.1-9.6h2l1.3,6.8l1.6-6.8h1.7L524.3,231.9z"/>
	<path class="st2" d="M534.4,230.5h-3.8v2.6h4.4v1.6h-6.4v-9.6h6.4v1.6h-4.4v2.3h3.8V230.5z"/>
	<path class="st2" d="M538.4,234.6h-2v-9.6h2V234.6z"/>
	<path class="st2" d="M542.3,233h4.2v1.6h-6.2v-9.6h2V233z"/>
	<path class="st2" d="M553.4,230.5h-3.8v2.6h4.4v1.6h-6.4v-9.6h6.4v1.6h-4.4v2.3h3.8V230.5z"/>
	<path class="st2" d="M558.9,231.1h-1.6v3.5h-2v-9.6h3.6c1.1,0,2,0.3,2.6,0.8c0.6,0.5,0.9,1.2,0.9,2.1c0,0.7-0.1,1.2-0.4,1.6
		c-0.3,0.4-0.7,0.8-1.3,1l2.1,3.9v0.1h-2.1L558.9,231.1z M557.3,229.5h1.6c0.5,0,0.9-0.1,1.2-0.4c0.3-0.3,0.4-0.6,0.4-1
		c0-0.5-0.1-0.8-0.4-1.1c-0.3-0.3-0.6-0.4-1.2-0.4h-1.6V229.5z"/>
	<path class="st4" d="M465.1,248h1c0.5,0,0.9-0.1,1.2-0.4s0.4-0.6,0.4-1.1c0-0.5-0.1-0.8-0.4-1.1c-0.2-0.3-0.6-0.4-1.1-0.4
		c-0.4,0-0.8,0.1-1.1,0.4c-0.3,0.2-0.4,0.6-0.4,1h-1.6c0-0.5,0.1-0.9,0.4-1.3s0.6-0.7,1.1-0.9s1-0.3,1.6-0.3c1,0,1.7,0.2,2.3,0.7
		c0.5,0.5,0.8,1.1,0.8,2c0,0.4-0.1,0.8-0.4,1.2c-0.3,0.4-0.6,0.7-1.1,0.9c0.5,0.2,0.9,0.5,1.2,0.8c0.3,0.4,0.4,0.8,0.4,1.4
		c0,0.9-0.3,1.5-0.9,2.1s-1.4,0.8-2.3,0.8c-0.9,0-1.7-0.2-2.3-0.7s-0.9-1.1-0.9-2h1.6c0,0.4,0.1,0.8,0.4,1c0.3,0.3,0.7,0.4,1.1,0.4
		c0.5,0,0.9-0.1,1.2-0.4c0.3-0.3,0.4-0.6,0.4-1.1c0-0.5-0.1-0.9-0.4-1.2c-0.3-0.3-0.7-0.4-1.3-0.4h-0.9V248z"/>
	<path class="st4" d="M477.4,253.5H471v-1.1l3.2-3.5c0.5-0.5,0.8-0.9,1-1.3c0.2-0.3,0.3-0.7,0.3-1c0-0.5-0.1-0.8-0.4-1.1
		c-0.3-0.3-0.6-0.4-1-0.4c-0.5,0-0.9,0.2-1.2,0.5c-0.3,0.3-0.4,0.7-0.4,1.3h-1.6c0-0.6,0.1-1.1,0.4-1.6c0.3-0.5,0.6-0.8,1.1-1.1
		c0.5-0.3,1.1-0.4,1.7-0.4c0.9,0,1.7,0.2,2.2,0.7c0.5,0.5,0.8,1.1,0.8,1.9c0,0.5-0.1,1-0.4,1.5s-0.7,1.1-1.3,1.8l-2.3,2.5h4.4V253.5
		z"/>
	<path class="st4" d="M484.7,246.4c0,0.5-0.1,0.9-0.4,1.3c-0.2,0.4-0.6,0.7-1,0.9c0.5,0.2,0.9,0.5,1.2,1s0.4,0.9,0.4,1.4
		c0,0.8-0.3,1.5-0.9,2c-0.6,0.5-1.3,0.7-2.3,0.7c-1,0-1.7-0.2-2.3-0.7s-0.9-1.2-0.9-2c0-0.5,0.1-1,0.4-1.4c0.3-0.4,0.7-0.7,1.1-0.9
		c-0.4-0.2-0.7-0.5-1-0.9c-0.2-0.4-0.4-0.8-0.4-1.3c0-0.8,0.3-1.5,0.8-1.9c0.5-0.5,1.2-0.7,2.1-0.7c0.9,0,1.6,0.2,2.1,0.7
		C484.4,245,484.7,245.6,484.7,246.4z M483.3,250.8c0-0.5-0.1-0.9-0.4-1.1c-0.3-0.3-0.7-0.4-1.1-0.4c-0.5,0-0.8,0.1-1.1,0.4
		s-0.4,0.7-0.4,1.2c0,0.5,0.1,0.8,0.4,1.1c0.3,0.3,0.7,0.4,1.1,0.4c0.5,0,0.9-0.1,1.1-0.4C483.2,251.7,483.3,251.3,483.3,250.8z
		 M483.1,246.5c0-0.4-0.1-0.8-0.4-1c-0.2-0.3-0.6-0.4-1-0.4c-0.4,0-0.7,0.1-1,0.4c-0.2,0.3-0.4,0.6-0.4,1c0,0.4,0.1,0.8,0.4,1
		c0.2,0.3,0.6,0.4,1,0.4c0.4,0,0.7-0.1,1-0.4C483,247.3,483.1,246.9,483.1,246.5z"/>
	<path class="st4" d="M496.2,250c0,1.1-0.2,2-0.7,2.6c-0.5,0.7-1.2,1-2,1c-0.8,0-1.4-0.3-1.9-0.8v3.4h-1.6v-9.8h1.5l0.1,0.7
		c0.5-0.6,1.1-0.9,1.9-0.9c0.9,0,1.5,0.3,2,1C495.9,247.8,496.2,248.7,496.2,250L496.2,250z M494.6,249.9c0-0.7-0.1-1.3-0.4-1.7
		c-0.3-0.4-0.7-0.6-1.2-0.6c-0.7,0-1.1,0.3-1.4,0.8v3.2c0.3,0.6,0.8,0.8,1.4,0.8c0.5,0,0.9-0.2,1.2-0.6
		C494.4,251.3,494.6,250.7,494.6,249.9z"/>
	<path class="st4" d="M497.3,249.9c0-0.7,0.1-1.3,0.4-1.9c0.3-0.6,0.7-1,1.2-1.3c0.5-0.3,1.1-0.5,1.7-0.5c1,0,1.7,0.3,2.3,0.9
		c0.6,0.6,0.9,1.4,1,2.5l0,0.4c0,0.7-0.1,1.3-0.4,1.9c-0.3,0.6-0.7,1-1.2,1.3c-0.5,0.3-1.1,0.5-1.7,0.5c-1,0-1.8-0.3-2.4-1
		C497.6,251.9,497.3,251,497.3,249.9L497.3,249.9z M498.9,250c0,0.7,0.2,1.3,0.5,1.7c0.3,0.4,0.7,0.6,1.3,0.6s1-0.2,1.3-0.6
		c0.3-0.4,0.5-1,0.5-1.8c0-0.7-0.2-1.3-0.5-1.7c-0.3-0.4-0.7-0.6-1.3-0.6c-0.5,0-0.9,0.2-1.2,0.6C499.1,248.5,498.9,249.2,498.9,250
		z"/>
	<path class="st4" d="M509.7,252.8c-0.5,0.6-1.1,0.8-2,0.8c-0.8,0-1.4-0.2-1.8-0.7c-0.4-0.5-0.6-1.1-0.6-2v-4.6h1.6v4.6
		c0,0.9,0.4,1.4,1.1,1.4c0.8,0,1.3-0.3,1.6-0.8v-5.1h1.6v7.1h-1.5L509.7,252.8z"/>
	<path class="st4" d="M514.4,246.4l0,0.8c0.5-0.6,1.2-1,2.1-1c1.5,0,2.2,0.8,2.3,2.5v4.7h-1.6v-4.6c0-0.5-0.1-0.8-0.3-1
		c-0.2-0.2-0.5-0.3-1-0.3c-0.6,0-1.1,0.3-1.4,0.9v5.1h-1.6v-7.1H514.4z"/>
	<path class="st4" d="M520.2,249.9c0-1.1,0.3-2,0.8-2.6c0.5-0.7,1.2-1,2-1c0.8,0,1.4,0.3,1.8,0.8v-3.6h1.6v10.1H525l-0.1-0.7
		c-0.5,0.6-1.1,0.9-1.9,0.9c-0.8,0-1.5-0.3-2-1S520.2,251,520.2,249.9z M521.8,250c0,0.7,0.1,1.3,0.4,1.7s0.7,0.6,1.2,0.6
		c0.7,0,1.1-0.3,1.4-0.9v-3c-0.3-0.6-0.8-0.9-1.4-0.9c-0.5,0-0.9,0.2-1.2,0.6C521.9,248.6,521.8,249.2,521.8,250z"/>
	<path class="st4" d="M532.1,251.5c0-0.3-0.1-0.5-0.4-0.7c-0.2-0.1-0.6-0.3-1.2-0.4c-0.5-0.1-1-0.3-1.4-0.4
		c-0.8-0.4-1.2-0.9-1.2-1.7c0-0.6,0.3-1.1,0.8-1.5s1.2-0.6,2-0.6c0.8,0,1.5,0.2,2.1,0.6c0.5,0.4,0.8,1,0.8,1.6h-1.6
		c0-0.3-0.1-0.6-0.3-0.8c-0.2-0.2-0.5-0.3-0.9-0.3c-0.4,0-0.6,0.1-0.9,0.2c-0.2,0.2-0.3,0.4-0.3,0.7c0,0.2,0.1,0.4,0.3,0.6
		s0.6,0.3,1.2,0.4c0.6,0.1,1.1,0.3,1.5,0.5c0.4,0.2,0.6,0.4,0.8,0.7c0.2,0.3,0.3,0.6,0.3,1c0,0.6-0.3,1.2-0.8,1.6s-1.2,0.6-2.1,0.6
		c-0.6,0-1.1-0.1-1.6-0.3c-0.5-0.2-0.8-0.5-1.1-0.9s-0.4-0.8-0.4-1.2h1.6c0,0.4,0.2,0.7,0.4,0.9s0.6,0.3,1,0.3c0.4,0,0.7-0.1,1-0.2
		C532,252,532.1,251.8,532.1,251.5z"/>
	<path class="st4" d="M538.3,249.9c0-0.7,0.1-1.3,0.4-1.9c0.3-0.6,0.7-1,1.2-1.3c0.5-0.3,1.1-0.5,1.7-0.5c1,0,1.7,0.3,2.3,0.9
		c0.6,0.6,0.9,1.4,1,2.5l0,0.4c0,0.7-0.1,1.3-0.4,1.9c-0.3,0.6-0.7,1-1.2,1.3c-0.5,0.3-1.1,0.5-1.7,0.5c-1,0-1.8-0.3-2.4-1
		C538.6,251.9,538.3,251,538.3,249.9L538.3,249.9z M539.9,250c0,0.7,0.2,1.3,0.5,1.7c0.3,0.4,0.7,0.6,1.3,0.6s1-0.2,1.3-0.6
		c0.3-0.4,0.5-1,0.5-1.8c0-0.7-0.2-1.3-0.5-1.7c-0.3-0.4-0.7-0.6-1.3-0.6c-0.5,0-0.9,0.2-1.2,0.6C540.1,248.5,539.9,249.2,539.9,250
		z"/>
	<path class="st4" d="M546.9,253.5v-5.9h-1.1v-1.2h1.1v-0.7c0-0.8,0.2-1.4,0.7-1.8s1.1-0.6,1.8-0.6c0.3,0,0.6,0,0.9,0.1l0,1.2
		c-0.2,0-0.4-0.1-0.6-0.1c-0.8,0-1.1,0.4-1.1,1.2v0.6h1.4v1.2h-1.4v5.9H546.9z"/>
	<path class="st4" d="M555.2,253.5v-5.9h-1.1v-1.2h1.1v-0.7c0-0.8,0.2-1.4,0.7-1.8s1.1-0.6,1.8-0.6c0.3,0,0.6,0,0.9,0.1l0,1.2
		c-0.2,0-0.4-0.1-0.6-0.1c-0.8,0-1.1,0.4-1.1,1.2v0.6h1.4v1.2h-1.4v5.9H555.2z"/>
	<path class="st4" d="M559.2,249.9c0-0.7,0.1-1.3,0.4-1.9c0.3-0.6,0.7-1,1.2-1.3c0.5-0.3,1.1-0.5,1.7-0.5c1,0,1.7,0.3,2.3,0.9
		c0.6,0.6,0.9,1.4,1,2.5l0,0.4c0,0.7-0.1,1.3-0.4,1.9c-0.3,0.6-0.7,1-1.2,1.3c-0.5,0.3-1.1,0.5-1.7,0.5c-1,0-1.8-0.3-2.4-1
		C559.5,251.9,559.2,251,559.2,249.9L559.2,249.9z M560.8,250c0,0.7,0.2,1.3,0.5,1.7c0.3,0.4,0.7,0.6,1.3,0.6s1-0.2,1.3-0.6
		c0.3-0.4,0.5-1,0.5-1.8c0-0.7-0.2-1.3-0.5-1.7c-0.3-0.4-0.7-0.6-1.3-0.6c-0.5,0-0.9,0.2-1.2,0.6C560.9,248.5,560.8,249.2,560.8,250
		z"/>
	<path class="st4" d="M571,247.8c-0.2,0-0.4-0.1-0.7-0.1c-0.7,0-1.2,0.3-1.5,0.8v4.9h-1.6v-7.1h1.5l0,0.8c0.4-0.6,0.9-0.9,1.6-0.9
		c0.2,0,0.4,0,0.6,0.1L571,247.8z"/>
	<path class="st4" d="M574.8,252.3c0.4,0,0.7-0.1,1-0.3c0.3-0.2,0.4-0.5,0.4-0.9h1.5c0,0.4-0.2,0.9-0.4,1.2
		c-0.3,0.4-0.6,0.7-1.1,0.9c-0.4,0.2-0.9,0.3-1.4,0.3c-1,0-1.8-0.3-2.4-1c-0.6-0.6-0.9-1.5-0.9-2.7v-0.2c0-1.1,0.3-1.9,0.9-2.6
		c0.6-0.7,1.4-1,2.4-1c0.8,0,1.5,0.2,2.1,0.7c0.5,0.5,0.8,1.1,0.8,1.9h-1.5c0-0.4-0.2-0.7-0.4-1s-0.6-0.4-1-0.4
		c-0.5,0-0.9,0.2-1.2,0.6c-0.3,0.4-0.4,0.9-0.4,1.7v0.3c0,0.8,0.1,1.3,0.4,1.7S574.3,252.3,574.8,252.3z"/>
	<path class="st4" d="M582.2,253.6c-1,0-1.8-0.3-2.5-1c-0.6-0.6-0.9-1.5-0.9-2.5v-0.2c0-0.7,0.1-1.3,0.4-1.9s0.7-1,1.2-1.3
		c0.5-0.3,1-0.5,1.7-0.5c1,0,1.7,0.3,2.2,0.9c0.5,0.6,0.8,1.5,0.8,2.6v0.6h-4.6c0,0.6,0.2,1.1,0.6,1.4c0.3,0.3,0.8,0.5,1.3,0.5
		c0.7,0,1.3-0.3,1.8-0.9l0.9,0.8c-0.3,0.4-0.7,0.8-1.1,1S582.8,253.6,582.2,253.6z M582,247.5c-0.4,0-0.8,0.2-1.1,0.5
		s-0.4,0.7-0.5,1.3h3v-0.1c0-0.5-0.2-0.9-0.4-1.2C582.8,247.7,582.4,247.5,582,247.5z"/>
</g>
<path class="st0" d="M54.8,141.9c1.6,3.7-7.4,10.2-9.5,16.2c-2.1,6.1,4.3,6.2,13.5,14s27.9,11.1,42.2,12.3
	c14.3,1.2,37.8-15.8,39.7-21.9c1.9-6-8.9-15.2-11.6-17.2c-2.6-2-4.7-12.9-4.7-12.9"/>
<g id="XMLID_4_">
	<g>
		<path class="st0" d="M148.9,102c0.1-1.7,0.3-3.3,0.3-4.8c0.1-0.1,0.2-0.1,0.3,0c1,1.4,5.5,9.7,5.3,10.1c-0.9,1.9-1.3,9.5-2.5,9.8
			c-1.3,0.3-3.3-2.2-4.4-4c-0.4-0.6-0.4-2.7-0.3-5.2c0.3,1.3,0.5,2.1,0.5,2.1S148.6,106.1,148.9,102z"/>
		<path class="st0" d="M148.9,102c-0.4,4.1-0.9,7.9-0.9,7.9s-0.2-0.8-0.5-2.1c0.2-4.4,1-9.9,1.7-10.7
			C149.2,98.7,149.1,100.4,148.9,102z"/>
		<path class="st3" d="M149.2,97.2c-0.6,0.8-1.5,6.3-1.7,10.7c-0.1-0.5-0.2-1-0.4-1.6c0,0,0,0,0,0c-0.1-0.6-1.3-7.8-1.9-9.3
			c-0.3-2.6-4.8-8.1-8.2-11c0,0-0.1-0.1-0.1-0.1c-1.1-1-2.1-1.7-2.8-1.7c-2.4-0.4-12.7,2.1-13.9,2.4c-0.1,0-0.1,0-0.1,0
			c-1.5-1.8-3.2-3.5-5-5c0.8,0.5,12.9-1.9,14.2-1.3c1.3,0.5,6.6,1.9,9.4,2.3c2.7,0.4,8.6,8.3,10.1,9.9
			C149.2,93,149.3,94.8,149.2,97.2z"/>
		<path class="st4" d="M145.3,96.9c0.5,1.5,1.8,8.7,1.9,9.3C146.5,103.2,145.6,99,145.3,96.9z"/>
		<path class="st4" d="M134.2,84.1c0.6,0.1,1.6,0.7,2.8,1.7c0,0,0.1,0.1,0.1,0.1c3.4,3.2,7.8,9.7,8.2,11c0.3,2.1,1.2,6.3,1.9,9.3
			c-0.1-0.6-5.3-0.3-6.6,1c-1.3,1.3-8.2,2.5-9.5,2.7c-1.3,0.1-3.2-1.9-3.2-1.9s-0.2-2.3-0.4-5.3c0-0.1,0-0.1,0-0.2
			c-0.1-1.1-0.1-2.1-0.2-2.9c0-0.1,0-0.1,0-0.2c-0.1-1.1-0.7-2.6-1.5-4.1c0,0,0,0,0-0.1c-1.2-2.6-3.1-5.8-5.6-8.7c0,0,0,0,0,0
			s0,0,0.1,0C121.5,86.3,131.6,84.3,134.2,84.1z"/>
		<path class="st0" d="M145.3,96.9c-0.4-1.3-4.8-7.8-8.2-11C140.5,88.8,145,94.3,145.3,96.9z"/>
		<path class="st4" d="M134.2,84.1c0.7,0,1.7,0.6,2.8,1.7C135.9,84.9,134.9,84.2,134.2,84.1z"/>
		<path class="st0" d="M134.2,84.1c-2.6,0.1-12.7,2.2-13.9,2.4C121.5,86.2,131.8,83.8,134.2,84.1z"/>
		<path class="st0" d="M127.5,102.8c0.2,2.9,0.4,5.3,0.4,5.3C127.7,106.2,127.6,104.4,127.5,102.8z"/>
		<path class="st4" d="M127.5,102.6c-0.1-0.9-0.1-1.9-0.2-2.9C127.4,100.5,127.4,101.5,127.5,102.6z"/>
		<path class="st0" d="M125.8,95.4c0.8,1.5,1.3,3,1.5,4.1C127.1,98.6,126.6,97.1,125.8,95.4z"/>
		<path class="st4" d="M125.8,95.3c-2-4-5.3-8.3-5.6-8.7C122.6,89.6,124.6,92.7,125.8,95.3z"/>
		<path class="st0" d="M123.4,132.2c2.7,6-0.2,10.8-1.2,14.4c-2-5-9-17-12.6-19.9c-4.3-3.4-7.1-6.7-11.9-7.1
			c-4.8-0.4-4.7-5.8-9.1-5.8c-4.4,0-17.3,13.3-17.9,19c-0.6,5.6-7.4,22.6,3.7,23.3c-2.6,0.2-5.1,0-7.1-0.5c-1.5-0.5-2.6-1.1-3.4-2
			c-2-2.4-2.5-6.8-5.2-15.5c-3.9-12.1,17.1-18.3,19.4-21c2.4-2.6,5.8-10.5,6.9-14.3c1.1-3.8-3.9-20-4.8-21.6
			c-0.6-1.1,0.9-1.1,2.6-0.8c0.2,0,0.4,0.1,0.6,0.1c0.7,0.1,1.2,0.2,1.5,0.3c0.1,0,0.1,0,0.2,0c2.3,0.3,8.1-1.3,9.1-2.7
			c0.1,0,0.2,0,0.3-0.1c0.7,0.9,0.2,10.2-0.8,13.2c-1.1,3.4,3.2,18.6,5.8,21.2C102.3,115.1,120.2,125.1,123.4,132.2z"/>
		<path class="st3" d="M122.6,147.5c-0.2,0.4-0.4,0.7-0.6,1c0-0.6,0.1-1.3,0.3-1.9C122.4,147,122.5,147.3,122.6,147.5z"/>
		<path class="st3" d="M122,148.6c0,1.1-0.2,2-0.7,2.6c-0.4,0.3-0.9,0.7-1.5,1C120.4,151.1,121.2,149.9,122,148.6z"/>
		<path class="st3" d="M119.8,152.2c0.6-0.3,1.1-0.6,1.5-1c-0.4,0.5-0.9,1-1.7,1.3C119.7,152.4,119.7,152.3,119.8,152.2z"/>
		<path class="st3" d="M115.1,81.6c-0.7-0.5,5,5,5,5s0,0,0,0c0.3,0.4,3.6,4.8,5.6,8.7c0,0,0,0,0,0.1c0.8,1.7,1.3,3.2,1.5,4.1
			c0,0.1,0,0.1,0,0.2c0.1,1,0.1,2,0.2,2.9c0,0.1,0,0.1,0,0.2c0.1,1.6,0.2,3.4,0.4,5.3c0.4,4.1,1.4,8.8,3.7,13c2.9,5.1-4,17.9-9,26.4
			c-0.1-0.3-0.2-0.6-0.3-0.9c1-3.7,3.9-8.5,1.2-14.4c-3.2-7.1-21.2-17.1-23.8-19.8c-2.6-2.6-6.9-17.7-5.8-21.2
			c1-3.1,1.5-12.3,0.8-13.2c2.4-0.5,5.5-0.9,9.4-0.9C108.1,77.1,111.8,78.9,115.1,81.6z M117.9,107c1.4-1.1,2.5-2.9,1.8-3.2
			c-0.7-0.3-2.5-2-4-3s-4.4-0.4-6.4,0c-2,0.4-3.4,4.5-3.4,4.5c-0.4,1,2.9,3,5.3,3.3C113.6,108.9,116.5,108,117.9,107z"/>
		<path class="st4" d="M119.7,103.8c0.7,0.3-0.4,2.1-1.8,3.2c-1.4,1.1-4.4,2-6.7,1.7c-2.3-0.3-5.7-2.3-5.3-3.3c0,0,1.4-4.1,3.4-4.5
			c2-0.4,4.8-1,6.4,0S119,103.4,119.7,103.8z"/>
		<path class="st3" d="M119.8,152.2c-0.1,0.1-0.1,0.2-0.2,0.3c-0.6,0.3-1.4,0.5-2.4,0.8C118.2,153,119.1,152.6,119.8,152.2z"/>
		<path class="st3" d="M117.2,153.3c-0.9,0.3-1.8,0.6-2.9,0.9c-0.5,0.1-1.1,0.2-1.6,0.1c0.3,0,0.5-0.1,0.8-0.1
			C114.9,153.9,116.2,153.6,117.2,153.3z"/>
		<path class="st3" d="M115.1,81.6c1.8,1.5,3.5,3.2,5,5C120.2,86.6,114.4,81,115.1,81.6L115.1,81.6z"/>
		<path class="st3" d="M112.7,154.3c-3.8,0.3-8.8-2.8-12.5-5.3C104.2,151.3,109.2,154.1,112.7,154.3z"/>
		<path class="st1" d="M105.4,126.2c1,1.5-1.1,6.5-3.3,8.8c-2.2,2.3-7.9,3.6-11.2,3.1c-3.2-0.5-9.3-7.4-9.4-9.7
			c-0.1-2.3,4.3-6.3,6.5-7c2.2-0.7,4.6,0,4.6,0s1.9,0,5.2-0.3S104.4,124.7,105.4,126.2z"/>
		<path class="st3" d="M97.8,121.1c-3.3,0.3-5.2,0.3-5.2,0.3s-2.4-0.7-4.6,0c-2.2,0.7-6.6,4.7-6.5,7c0.1,2.3,6.2,9.1,9.4,9.7
			c3.2,0.5,9-0.8,11.2-3.1c2.2-2.3,4.3-7.3,3.3-8.8C104.4,124.7,101.1,120.8,97.8,121.1z M97.7,119.7c4.8,0.4,7.6,3.6,11.9,7.1
			c3.7,2.9,10.6,14.9,12.6,19.9c-0.2,0.7-0.3,1.3-0.3,1.9v0c-0.8,1.3-1.5,2.6-2.2,3.6c-0.7,0.4-1.6,0.8-2.6,1.1
			c-1.1,0.3-2.3,0.5-3.7,0.9c-0.3,0.1-0.5,0.1-0.8,0.1c-3.5-0.2-8.5-3-12.5-5.3c0,0,0,0-0.1,0c-2.1-1.4-3.8-2.7-4.6-3
			c-2.4-1-5.6,2.4-9.5,6c-2.5,2.3-7.2,3.8-11.6,4.1c-11.1-0.7-4.3-17.7-3.7-23.3c0.6-5.6,13.5-19,17.9-19
			C93,113.9,93,119.3,97.7,119.7z"/>
		<path class="st1" d="M74.8,156.1c11.7,0.3,17.3-10,19.4-10.1c0.8,0,3.1,1.3,5.9,2.9c0,0,0,0,0.1,0c3.7,2.5,8.7,5.6,12.5,5.3
			c0.6,0,1.1,0,1.6-0.1c1.1-0.3,2-0.6,2.9-0.9c0.9-0.3,1.7-0.5,2.4-0.8c-1,1.7-1.7,2.9-1.8,3.3c-0.4,2-9.1,4-11.7,4s-7.3-3.2-11.2-4
			c-3.9-0.8-14.7,6.5-20.7,6.5c-4.9,0-7.8-4-12.5-8.3l2.2-0.4c0.8,0.9,1.9,1.6,3.4,2c2,0.6,4.5,0.8,7.1,0.5
			C74.6,156.1,74.7,156.1,74.8,156.1z"/>
		<path class="st0" d="M94.6,78c-0.1,0-0.2,0-0.3,0.1C94.4,77.9,94.5,77.9,94.6,78z"/>
		<path class="st0" d="M94.3,78.1c-1.1,1.4-6.8,3-9.1,2.7C86.9,80.9,89.1,79.2,94.3,78.1z"/>
		<path class="st0" d="M85,80.8c-0.3,0-0.8-0.2-1.5-0.3C84,80.6,84.5,80.7,85,80.8z"/>
		<path class="st1" d="M61.9,106.7c0,2,0,2,0,2s-0.5,2.2,3,2.8c3.4,0.7,6.7,2,8.1,0c1.5-2,1.2-5.7,0-6.8c-1.2-1.1-4.4-1.1-6.7,0
			C64.2,105.9,61.9,104.8,61.9,106.7z M82.8,80.4c-1.7-0.3-3.2-0.3-2.6,0.8c0.9,1.6,5.8,17.7,4.8,21.6c-1.1,3.8-4.5,11.7-6.9,14.3
			c-2.4,2.6-23.3,8.9-19.4,21c2.8,8.7,3.2,13.1,5.2,15.5l-2.2,0.4c-1.1-1-2.2-2-3.5-3c-6.9-5.2-7.3-16.5-8.2-20.2
			c-0.4-1.8-0.4-9.6-0.3-16.9c0.1-7.3,0.3-14.1,0.3-14.1s1.9-3.7,4.6-8c1.1-1.8,2.4-3.7,3.8-5.5c2.3-2.5,4.8-4.9,5-5.2
			C68.8,78,78.3,79.6,82.8,80.4z"/>
		<path class="st3" d="M100.1,148.9c-2.8-1.6-5.1-3-5.9-2.9c-2.2,0.1-7.8,10.4-19.4,10.1c-0.1,0-0.3,0-0.4,0
			c4.5-0.3,9.2-1.8,11.6-4.1c3.9-3.6,7.1-7.1,9.5-6C96.4,146.3,98.1,147.5,100.1,148.9z"/>
		<path class="st4" d="M73.1,104.8c1.2,1.1,1.5,4.8,0,6.8c-1.5,2-4.7,0.7-8.1,0c-3.4-0.7-3-2.8-3-2.8s0,0,0-2c0-2,2.2-0.9,4.5-2
			C68.6,103.7,71.8,103.7,73.1,104.8z"/>
		<path class="st0" d="M58.4,86.3c1.1-1.4,2.2-2.8,3.3-3.9c0.5-0.5,1.1-1,1.8-1.3C63.1,81.3,60.6,83.7,58.4,86.3z"/>
		<path class="st0" d="M58.4,86.3c-1.3,1.8-2.6,3.7-3.8,5.5C54.7,90.7,56.4,88.4,58.4,86.3z"/>
		<path class="st4" d="M51,88.6c3.5,0,3.6,3.2,3.6,3.2c-2.7,4.3-4.6,8-4.6,8s-0.2,6.8-0.3,14.1h-0.1c0,0-16.5,0.2-17.7-1.3
			c-1.3-1.4-7.3-2.6-7.3-2.6c0-2,3.9-6.3,5.9-9s7.5-12.9,8.9-12.4C40.8,89.1,47.5,88.6,51,88.6z"/>
		<path class="st0" d="M61.7,82.4c-1.1,1.1-2.2,2.4-3.3,3.9c-1.9,2.2-3.7,4.4-3.8,5.5c0,0-0.1-3.2-3.6-3.2s-10.2,0.5-11.7,0
			c-1.4-0.5-6.9,9.7-8.9,12.4s-5.9,7-5.9,9c0,0,0,0.1,0,0.2c-0.1-0.3-0.2-2.8-0.1-5.4c0-2.3,0.2-4.6,0.7-5.5
			c1.2-2.2,6.5-9.4,8.4-10.7c1.9-1.3,11.2-5.5,12.8-5.4c1.6,0.1,6.6,1.9,8.4,1.8s8.8-3.9,8.8-3.9s0,0,0,0
			C62.8,81.4,62.2,81.9,61.7,82.4z"/>
		<path class="st0" d="M24.5,110c0,0.2,0,0.3,0,0.2v0C24.5,110,24.5,110,24.5,110z"/>
		<path class="st0" d="M24.4,104.8c-0.1,2.6,0.1,5.1,0.1,5.4v0c-0.1,1.6-0.8,10.6-2,12.4c-1.3,2-5.5-6.7-4.6-7.4
			S24.4,104.8,24.4,104.8L24.4,104.8z"/>
	</g>
</g>
<g>
	<circle class="st6" cx="110.8" cy="104.7" r="3.6"/>
	<circle class="st4" cx="110.5" cy="104.2" r="3.3"/>
	
		<ellipse transform="matrix(0.9227 -0.3854 0.3854 0.9227 -31.1445 51.6521)" class="st3" cx="113.3" cy="103.5" rx="0.8" ry="0.8"/>
</g>
<g>
	<circle class="st6" cx="70.5" cy="107.3" r="3.3"/>
	<circle class="st4" cx="70.8" cy="106.8" r="3"/>
	
		<ellipse transform="matrix(0.3854 -0.9227 0.9227 0.3854 -56.0418 128.2012)" class="st3" cx="68.2" cy="106.2" rx="0.7" ry="0.7"/>
</g>
<path class="st4" d="M108.6,99.5c0,0,3.5-2.7,5-2.2c1.4,0.5,6.9,2.5,7.2,3.6s0.9,1.1,0.8,0.3s-1.9-2-3.6-2.6c-1.7-0.6-5.1-2.4-5.9-2
	c-0.8,0.4-3.2,2.3-3.3,2.6C108.6,99.5,108.6,99.5,108.6,99.5z"/>
<path class="st4" d="M59.6,106.7c0,0,1-4.3,2.4-4.8c1.5-0.5,6.9-2.5,7.9-1.9c0.9,0.6,1.4,0.3,0.8-0.3s-2.7-0.3-4.4,0.3
	c-1.7,0.6-5.5,1.4-5.9,2.2c-0.4,0.8-1,3.8-0.9,4.1C59.6,106.7,59.6,106.7,59.6,106.7z"/>
<path class="st4" d="M98.7,123.1c0,0-4.4,0.1-5.5,0.7c-1.1,0.6-2.6,1.9-3.8,1.4c-1.2-0.4-2-1.5-3-0.7c-0.9,0.8-0.7-1.9,2.1-2.7
	c2.8-0.9,4.7,1,5.9,1C95.6,122.8,98.7,123.1,98.7,123.1z"/>
<path class="st4" d="M105.1,127.1c0,0,1.8,4.5-4.8,5.5c-6.6,1.1-3.4-5.5-2.3-5.3s1.6,1.1,1.7,2.5c0,1.5,1.6,2.5,3.6,0.4
	C105.3,128.3,105.1,127.1,105.1,127.1z"/>
<path class="st4" d="M81.6,127.8c0,0,1.4,5,4.1,4.7s2.1-2,2.7-3c0.6-1,2.7-0.3,2.8,1c0.1,1.2,0.2,3.3-2,3.2
	C86.9,133.6,81.5,134.2,81.6,127.8z"/>
<path class="st4" d="M92.8,131.8c0,0-0.8,0.9-0.3,2.2c0.5,1.3,0.3,3.9,1,4.1c0.7,0.2,2.5-0.2,2.7-0.5s-1.3-1.4-1.9-1.9
	c-0.6-0.5-1.3-2.6-1.4-3.3S92.8,131.8,92.8,131.8z"/>
<path class="st4" d="M88,151.8c0,0,3.4,1.5,6.9,1.1s7.7-2.1,7.7-2.1S96,146,94.5,146S88,151.8,88,151.8z"/>
<g>
	<path class="st2" d="M68.3,229.2v3.4h-2V223H70c0.7,0,1.4,0.1,1.9,0.4s1,0.6,1.3,1.1c0.3,0.5,0.4,1,0.4,1.7c0,0.9-0.3,1.7-1,2.2
		c-0.6,0.5-1.5,0.8-2.7,0.8H68.3z M68.3,227.6H70c0.5,0,0.9-0.1,1.2-0.4c0.3-0.2,0.4-0.6,0.4-1.1c0-0.5-0.1-0.8-0.4-1.1
		s-0.7-0.4-1.1-0.4h-1.8V227.6z"/>
	<path class="st2" d="M77.2,232.6h-2V223h2V232.6z"/>
	<path class="st2" d="M86.1,224.6h-2.9v8h-2v-8h-2.9V223h7.8V224.6z"/>
	<path class="st2" d="M90.3,232.6V223h3.4c1.2,0,2,0.2,2.6,0.7c0.6,0.4,0.9,1.1,0.9,2c0,0.5-0.1,0.9-0.4,1.2c-0.2,0.4-0.6,0.6-1,0.8
		c0.5,0.1,0.9,0.4,1.2,0.7c0.3,0.4,0.4,0.8,0.4,1.4c0,0.9-0.3,1.6-0.9,2.1c-0.6,0.5-1.4,0.7-2.5,0.7H90.3z M92.3,227.1h1.5
		c1,0,1.5-0.4,1.5-1.2c0-0.4-0.1-0.7-0.4-0.9s-0.6-0.3-1.2-0.3h-1.4V227.1z M92.3,228.4v2.6H94c0.5,0,0.8-0.1,1.1-0.3
		c0.3-0.2,0.4-0.5,0.4-0.9c0-0.9-0.5-1.3-1.4-1.3H92.3z"/>
	<path class="st2" d="M106.2,223v6.3c0,1-0.3,1.9-1,2.5c-0.7,0.6-1.5,0.9-2.7,0.9c-1.1,0-2-0.3-2.7-0.9s-1-1.4-1-2.4V223h2v6.3
		c0,0.6,0.1,1.1,0.5,1.4c0.3,0.3,0.7,0.4,1.2,0.4c1.1,0,1.7-0.6,1.7-1.7V223H106.2z"/>
	<path class="st2" d="M109.9,231h4.2v1.6h-6.2V223h2V231z"/>
	<path class="st2" d="M117.3,231h4.2v1.6h-6.2V223h2V231z"/>
	<path class="st4" d="M36.4,245.9h1c0.5,0,0.9-0.1,1.2-0.4c0.3-0.2,0.4-0.6,0.4-1.1c0-0.5-0.1-0.8-0.4-1.1S38,243,37.5,243
		c-0.4,0-0.8,0.1-1.1,0.4c-0.3,0.2-0.4,0.6-0.4,1h-1.6c0-0.5,0.1-0.9,0.4-1.3c0.3-0.4,0.6-0.7,1.1-0.9c0.5-0.2,1-0.3,1.6-0.3
		c1,0,1.7,0.2,2.3,0.7c0.5,0.5,0.8,1.1,0.8,2c0,0.4-0.1,0.8-0.4,1.2c-0.3,0.4-0.6,0.7-1.1,0.9c0.5,0.2,0.9,0.5,1.2,0.8
		c0.3,0.4,0.4,0.8,0.4,1.4c0,0.9-0.3,1.5-0.9,2.1s-1.4,0.8-2.3,0.8c-0.9,0-1.7-0.2-2.3-0.7c-0.6-0.5-0.9-1.1-0.9-2H36
		c0,0.4,0.1,0.8,0.4,1c0.3,0.3,0.7,0.4,1.1,0.4c0.5,0,0.9-0.1,1.2-0.4c0.3-0.3,0.4-0.6,0.4-1.1c0-0.5-0.1-0.9-0.4-1.2
		c-0.3-0.3-0.7-0.4-1.3-0.4h-0.9V245.9z"/>
	<path class="st4" d="M44.1,245.9h1c0.5,0,0.9-0.1,1.2-0.4c0.3-0.2,0.4-0.6,0.4-1.1c0-0.5-0.1-0.8-0.4-1.1s-0.6-0.4-1.1-0.4
		c-0.4,0-0.8,0.1-1.1,0.4c-0.3,0.2-0.4,0.6-0.4,1h-1.6c0-0.5,0.1-0.9,0.4-1.3c0.3-0.4,0.6-0.7,1.1-0.9c0.5-0.2,1-0.3,1.6-0.3
		c1,0,1.7,0.2,2.3,0.7c0.5,0.5,0.8,1.1,0.8,2c0,0.4-0.1,0.8-0.4,1.2c-0.3,0.4-0.6,0.7-1.1,0.9c0.5,0.2,0.9,0.5,1.2,0.8
		c0.3,0.4,0.4,0.8,0.4,1.4c0,0.9-0.3,1.5-0.9,2.1s-1.4,0.8-2.3,0.8c-0.9,0-1.7-0.2-2.3-0.7c-0.6-0.5-0.9-1.1-0.9-2h1.6
		c0,0.4,0.1,0.8,0.4,1c0.3,0.3,0.7,0.4,1.1,0.4c0.5,0,0.9-0.1,1.2-0.4c0.3-0.3,0.4-0.6,0.4-1.1c0-0.5-0.1-0.9-0.4-1.2
		c-0.3-0.3-0.7-0.4-1.3-0.4h-0.9V245.9z"/>
	<path class="st4" d="M50.4,246.7l0.5-4.8h5.1v1.4h-3.8l-0.3,2.3c0.4-0.3,0.9-0.4,1.5-0.4c0.9,0,1.6,0.3,2.1,0.9
		c0.5,0.6,0.8,1.4,0.8,2.4c0,1-0.3,1.7-0.8,2.3c-0.6,0.6-1.3,0.9-2.3,0.9c-0.9,0-1.6-0.2-2.2-0.7s-0.9-1.2-0.9-2h1.5
		c0.1,0.5,0.2,0.8,0.5,1.1c0.3,0.2,0.6,0.4,1.1,0.4c0.5,0,0.9-0.2,1.1-0.5c0.3-0.4,0.4-0.8,0.4-1.4c0-0.6-0.2-1-0.5-1.4
		c-0.3-0.3-0.7-0.5-1.2-0.5c-0.3,0-0.5,0-0.7,0.1c-0.2,0.1-0.4,0.2-0.7,0.4L50.4,246.7z"/>
	<path class="st4" d="M67.5,248c0,1.1-0.2,2-0.7,2.6c-0.5,0.7-1.2,1-2,1c-0.8,0-1.4-0.3-1.9-0.8v3.4h-1.6v-9.8h1.5l0.1,0.7
		c0.5-0.6,1.1-0.9,1.9-0.9c0.9,0,1.5,0.3,2,1C67.3,245.8,67.5,246.7,67.5,248L67.5,248z M65.9,247.8c0-0.7-0.1-1.3-0.4-1.7
		c-0.3-0.4-0.7-0.6-1.2-0.6c-0.7,0-1.1,0.3-1.4,0.8v3.2c0.3,0.6,0.8,0.8,1.4,0.8c0.5,0,0.9-0.2,1.2-0.6
		C65.8,249.3,65.9,248.7,65.9,247.8z"/>
	<path class="st4" d="M68.6,247.8c0-0.7,0.1-1.3,0.4-1.9s0.7-1,1.2-1.3c0.5-0.3,1.1-0.5,1.7-0.5c1,0,1.7,0.3,2.3,0.9
		c0.6,0.6,0.9,1.4,1,2.5l0,0.4c0,0.7-0.1,1.3-0.4,1.9s-0.7,1-1.2,1.3c-0.5,0.3-1.1,0.5-1.7,0.5c-1,0-1.8-0.3-2.4-1
		C68.9,249.9,68.6,249,68.6,247.8L68.6,247.8z M70.2,248c0,0.7,0.2,1.3,0.5,1.7s0.7,0.6,1.3,0.6c0.5,0,1-0.2,1.3-0.6
		c0.3-0.4,0.5-1,0.5-1.8c0-0.7-0.2-1.3-0.5-1.7c-0.3-0.4-0.7-0.6-1.3-0.6c-0.5,0-0.9,0.2-1.2,0.6C70.4,246.5,70.2,247.1,70.2,248z"
		/>
	<path class="st4" d="M81,250.8c-0.5,0.6-1.1,0.8-2,0.8c-0.8,0-1.4-0.2-1.8-0.7c-0.4-0.5-0.6-1.1-0.6-2v-4.6h1.6v4.6
		c0,0.9,0.4,1.4,1.1,1.4c0.8,0,1.3-0.3,1.6-0.8v-5.1h1.6v7.1H81L81,250.8z"/>
	<path class="st4" d="M85.7,244.3l0,0.8c0.5-0.6,1.2-1,2.1-1c1.5,0,2.2,0.8,2.3,2.5v4.7h-1.6v-4.6c0-0.5-0.1-0.8-0.3-1
		c-0.2-0.2-0.5-0.3-1-0.3c-0.6,0-1.1,0.3-1.4,0.9v5.1h-1.6v-7.1H85.7z"/>
	<path class="st4" d="M91.5,247.8c0-1.1,0.3-2,0.8-2.6c0.5-0.7,1.2-1,2-1c0.8,0,1.4,0.3,1.8,0.8v-3.6h1.6v10.1h-1.4l-0.1-0.7
		c-0.5,0.6-1.1,0.9-1.9,0.9c-0.8,0-1.5-0.3-2-1C91.8,249.9,91.5,249,91.5,247.8z M93.1,248c0,0.7,0.1,1.3,0.4,1.7s0.7,0.6,1.2,0.6
		c0.7,0,1.1-0.3,1.4-0.9v-3c-0.3-0.6-0.8-0.9-1.4-0.9c-0.5,0-0.9,0.2-1.2,0.6C93.2,246.5,93.1,247.2,93.1,248z"/>
	<path class="st4" d="M103.5,249.5c0-0.3-0.1-0.5-0.4-0.7c-0.2-0.1-0.6-0.3-1.2-0.4c-0.5-0.1-1-0.3-1.4-0.4
		c-0.8-0.4-1.2-0.9-1.2-1.7c0-0.6,0.3-1.1,0.8-1.5s1.2-0.6,2-0.6c0.8,0,1.5,0.2,2.1,0.6c0.5,0.4,0.8,1,0.8,1.6h-1.6
		c0-0.3-0.1-0.6-0.3-0.8c-0.2-0.2-0.5-0.3-0.9-0.3c-0.4,0-0.6,0.1-0.9,0.2s-0.3,0.4-0.3,0.7c0,0.2,0.1,0.4,0.3,0.6s0.6,0.3,1.2,0.4
		c0.6,0.1,1.1,0.3,1.5,0.5c0.4,0.2,0.6,0.4,0.8,0.7c0.2,0.3,0.3,0.6,0.3,1c0,0.6-0.3,1.2-0.8,1.6c-0.5,0.4-1.2,0.6-2.1,0.6
		c-0.6,0-1.1-0.1-1.6-0.3c-0.5-0.2-0.8-0.5-1.1-0.9s-0.4-0.8-0.4-1.2h1.6c0,0.4,0.2,0.7,0.4,0.9c0.3,0.2,0.6,0.3,1,0.3
		c0.4,0,0.7-0.1,1-0.2C103.4,250,103.5,249.8,103.5,249.5z"/>
	<path class="st4" d="M109.6,247.8c0-0.7,0.1-1.3,0.4-1.9s0.7-1,1.2-1.3c0.5-0.3,1.1-0.5,1.7-0.5c1,0,1.7,0.3,2.3,0.9
		c0.6,0.6,0.9,1.4,1,2.5l0,0.4c0,0.7-0.1,1.3-0.4,1.9s-0.7,1-1.2,1.3c-0.5,0.3-1.1,0.5-1.7,0.5c-1,0-1.8-0.3-2.4-1
		C109.9,249.9,109.6,249,109.6,247.8L109.6,247.8z M111.2,248c0,0.7,0.2,1.3,0.5,1.7s0.7,0.6,1.3,0.6c0.5,0,1-0.2,1.3-0.6
		c0.3-0.4,0.5-1,0.5-1.8c0-0.7-0.2-1.3-0.5-1.7c-0.3-0.4-0.7-0.6-1.3-0.6c-0.5,0-0.9,0.2-1.2,0.6C111.4,246.5,111.2,247.1,111.2,248
		z"/>
	<path class="st4" d="M118.2,251.5v-5.9h-1.1v-1.2h1.1v-0.7c0-0.8,0.2-1.4,0.7-1.8s1.1-0.6,1.8-0.6c0.3,0,0.6,0,0.9,0.1l0,1.2
		c-0.2,0-0.4-0.1-0.6-0.1c-0.8,0-1.1,0.4-1.1,1.2v0.6h1.4v1.2h-1.4v5.9H118.2z"/>
	<path class="st4" d="M126.5,251.5v-5.9h-1.1v-1.2h1.1v-0.7c0-0.8,0.2-1.4,0.7-1.8s1.1-0.6,1.8-0.6c0.3,0,0.6,0,0.9,0.1l0,1.2
		c-0.2,0-0.4-0.1-0.6-0.1c-0.8,0-1.1,0.4-1.1,1.2v0.6h1.4v1.2h-1.4v5.9H126.5z"/>
	<path class="st4" d="M130.5,247.8c0-0.7,0.1-1.3,0.4-1.9s0.7-1,1.2-1.3c0.5-0.3,1.1-0.5,1.7-0.5c1,0,1.7,0.3,2.3,0.9
		c0.6,0.6,0.9,1.4,1,2.5l0,0.4c0,0.7-0.1,1.3-0.4,1.9s-0.7,1-1.2,1.3c-0.5,0.3-1.1,0.5-1.7,0.5c-1,0-1.8-0.3-2.4-1
		C130.8,249.9,130.5,249,130.5,247.8L130.5,247.8z M132.1,248c0,0.7,0.2,1.3,0.5,1.7s0.7,0.6,1.3,0.6c0.5,0,1-0.2,1.3-0.6
		c0.3-0.4,0.5-1,0.5-1.8c0-0.7-0.2-1.3-0.5-1.7c-0.3-0.4-0.7-0.6-1.3-0.6c-0.5,0-0.9,0.2-1.2,0.6C132.3,246.5,132.1,247.1,132.1,248
		z"/>
	<path class="st4" d="M142.3,245.8c-0.2,0-0.4-0.1-0.7-0.1c-0.7,0-1.2,0.3-1.5,0.8v4.9h-1.6v-7.1h1.5l0,0.8c0.4-0.6,0.9-0.9,1.6-0.9
		c0.2,0,0.4,0,0.6,0.1L142.3,245.8z"/>
	<path class="st4" d="M146.2,250.3c0.4,0,0.7-0.1,1-0.3c0.3-0.2,0.4-0.5,0.4-0.9h1.5c0,0.4-0.2,0.9-0.4,1.2
		c-0.3,0.4-0.6,0.7-1.1,0.9c-0.4,0.2-0.9,0.3-1.4,0.3c-1,0-1.8-0.3-2.4-1c-0.6-0.6-0.9-1.5-0.9-2.7v-0.2c0-1.1,0.3-1.9,0.9-2.6
		c0.6-0.7,1.4-1,2.4-1c0.8,0,1.5,0.2,2.1,0.7c0.5,0.5,0.8,1.1,0.8,1.9h-1.5c0-0.4-0.2-0.7-0.4-1s-0.6-0.4-1-0.4
		c-0.5,0-0.9,0.2-1.2,0.6c-0.3,0.4-0.4,0.9-0.4,1.7v0.3c0,0.8,0.1,1.3,0.4,1.7S145.6,250.3,146.2,250.3z"/>
	<path class="st4" d="M153.5,251.6c-1,0-1.8-0.3-2.5-1c-0.6-0.6-0.9-1.5-0.9-2.5v-0.2c0-0.7,0.1-1.3,0.4-1.9s0.7-1,1.2-1.3
		c0.5-0.3,1-0.5,1.7-0.5c1,0,1.7,0.3,2.2,0.9c0.5,0.6,0.8,1.5,0.8,2.6v0.6h-4.6c0,0.6,0.2,1.1,0.6,1.4c0.3,0.3,0.8,0.5,1.3,0.5
		c0.7,0,1.3-0.3,1.8-0.9l0.9,0.8c-0.3,0.4-0.7,0.8-1.1,1C154.6,251.5,154.1,251.6,153.5,251.6z M153.3,245.5c-0.4,0-0.8,0.2-1.1,0.5
		s-0.4,0.7-0.5,1.3h3v-0.1c0-0.5-0.2-0.9-0.4-1.2C154.1,245.6,153.8,245.5,153.3,245.5z"/>
</g>
<path class="st1" d="M348.2,127.2c0,0-0.1,0.8-0.3,2c-0.7,3.7-2.5,11.8-7.1,17c-6.1,6.8-11,13.3-11,13.3s0.7,2.2,5.4,0
	c4.7-2.2,16.6-7.2,17.5-10.2c0.9-3,0.8-6.8,0.8-6.8l-5.2-4.4"/>
</svg>
