<?xml version="1.0" encoding="utf-8"?>
<!-- Generator: Adobe Illustrator 21.1.0, SVG Export Plug-In . SVG Version: 6.00 Build 0)  -->
<svg version="1.1" xmlns="http://www.w3.org/2000/svg" xmlns:xlink="http://www.w3.org/1999/xlink" x="0px" y="0px"
	 viewBox="0 0 1025.5 370" style="enable-background:new 0 0 1025.5 370;" xml:space="preserve">
<style type="text/css">
	.st0{fill:#564A70;}
	.st1{fill:#36223D;}
	.st2{fill:#65778C;}
	.st3{fill:#8DC6CF;}
	.st4{fill:#BFE7F3;}
	.st5{fill:#D6D6D6;}
	.st6{fill:#FFFFFF;}
	.st7{fill:#3A2121;}
	.st8{fill:#6D4A49;}
	.st9{fill:#8A6564;}
	.st10{fill:#CE8E8E;}
	.st11{fill:#F1C0BF;}
	.st12{fill:#8DC6CF;stroke:#8DC6CF;stroke-miterlimit:10;}
	.st13{fill:none;stroke:#8DC6CF;stroke-width:3;stroke-miterlimit:10;}
	.st14{fill:#CE8E8D;}
	.st15{fill:none;stroke:#564A70;stroke-miterlimit:10;}
</style>
<g id="Layer_1">
</g>
<g id="Layer_2">
	<g>
		<g>
			<rect x="335.2" y="170.7" class="st0" width="132" height="199.2"/>
			<polyline class="st2" points="184.6,205.2 208.8,205.2 208.8,119.3 280.8,119.3 280.8,370 303.3,370 303.3,83.4 372.3,83.4 
				372.3,371.7 434.1,371 434.1,269.6 501.1,269.6 501.1,370 184.6,370.7 			"/>
			<rect x="244.8" y="158.7" class="st0" width="84" height="211.3"/>
			<polygon class="st0" points="802,371.9 802,17.9 898,17.9 898,371.7 			"/>
			<polyline class="st0" points="487.3,370 487.3,141.3 563.1,141.3 563.1,371.7 592.6,371.7 592.6,205.2 727.8,205.2 727.8,370.1 
							"/>
			<polygon class="st3" points="662.2,370 662.2,131.7 744.3,131.7 744.3,370.1 			"/>
			<polygon class="st0" points="26.6,370.7 26.6,16.7 122.6,16.7 122.6,370.5 			"/>
			<polyline class="st0" points="766.8,370 766.8,110.8 829.8,110.8 829.8,370 873.2,370 873.2,145.7 930.2,145.7 930.2,188.5 
				966.4,188.5 966.4,145.7 1017.2,145.7 1017.2,370 873.2,370 			"/>
			<polygon class="st2" points="682.9,370.1 682.9,235.1 1025.5,235.1 1025.5,370 			"/>
			<polygon class="st3" points="87.1,371 87.1,335.1 211.8,335.1 211.8,284.3 264.3,284.3 264.3,335.1 313.8,335.1 313.8,284.3 
				364.8,284.3 364.8,336.6 434.1,336.6 434.1,371 			"/>
			<polygon class="st2" points="0,258 50.1,258 50.1,194.9 126.1,194.9 126.1,371.7 0,371.7 			"/>
			<rect x="87.1" y="99.5" class="st4" width="97.5" height="271.2"/>
			<polygon class="st4" points="542.8,370 542.8,235.1 639.5,235.1 639.5,370.1 698.9,370.1 698.9,284.3 773.8,284.3 773.8,370 
				836.8,370 866.2,370 866.2,185.6 916.2,185.6 916.2,370 			"/>
			<rect x="955.7" y="116.9" class="st3" width="69.8" height="253"/>
			<rect x="126.7" y="111.7" class="st0" width="14.2" height="14.2"/>
			<rect x="99.9" y="111.7" class="st0" width="14.2" height="14.2"/>
			<rect x="155.5" y="112.2" class="st0" width="14.2" height="14.2"/>
			<rect x="126.7" y="141.3" class="st0" width="14.2" height="14.2"/>
			<rect x="99.9" y="141.3" class="st0" width="14.2" height="14.2"/>
			<rect x="155.5" y="141.8" class="st0" width="14.2" height="14.2"/>
			<rect x="127.5" y="168" class="st0" width="14.2" height="14.2"/>
			<rect x="100.7" y="168" class="st0" width="14.2" height="14.2"/>
			<rect x="156.3" y="168.5" class="st0" width="14.2" height="14.2"/>
			<rect x="127.5" y="197.6" class="st0" width="14.2" height="14.2"/>
			<rect x="100.7" y="197.6" class="st0" width="14.2" height="14.2"/>
			<rect x="156.3" y="198.1" class="st0" width="14.2" height="14.2"/>
			<rect x="127.5" y="223" class="st0" width="14.2" height="14.2"/>
			<rect x="100.7" y="223" class="st0" width="14.2" height="14.2"/>
			<rect x="156.3" y="223.6" class="st0" width="14.2" height="14.2"/>
			<rect x="127.5" y="252.6" class="st0" width="14.2" height="14.2"/>
			<rect x="100.7" y="252.6" class="st0" width="14.2" height="14.2"/>
			<rect x="156.3" y="253.1" class="st0" width="14.2" height="14.2"/>
			<rect x="128.3" y="279.3" class="st0" width="14.2" height="14.2"/>
			<rect x="101.5" y="279.3" class="st0" width="14.2" height="14.2"/>
			<rect x="157.1" y="279.9" class="st0" width="14.2" height="14.2"/>
			<rect x="128.3" y="308.9" class="st0" width="14.2" height="14.2"/>
			<rect x="101.5" y="308.9" class="st0" width="14.2" height="14.2"/>
			<rect x="157.1" y="309.5" class="st0" width="14.2" height="14.2"/>
			<rect x="278.3" y="169.3" class="st4" width="14.2" height="14.2"/>
			<rect x="251.5" y="169.3" class="st4" width="14.2" height="14.2"/>
			<rect x="307.1" y="169.8" class="st4" width="14.2" height="14.2"/>
			<rect x="278.3" y="198.9" class="st4" width="14.2" height="14.2"/>
			<rect x="251.5" y="198.9" class="st4" width="14.2" height="14.2"/>
			<rect x="307.1" y="199.4" class="st4" width="14.2" height="14.2"/>
			<rect x="279.1" y="225.6" class="st4" width="14.2" height="14.2"/>
			<rect x="252.3" y="225.6" class="st4" width="14.2" height="14.2"/>
			<rect x="307.9" y="226.1" class="st4" width="14.2" height="14.2"/>
			<rect x="279.1" y="255.2" class="st4" width="14.2" height="14.2"/>
			<rect x="252.3" y="255.2" class="st4" width="14.2" height="14.2"/>
			<rect x="307.9" y="255.7" class="st4" width="14.2" height="14.2"/>
			<rect x="582.5" y="249.3" class="st0" width="14.2" height="14.2"/>
			<rect x="555.7" y="249.3" class="st0" width="14.2" height="14.2"/>
			<rect x="611.3" y="249.9" class="st0" width="14.2" height="14.2"/>
			<rect x="582.5" y="278.9" class="st0" width="14.2" height="14.2"/>
			<rect x="555.7" y="278.9" class="st0" width="14.2" height="14.2"/>
			<rect x="611.3" y="279.4" class="st0" width="14.2" height="14.2"/>
			<rect x="583.3" y="305.6" class="st0" width="14.2" height="14.2"/>
			<rect x="556.5" y="305.6" class="st0" width="14.2" height="14.2"/>
			<rect x="612.1" y="306.2" class="st0" width="14.2" height="14.2"/>
			<rect x="583.3" y="335.2" class="st0" width="14.2" height="14.2"/>
			<rect x="556.5" y="335.2" class="st0" width="14.2" height="14.2"/>
			<rect x="612.1" y="335.7" class="st0" width="14.2" height="14.2"/>
			<rect x="841.5" y="33.1" class="st4" width="14.2" height="14.2"/>
			<rect x="814.7" y="33.1" class="st4" width="14.2" height="14.2"/>
			<rect x="870.3" y="33.6" class="st4" width="14.2" height="14.2"/>
			<rect x="841.5" y="62.7" class="st4" width="14.2" height="14.2"/>
			<rect x="814.7" y="62.7" class="st4" width="14.2" height="14.2"/>
			<rect x="870.3" y="63.2" class="st4" width="14.2" height="14.2"/>
			<rect x="842.3" y="89.4" class="st4" width="14.2" height="14.2"/>
			<rect x="815.5" y="89.4" class="st4" width="14.2" height="14.2"/>
			<rect x="871.1" y="89.9" class="st4" width="14.2" height="14.2"/>
			<rect x="842.3" y="119" class="st4" width="14.2" height="14.2"/>
			<rect x="815.5" y="119" class="st4" width="14.2" height="14.2"/>
			<rect x="871.1" y="119.5" class="st4" width="14.2" height="14.2"/>
		</g>
	</g>
</g>
<g id="Layer_3">
</g>
</svg>
