<?xml version="1.0" encoding="utf-8"?>
<!-- Generator: Adobe Illustrator 21.1.0, SVG Export Plug-In . SVG Version: 6.00 Build 0)  -->
<svg version="1.1" xmlns="http://www.w3.org/2000/svg" xmlns:xlink="http://www.w3.org/1999/xlink" x="0px" y="0px"
	 viewBox="0 0 333 504.4" style="enable-background:new 0 0 333 504.4;" xml:space="preserve">
<style type="text/css">
	.st0{fill:#564A70;}
	.st1{fill:#36223D;}
	.st2{fill:#65778C;}
	.st3{fill:#8DC6CF;}
	.st4{fill:#BFE7F3;}
	.st5{fill:#D6D6D6;}
	.st6{fill:#FFFFFF;}
	.st7{fill:#3A2121;}
	.st8{fill:#6D4A49;}
	.st9{fill:#8A6564;}
	.st10{fill:#CE8E8E;}
	.st11{fill:#F1C0BF;}
	.st12{fill:#8DC6CF;stroke:#8DC6CF;stroke-miterlimit:10;}
	.st13{fill:none;stroke:#8DC6CF;stroke-width:3;stroke-miterlimit:10;}
	.st14{fill:#CE8E8D;}
	.st15{fill:none;stroke:#564A70;stroke-miterlimit:10;}
</style>
<g id="Layer_1">
</g>
<g id="Layer_2">
	<g>
		<g>
			<path class="st3" d="M168.3,323.9c0,0-18.1-9.2-25.5,5.4c-7.4,14.6,6.8,44,17.9,51.5c11.1,7.6,26.5,7.8,26.5,7.8
				s27.9-19.9,22.5-25.3C204.3,358,168.3,323.9,168.3,323.9z"/>
			<path class="st4" d="M233.3,249.2c0,0-24.1,17.8-31.7,17.1s-11.4-8.5-11.4-8.5s-2.7,15.6-1,20.7c1.6,5.1,5.7,19.7,5.1,24.3
				c-0.6,4.6-3.4,20.1-3.4,20.1s-1.2,3.2-4.7,3.1s-7.1,0-7.1,0s-3.9,27.2,9.5,37.9c13.4,10.7,20.7,14.7,25.2,12.9
				s26.7-31.3,23.3-45.9S233.3,249.2,233.3,249.2z"/>
			<path class="st3" d="M184.1,228.6c0,0-11.8,14.7-16.6,18.7c-4.8,4.1-2.6,59.5,3.5,71.5c6.1,12,17.2,10,19.9,6
				c2.7-4,4.8-48,10.7-56.5S184.1,228.6,184.1,228.6z"/>
			<path class="st3" d="M235.9,242.3c0,0,11,30.7,13.6,35.5s-5.7,50.8-12.5,55.1c-6.8,4.3-14,0.5-14-5.4c0-5.8-2.2-33-0.4-34.5
				C224.4,291.4,235.9,242.3,235.9,242.3z"/>
			<path class="st2" d="M240.1,301c0,0,2.3,17,1.9,21.8s5.8-24,2.8-29.2"/>
			<g>
				<path class="st3" d="M225.7,451c0,0-1.6,3.8,0.6,5.2c2.2,1.4,31.1,9,32.5,6.9c1.4-2.1-6.8-9.5-13.8-11.6
					C238,449.4,225,445.8,225.7,451z"/>
				<path class="st3" d="M199.8,395.1c0,0-6,4-4.5,8.9c1.6,4.9,33.5,53.3,37.6,51.9s0.4-23.4-7-35.6S204.3,386.2,199.8,395.1z"/>
				<g>
					<path class="st2" d="M253.6,456.8c0,0,6.5,4,6.3,6.6s-2.1,7.2-3.3,7.2c-1.2,0-7.2,0.7-6.6-8.4S253.6,456.8,253.6,456.8z"/>
					<path class="st3" d="M233.8,453.3c0,0,11.6-4.6,15.9-0.4s5.3,7.9,2.7,10.7c-2.6,2.8-9.1,4.1-11.2,2.3c-2.1-1.8-7.2-5.3-7.1-7.6
						C234.2,456,233.8,453.3,233.8,453.3z"/>
					<path class="st3" d="M252.7,456.6c0,0,6.5,4,6.3,6.6c-0.2,2.6-2.1,7.2-3.3,7.2c-1.2,0-7.2,0.7-6.6-8.4
						C249.7,453,252.7,456.6,252.7,456.6z"/>
					<path class="st2" d="M250.9,459.7c0,0,4.9,5.4,3.8,8.4c-1,3-4.4,8.2-5.5,8.1c-1.1-0.1-7.1-0.1-3.5-10.6
						C249.3,455.1,250.9,459.7,250.9,459.7z"/>
					<path class="st3" d="M249.8,459.4c0,0,4.9,5.4,3.8,8.4c-1,3-4.4,8.2-5.5,8.1c-1.1-0.1-7.1-0.1-3.5-10.6
						S249.8,459.4,249.8,459.4z"/>
					<path class="st2" d="M242,457.1c0,0,6.5,4,6.3,6.6c-0.2,2.6-2.1,7.2-3.3,7.2c-1.2,0-7.2,0.7-6.6-8.4S242,457.1,242,457.1z"/>
					<path class="st3" d="M240.6,456.5c0,0,6.9,4.4,6.7,7.4c-0.2,3-2.4,8.2-3.7,8.2c-1.3,0-7.8,0.9-7-9.4
						C237.5,452.4,240.6,456.5,240.6,456.5z"/>
				</g>
			</g>
			<path class="st3" d="M224.4,353c0,0,36.3,9.1,28.6,35.2c-7.7,26.1-23.7,40.2-31.7,40.8c-8,0.7-33.5-27.9-21.2-49.9
				C212.6,357.1,224.4,353,224.4,353z"/>
			<path class="st2" d="M231.1,355.3l-33.9,41.1c0,0,4.9,3.6,7.5,3.6C207.4,399.9,230.9,378.8,231.1,355.3z"/>
			<path class="st3" d="M194.7,202c0,0-8.7,26.6-13.2,30.6s6.8,39.7,16.8,39.3s36.8-16.4,38.2-23.9s-4.7-27.6-3-32.2
				S194.7,202,194.7,202z"/>
			<path class="st4" d="M203.2,271c0,0-7.9,3.1-17.3-13.3s9.7,26.9,9.7,26.9L203.2,271z"/>
			<g>
				<path class="st0" d="M158.4,58.1l0.6,232.7c0,0,8.3,18.3,21.7,17.6s22.9-13.4,25.1-24.1c2.2-10.7-6.7-11.3-9.5-6
					c-2.8,5.3-7.9,16.7-13.7,17.4s-14-9.3-14-9.3L168,58L158.4,58.1z"/>
				<path class="st2" d="M163,130.2c0,0-1.2,155.2,0.4,157.8s5.2-1.7,5.2-1.7l-0.3-166.3l-7.2,0L163,130.2z"/>
			</g>
			<path class="st3" d="M23.1,141c0,0,17.4-89.9,137.8-101.1c0,0-67.7,30.8-80.3,106C80.6,145.9,57.1,108.8,23.1,141z"/>
			<g>
				<g id="XMLID_10_">
					<g>
						<path class="st3" d="M271.1,204.5c0.4,1.4-2.7,10.3-2.7,10.3s-2.1,0.1-2.9-0.8c-0.4-0.4-0.6-4.4-0.8-8c0-0.3,0-0.6,0-0.9
							c0,0,0,0,0,0c0-0.9-0.1-1.7-0.1-2.4c0-1.3-0.1-2.2-0.1-2.4c-0.1-0.3-0.1-0.7-0.3-1C264.2,199.4,270.9,203.7,271.1,204.5z"/>
						<path class="st2" d="M264.7,206.1l-0.3,0c0,0-7.9,9.7-13.7,11c1-2-0.2-12.8-0.5-16.6c-0.1-1.7-1.1-3.1-2.4-4.4
							c0,0,0.4-3.9,2-4.2c1.6-0.3,6.6-0.1,8.1,1.7c1.5,1.8,4.6,5.7,4.9,7c0.3,1.3,1.6,4.4,1.7,4.6c0,0,0,0,0,0
							C264.7,205.5,264.7,205.8,264.7,206.1z"/>
						<path class="st3" d="M264.6,202.8c0,0.7,0.1,1.5,0.1,2.4c-0.1-0.2-1.4-3.3-1.7-4.6c-0.3-1.3-3.4-5.2-4.9-7
							c-1.5-1.8-6.5-2-8.1-1.7c-1.6,0.3-2,4.2-2,4.2c-1.7-1.6-4-3.1-5.9-4.6c0,0,5.4-4.5,7.7-3.5c2.3,1,8.4,0.9,10.7,3.8
							c0.3,0.3,0.5,0.7,0.8,1c0.9,1.3,1.6,2.8,2.1,4.1c0.3,0.9,0.6,1.8,0.8,2.5c0.1,0.4,0.2,0.7,0.3,1
							C264.5,200.6,264.6,201.5,264.6,202.8z"/>
						<path class="st3" d="M249.4,223.4c-0.9,3.6-2.3,6.9-2.3,6.9s-5.4,7.5-7.1,9c2.1-2.1,3.5-4.9,3.2-7.2
							c-0.6-3.9-6.1-8.5-10.3-8.3c-4.2,0.2-5-10.5-5-10.5s-2.4-2.7-4.2-4.8c-1.7-2.1,6.1-12.4,5.9-14.5c-0.3-2.2,4.8-6.3,4.8-6.3
							s4.3,0.9,7.8,3.7c1.9,1.6,4.2,3,5.9,4.6c1.3,1.3,2.3,2.7,2.4,4.4c0.3,3.8,1.4,14.5,0.5,16.6
							C249.8,219.1,250.3,219.8,249.4,223.4z M246.1,210.8c0,0-0.6-0.5-1.2-1.7c-0.7-1.1-2.5-3.5-4.8-4.2c-2.3-0.7-6.7,2.5-6.7,2.5
							s0.6,0.8,1.5,3c0.8,2.2,5,2.8,7.5,3.3C243.3,214,246.1,210.8,246.1,210.8z"/>
						<path class="st4" d="M209.8,182.7c6.2-1.9,12.3-2.2,13.7-1.7c2.4,0.8,10.8,6.8,10.8,6.8s-5,4.1-4.8,6.3
							c0.3,2.2-7.6,12.4-5.9,14.5c1.7,2.1,4.2,4.8,4.2,4.8s0.8,10.6,5,10.5c4.2-0.2,9.7,4.4,10.3,8.3c0.4,2.3-1,5-3.2,7.2
							c-1.6,1.6-3.5,2.8-5.4,3.3c-4.5,1.1-22,10.1-25.3,12.4c-3.3,2.3-10-0.8-10-0.8s-6.7-2.4-7.3-5.5s-2.9-11.4-3-13.3
							c-0.1-1.9-3-15.8-3-15.8s0.6-17.5,2.1-20.1c1.6-2,1.6-2,9.1-8.7C199.6,186.9,204.7,184.3,209.8,182.7z M207.4,253.1
							c0,0,49.9-23.6,24.3-15.5c-14.8,4.7-22.5-8.8-22.5-8.8c-2.3,0.2-9.6-1.7-13.1-3.4c-3.4-1.7-5.5-9.1-5.6-9.6c0,0,0,0,0,0
							s0.5-7.2-1.7-5.9c-0.6,0.3-0.7,2.5-0.5,5.9c0.4,6.3,1.8,16.4,3.1,25.3C193.2,254.6,207.4,253.1,207.4,253.1z M221.6,224.1
							c0.9-0.8,2-4.3,1.5-5.7c-0.5-1.4-1.6-3.3-2.8-4.3s-3.6-1.8-3.6-1.8s-3.3-3.4-5.1-3c-1.8,0.4-5.4,1.5-5.9,2.6
							c-0.5,1.1-2.7,7-0.8,8.7s3.6,4.7,5.3,4.3c1.8-0.4,0.3,0.2,2.9,0.9C215.7,226.7,220.8,224.9,221.6,224.1z M212.6,199.2
							c0.9-0.1,1.4-1.8,1.5-3c0.1-1.2-1.5-4.4-1.5-4.4s-2.9-1.7-3.9-1c-1,0.6-5.6,2.1-5.6,2.1s1,1.4,2.2,3.6
							C206.5,198.6,211.8,199.3,212.6,199.2z"/>
						<path class="st0" d="M244.9,209.1c0.7,1.1,1.2,1.7,1.2,1.7c0,0-2.8,3.2-3.7,3c-2.6-0.5-6.7-1.1-7.5-3.3c-0.8-2.2-1.5-3-1.5-3
							s4.4-3.2,6.7-2.5C242.4,205.6,244.2,208,244.9,209.1z"/>
						<path class="st0" d="M231.7,237.5c25.6-8.1-24.3,15.5-24.3,15.5s-14.1,1.5-16-12.1c-1.2-8.9-2.7-19.1-3.1-25.3l2.2,0.1
							c0.1,0.5,2.2,7.9,5.6,9.6c3.5,1.7,10.7,3.6,13.1,3.4C209.2,228.7,216.9,242.2,231.7,237.5z"/>
						<path class="st2" d="M223.1,218.4c0.5,1.4-0.6,4.8-1.5,5.7s-5.9,2.6-8.6,1.9c-2.7-0.7-1.2-1.3-2.9-0.9
							c-1.8,0.4-3.5-2.6-5.3-4.3s0.3-7.6,0.8-8.7c0.5-1.1,4.1-2.3,5.9-2.6c1.8-0.4,5.1,3,5.1,3s2.4,0.8,3.6,1.8
							S222.6,217,223.1,218.4z"/>
						<path class="st3" d="M225.7,172c0.4,0.9-2.2,9-2.2,9c-1.3-0.5-7.5-0.1-13.7,1.7c0.3-0.2,4.6-3.3,6.9-3.5
							c2.3-0.2,5.8-4.5,6.5-6.4c0.7-1.9-3.7-9.1-4.7-10.8c-1-1.7-6.2-2.7-7.5-3c-0.3-0.1-2.1,0.5-4.1,1c-1.9,0.5-3.9,0.8-4.3,0.4
							c-1.4-1.4,3.2-3.3,4.7-4.4s7.3,1.7,9.7,2.5C219.5,159.3,225.3,171,225.7,172z"/>
						<path class="st2" d="M218.5,162c1,1.7,5.4,8.9,4.7,10.8c-0.7,1.9-4.2,6.2-6.5,6.4c-2.2,0.2-6.6,3.3-6.9,3.5
							c-5.1,1.6-10.2,4.2-12.6,8.3c0,0,0.6-3-0.2-5.5c-0.8-2.5,0.4-8.7,3.1-11.9c2.7-3.2,4.7-13.1,6.9-13.7c1.9-0.5,3.8-1,4.1-1
							C212.3,159.3,217.4,160.2,218.5,162z"/>
						<path class="st0" d="M214.1,196.2c-0.1,1.2-0.6,2.9-1.5,3c-0.9,0.1-6.2-0.6-7.3-2.8c-1.2-2.1-2.2-3.6-2.2-3.6s4.6-1.5,5.6-2.1
							c1-0.7,3.9,1,3.9,1S214.1,195,214.1,196.2z"/>
						<path class="st0" d="M190.5,215.7C190.5,215.7,190.5,215.7,190.5,215.7l-2.2-0.1c-0.2-3.3-0.1-5.6,0.5-5.9
							C191,208.5,190.5,215.7,190.5,215.7z"/>
					</g>
				</g>
				<ellipse transform="matrix(0.253 -0.9675 0.9675 0.253 -31.8585 350.3152)" class="st12" cx="210.9" cy="195.8" rx="3" ry="3"/>
				
					<ellipse transform="matrix(0.253 -0.9675 0.9675 0.253 -31.3099 350.4385)" class="st0" cx="211.3" cy="195.5" rx="2.7" ry="2.7"/>
				
					<ellipse transform="matrix(0.6063 -0.7952 0.7952 0.6063 -72.1687 242.8624)" class="st4" cx="209.2" cy="194.3" rx="0.7" ry="0.7"/>
				<ellipse transform="matrix(0.253 -0.9675 0.9675 0.253 -24.2167 385.614)" class="st12" cx="237.6" cy="208.5" rx="3" ry="3"/>
				
					<ellipse transform="matrix(0.253 -0.9675 0.9675 0.253 -23.9247 385.1335)" class="st0" cx="237.4" cy="208.1" rx="2.7" ry="2.7"/>
				
					<ellipse transform="matrix(0.9902 -0.1395 0.1395 0.9902 -26.6743 35.4817)" class="st4" cx="239.8" cy="208" rx="0.7" ry="0.7"/>
				<path class="st2" d="M189.4,209.5c0,0,0.1,5.4,0.4,7s3,8.2,3.1,9.4c0.1,1.2,0.6,9.4,0.6,9.4s0.4,5.5,1.6,6.2s5,8.1,8.5,7.8
					c3.4-0.3,14-4.5,14.4-4.8c0.4-0.2,6.5-3.3,7.3-3.6c0.8-0.3,7.3-3.3,8.2-3.6c0.9-0.3,4.4-1.6,5.4-1.3c1.1,0.4-6.3,4.2-10.1,6.1
					c-3.8,2-12.5,6.7-13.3,7.4c-0.8,0.8-11,4.7-12.6,4.3c-1.6-0.4-11-4.5-11.4-12.9c-1.9-8.4-0.6-8.9-2.3-13.5c0,0-1.3-6.5-1-8.3
					s-0.3-5.4-0.4-6.7c-0.1-1.3-0.1-3,0.3-3.4C188.6,208.7,189.4,209.5,189.4,209.5z"/>
				<path class="st3" d="M205.2,228.8c0,0-4,0.4-4.3,2c-0.3,1.5-0.3,2.9-0.9,4.4c-0.6,1.5-4.8-0.2-5.5,3.5c-0.7,3.6-0.5,13.5,9,15.4
					s11.9-1.2,12.2-2.7s-0.5-6.4,0-8.2c0.5-1.8,6.1-5,3.3-6.1c-3-0.9-8.5-5.8-9.6-8.5"/>
				<path class="st0" d="M222.7,222.1c0,0-0.6,3.9-5.6,1.9c-5.1-2-0.1-5.3,0.6-4.7c0.7,0.6,0.7,1.4,0.1,2.5s0.1,2.4,2.4,1.8
					C222.4,223,222.7,222.1,222.7,222.1z"/>
				<path class="st0" d="M205.2,213.5c0,0-0.3,4.1,1.8,4.6c2.1,0.5,2.1-0.9,2.9-1.5s2.1,0.5,1.8,1.5c-0.3,0.9-0.7,2.5-2.4,1.9
					S203.5,218.2,205.2,213.5z"/>
				<path class="st0" d="M220.3,215c0,0-4.2-1.4-5.4-1.2c-1.2,0.2-3.1,0.9-4,0s-1.4-2.1-2.5-1.7c-1.2,0.4,0-2,2.9-1.8
					c2.9,0.2,4,2.6,5.1,3S220.3,215,220.3,215z"/>
				<path class="st0" d="M213.6,219.1c0,0-1.2,0.4-1.4,1.8c-0.2,1.4-1.6,3.6-1.1,4c0.5,0.5,2.2,1,2.6,0.9s-0.5-1.8-0.7-2.6
					s0.2-2.9,0.4-3.5C213.6,219.1,213.6,219.1,213.6,219.1z"/>
				<path class="st2" d="M209.2,228.6c0,0-0.6,1.5-1.6,2.1c-1,0.6-2,3.4-1.8,4.1c0.1,0.7,0.3,3.5,0.1,4.2c-0.2,0.8-2.1,3.3-2.2,4.4
					c-0.2,1,0,3,0.3,3.6c0.3,0.6,0.6-0.3,0.6-0.3s-0.5-2.7-0.2-3.1c0.3-0.4,2.1-3.4,2.4-4c0.3-0.5,0.5-3.1,0.4-3.9
					c-0.1-0.8,0.5-2.9,0.8-3.3c0.3-0.4,1.7-1.3,1.8-1.4c0-0.2,0.6-0.7,0.6-0.7S209.2,229.2,209.2,228.6z"/>
				<path class="st0" d="M201.5,195.1c0,0,0.9,4.3,2.3,4.9s6.9,2.6,7.8,2s1.4-0.2,0.8,0.3s-2.7,0.3-4.4-0.4s-5.4-1.5-5.8-2.3
					s-1-3.8-0.9-4.1C201.5,195.1,201.5,195.1,201.5,195.1z"/>
				<path class="st0" d="M233.2,234.9c0,0,5.3-1.8,6.9-1.1c1.5,0.7,2.3,2.2,1.6,3.2c-0.7,1,2.1-1.1,0.8-2.6
					c-1.3-1.5-2.9-1.3-4.4-1.2C236.5,233.4,233.2,234.9,233.2,234.9z"/>
				<path class="st0" d="M186.6,208.1c0,0,1.2-2.4,2.5-1.8c1.3,0.6,2.9,5,3,5.9c0.1,1,0,2.5,0,2.5s0.8-3.2,0.5-4.3s-1.9-4.5-2.6-4.7
					c-0.7-0.2-3.2,0.6-3.3,1.1C186.7,207.4,186.6,208.1,186.6,208.1z"/>
			</g>
			<path class="st2" d="M138.1,145.5c0,0,12.7-90.1,28.3-105.6c0,0-1.5-0.1-7.6,0.4c-6,0.5-70,39.2-77.8,105.6
				c0,0,10.4-14.3,28.2-16.2C126.9,127.8,138.1,145.5,138.1,145.5z"/>
			<path class="st4" d="M172.1,39.9c10,12.5,25.4,107.1,25.4,107.1c-27.6-38.3-59.4-1.5-59.4-1.5c9.2-90.3,28.3-105.6,28.3-105.6"/>
			<path class="st2" d="M197.5,147c0,0,26.9-36.2,59.2-0.4c0,0-19.5-87-75.2-106.1l-9.8-1.8C171.6,38.8,189.9,88.7,197.5,147z"/>
			<path class="st3" d="M169.6,38.8c0,0,111.6-8.6,147.1,109.3c0,0-30.4-37.8-60-1.5C256.7,146.6,237.9,54.6,169.6,38.8z"/>
			<path class="st0" d="M158.2,40.4c0,0,7.3-14.6,8.9-13.8c1.6,0.8,8.2,13.8,8.2,13.8S165.3,44.2,158.2,40.4z"/>
			<path class="st4" d="M174.2,279.7c0,0-4.9,2.9-4.9,3.5s-2.1,5.5-1.7,7.4s1.3,6,3.3,6.6c2,0.6,5.2,0.1,5.6,0s3.3-13,2.2-14.8
				C177.6,280.7,174.2,279.7,174.2,279.7z"/>
			<path class="st4" d="M184.2,283.3c0,0,3.2-2.8,4.9-2.8c1.6,0,6.1,2.9,6.6,4.1s0.6,8.2,0,9.4s-5.5,3.1-6.5,2.5
				c-1-0.6-3.9-0.6-3.9-2.1S184.2,283.3,184.2,283.3z"/>
			<path class="st3" d="M179.7,280.6c0,0-4.5,2.5-4.5,4c0,1.5-2,9.9-0.7,11.3c1.3,1.4,1.3,3.5,3.8,4.9s6.9-0.6,7.7-1.6
				c0.9-1,1.7-11.9,0.6-13.9c-1.1-2-2.3-5-3-4.6S179.7,280.6,179.7,280.6z"/>
			<path class="st4" d="M179.9,280.1c0,0-3.9,2.6-3.9,4.1c0,1.5-1.7,10.1-0.6,11.5c1.1,1.4,1.1,3.6,3.3,5c2.2,1.4,6-0.7,6.8-1.7
				c0.8-1,1.5-12.1,0.5-14.2c-1-2-1.9-4.7-2.6-4.7C182.5,280.1,179.9,280.1,179.9,280.1z"/>
			<path class="st2" d="M188.9,294.8c0,0,2.7-0.5,3.5,0s-1,4.1-1.4,4.3S189.2,297.2,188.9,294.8z"/>
			<path class="st2" d="M179,298.5c0,0,2.7-0.5,3.5,0s-1,4.1-1.4,4.3C180.7,303.1,179.3,300.9,179,298.5z"/>
			<path class="st2" d="M170.9,296.7c0,0,2.7-0.5,3.5,0s-1,4.1-1.4,4.3S171.2,299,170.9,296.7z"/>
			<path class="st3" d="M130,349.6c0,0,50.4,35.5,48.1,42.7c-2.3,7.2-14.1,10.1-26.4-0.1c-12.4-10.2-46.7-46.7-41.3-49.4
				S130,349.6,130,349.6z"/>
			<g>
				<path class="st2" d="M104.5,340.8c0,0-7.6-0.5-9,1.8c-1.4,2.3-2.5,7.1-1.5,7.8c1,0.7,5.5,4.7,10.2-3.1S104.5,340.8,104.5,340.8z
					"/>
				<path class="st3" d="M122.7,349.3c0,0-6.8-10.4-12.8-9.5c-6,0.9-8.9,3.4-8.4,7.2c0.5,3.7,5,8.6,7.8,8.3s9-0.2,10.2-2.1
					C120.8,351.3,122.7,349.3,122.7,349.3z"/>
				<path class="st3" d="M105.4,341.1c0,0-7.6-0.5-9,1.8c-1.4,2.3-2.5,7.1-1.5,7.8c1,0.7,5.5,4.7,10.2-3.1
					C109.9,339.9,105.4,341.1,105.4,341.1z"/>
				<path class="st2" d="M105,344.6c0,0-7.1,1.6-8,4.7c-0.9,3.1-1.2,9.2-0.2,9.7c1,0.5,5.8,4,9-6.6S105,344.6,105,344.6z"/>
				<path class="st3" d="M106.1,345c0,0-7.1,1.6-8,4.7c-0.9,3.1-1.2,9.2-0.2,9.7c1,0.5,5.8,4,9-6.6S106.1,345,106.1,345z"/>
				<path class="st2" d="M113.8,347.7c0,0-7.6-0.5-9,1.8c-1.4,2.3-2.5,7.1-1.5,7.8c1,0.7,5.5,4.7,10.2-3.1S113.8,347.7,113.8,347.7z
					"/>
				<path class="st3" d="M115.3,348c0,0-8.2-0.4-9.7,2.2s-2.8,8.1-1.8,8.8c1,0.7,5.9,5.2,11.1-3.7C120.2,346.5,115.3,348,115.3,348z
					"/>
			</g>
			<path class="st3" d="M174.9,396.7c0,0,13.6-7.5,16.7-9.8c3.1-2.3-22-13.4-22-13.4L174.9,396.7z"/>
			<path class="st4" d="M178.6,339.9c0,0-3.9,43.3,16.9,55.6c20.8,12.3,40.1-53.6,40.1-53.6L178.6,339.9z"/>
			<path class="st2" d="M106.5,358.8c0,0,3-0.4,3.3,0.1c0.2,0.5-1.1,3.1-1.6,3.4C107.7,362.6,106.5,358.8,106.5,358.8z"/>
			<path class="st2" d="M98.1,362c-0.6,0.1,0-3.9,0-3.9s2.9,1,2.9,1.5"/>
			<path class="st2" d="M92.7,351.7c-0.6-0.2,1.8-3.4,1.8-3.4s2.2,2.2,1.9,2.7"/>
			<path class="st2" d="M240.5,473.6c-0.5,0.3-1.7-3.5-1.7-3.5s3-0.4,3.3,0.1"/>
			<path class="st2" d="M245.2,477.4c-0.6,0.1-0.3-3.9-0.3-3.9s3,0.7,3,1.2"/>
			<path class="st2" d="M257.7,472.1c-0.4,0.5-2.7-2.7-2.7-2.7s2.7-1.4,3.1-1"/>
			<path class="st2" d="M159.2,375.4c0,0-17.3-10.3-18.4-39C140.8,336.5,151.1,368.8,159.2,375.4z"/>
			<path class="st2" d="M178.6,336.4c0,0-7.5,25-5.6,35.7s10,20.1,10,20.1l4.3-3.5C187.3,388.7,174.6,374.2,178.6,336.4z"/>
			<g>
				<path class="st2" d="M230.9,315.9L230.9,315.9c-0.7,0.2-1.4-0.2-1.6-0.9l-3.2-11.7c-0.2-0.7,0.2-1.4,0.9-1.6l0,0
					c0.7-0.2,1.4,0.2,1.6,0.9l3.2,11.7C232.1,315,231.6,315.7,230.9,315.9z"/>
				<path class="st2" d="M251.2,310.3L251.2,310.3c-0.7,0.2-1.4-0.2-1.6-0.9l-3.2-11.7c-0.2-0.7,0.2-1.4,0.9-1.6l0,0
					c0.7-0.2,1.4,0.2,1.6,0.9l3.2,11.7C252.4,309.4,251.9,310.1,251.2,310.3z"/>
				<path class="st2" d="M230.9,315.9L230.9,315.9c-0.7,0.2-1.4-0.2-1.6-0.9l-3.2-11.7c-0.2-0.7,0.2-1.4,0.9-1.6l0,0
					c0.7-0.2,1.4,0.2,1.6,0.9l3.2,11.7C232.1,315,231.6,315.7,230.9,315.9z"/>
				<path class="st2" d="M226.1,303.3L226.1,303.3c-0.2-0.7,0.2-1.4,0.9-1.6l20.3-5.6c0.7-0.2,1.4,0.2,1.6,0.9h0
					c0.2,0.7-0.2,1.4-0.9,1.6l-20.3,5.6C227,304.4,226.3,304,226.1,303.3z"/>
				<path class="st2" d="M289.5,354.1l-69,19c-2.7,0.8-5.6-0.9-6.3-3.6L202,325.3c-0.8-2.7,0.9-5.6,3.6-6.3l69-19
					c2.7-0.8,5.6,0.9,6.3,3.6l12.2,44.2C293.9,350.5,292.3,353.3,289.5,354.1z"/>
				<polygon class="st3" points="255.9,309 275.3,303.7 280,320.7 273.4,305.8 				"/>
			</g>
			<path class="st4" d="M234.5,287.9c0,0,4.1-1.4,5.6-0.7c1.5,0.7,4.5,5,4.5,6.4c0,1.3-2.6,7.9-3.6,8.7c-1,0.8-6.3,0.8-7-0.2
				s-3.3-2.1-2.8-3.4S234.5,287.9,234.5,287.9z"/>
			<path class="st2" d="M234.4,300.3c0,0,2.7,0.5,3.3,1.4c0.6,0.8-2.5,3.4-3,3.5C234.2,305.2,233.7,302.6,234.4,300.3z"/>
			<path class="st3" d="M224.7,280.6c0,0-4.9,0.3-5.4,1.5c-0.5,1.2-5.1,7.2-4.4,8.8c0.7,1.6,0,3.3,1.8,5.3c1.8,2,6.4,2.1,7.5,1.6
				c1.1-0.5,5.5-8.9,5.2-10.9s-0.4-4.9-1.2-4.8C227.4,282.1,224.7,280.6,224.7,280.6z"/>
			<path class="st4" d="M226.6,280.7c0,0-5.6,0.8-5.8,1.4c-0.2,0.6-4.1,4.3-4.4,6.1s-1.1,6.1,0.5,7.4c1.6,1.3,4.8,2.1,5.2,2.1
				c0.4,0,8.1-10.7,7.7-12.8C229.4,282.9,226.6,280.7,226.6,280.7z"/>
			<path class="st3" d="M231.4,283.6c0,0-5.1,0.6-5.7,2c-0.6,1.4-5.6,8.4-5,10.1s-0.2,3.7,1.6,5.9c1.8,2.2,6.6,2.1,7.8,1.5
				s6.2-10.3,5.9-12.6c-0.3-2.3-0.2-5.5-1-5.4C234.1,285.1,231.4,283.6,231.4,283.6z"/>
			<path class="st4" d="M231.8,283.3c0,0-4.6,0.9-5.2,2.3s-5.5,8.7-5,10.4c0.5,1.7-0.4,3.7,1.1,5.9c1.5,2.1,5.8,1.7,6.9,1.1
				s6.1-10.6,5.9-12.9s0.1-5-0.6-5.4C234.2,284.2,231.8,283.3,231.8,283.3z"/>
			<path class="st2" d="M223.8,299.9c0,0,2.7,0.5,3.3,1.4c0.6,0.8-2.5,3.4-3,3.5S223.2,302.2,223.8,299.9z"/>
			<path class="st2" d="M217.1,295c0,0,2.7,0.5,3.3,1.4c0.6,0.8-2.5,3.4-3,3.5S216.4,297.4,217.1,295z"/>
			<g>
				<path class="st0" d="M255.3,202.4l-47.5-23.5c-1.2-0.6-1.7-2-1.1-3.2v0c0.6-1.2,2-1.7,3.2-1.1l47.5,23.5c1.2,0.6,1.7,2,1.1,3.2
					l0,0C258,202.5,256.5,203,255.3,202.4z"/>
				<path class="st0" d="M250.8,194.8c0,0,9.3-15.7-8.9-25.2s-27.6,7.1-27.6,7.1"/>
				<path class="st2" d="M216.3,174.2l35.5,17.6l-1.2,2.8l-36.7-18.1C213.9,176.5,215.8,173.9,216.3,174.2z"/>
				<path class="st3" d="M253.9,188.8l0,1c0,0.4,0.2,0.7,0.5,1l0.9,0.6c0.8,0.5,0.6,1.8-0.3,2.1l-1,0.3c-0.4,0.1-0.6,0.4-0.8,0.8
					l-0.3,1c-0.3,0.9-1.5,1.1-2.1,0.4l-0.6-0.8c-0.2-0.3-0.6-0.5-1-0.5l-1,0c-1,0-1.5-1.1-1-1.9l0.6-0.8c0.2-0.3,0.3-0.7,0.2-1.1
					l-0.3-1c-0.3-0.9,0.5-1.8,1.5-1.5l1,0.3c0.4,0.1,0.8,0.1,1.1-0.2l0.8-0.6C252.8,187.3,253.9,187.9,253.9,188.8z"/>
			</g>
		</g>
	</g>
</g>
<g id="Layer_3">
</g>
</svg>
