<?xml version="1.0" encoding="utf-8"?>
<!-- Generator: Adobe Illustrator 21.1.0, SVG Export Plug-In . SVG Version: 6.00 Build 0)  -->
<svg version="1.1" xmlns="http://www.w3.org/2000/svg" xmlns:xlink="http://www.w3.org/1999/xlink" x="0px" y="0px"
	 viewBox="0 0 166.7 185" style="enable-background:new 0 0 166.7 185;" xml:space="preserve">
<style type="text/css">
	.st0{fill:#564A70;}
	.st1{fill:#36223D;}
	.st2{fill:#65778C;}
	.st3{fill:#8DC6CF;}
	.st4{fill:#BFE7F3;}
	.st5{fill:#D6D6D6;}
	.st6{fill:#FFFFFF;}
	.st7{fill:#3A2121;}
	.st8{fill:#6D4A49;}
	.st9{fill:#8A6564;}
	.st10{fill:#CE8E8E;}
	.st11{fill:#F1C0BF;}
	.st12{fill:#8DC6CF;stroke:#8DC6CF;stroke-miterlimit:10;}
	.st13{fill:none;stroke:#8DC6CF;stroke-width:3;stroke-miterlimit:10;}
	.st14{fill:#CE8E8D;}
	.st15{fill:none;stroke:#564A70;stroke-miterlimit:10;}
</style>
<g id="Layer_1">
</g>
<g id="Layer_2">
	<g>
		<g>
			<path class="st3" d="M27.4,96l10-74.9H133v26.4H68.1l-3.7,29.1c2.7-1.4,6.2-2.7,10.6-3.7c4.4-1.1,8.7-1.6,12.9-1.6
				c16.3,0,28.7,4.3,37.5,12.9c8.7,8.6,13.1,20.7,13.1,36.3c0,9.4-2.3,17.9-7,25.5c-4.7,7.6-11.3,13.5-19.7,17.6
				c-8.5,4.1-18.5,6.1-30,6.1c-10.3,0-19.9-1.9-28.9-5.7c-9-3.8-16-9-21.1-15.6c-5.1-6.6-7.6-14.1-7.5-22.4h38
				c0.4,5.4,2.3,9.6,5.7,12.7c3.4,3.1,8,4.7,13.6,4.7c12.7,0,19.1-8.4,19.1-25.3c0-15.6-7.8-23.4-23.4-23.4
				c-8.8,0-15.4,2.5-19.8,7.6L27.4,96z"/>
		</g>
		<g>
			<path class="st4" d="M43,99l9-75.9h85.6v26.7h-58l-3.3,29.5c2.4-1.4,5.6-2.7,9.5-3.8s7.8-1.6,11.5-1.6c14.6,0,25.7,4.4,33.5,13.1
				c7.8,8.7,11.7,21,11.7,36.8c0,9.5-2.1,18.1-6.3,25.8c-4.2,7.7-10.1,13.6-17.7,17.8c-7.6,4.1-16.5,6.2-26.9,6.2
				c-9.2,0-17.8-1.9-25.9-5.8c-8-3.8-14.4-9.1-18.9-15.8c-4.6-6.7-6.8-14.2-6.7-22.7h34c0.3,5.4,2,9.7,5.1,12.9
				c3.1,3.2,7.1,4.8,12.2,4.8c11.4,0,17.1-8.5,17.1-25.6c0-15.8-7-23.7-20.9-23.7c-7.9,0-13.8,2.6-17.7,7.7L43,99z"/>
		</g>
		<polygon class="st3" points="62.2,125.9 74.2,129.3 55.9,129.2 		"/>
		<polygon class="st3" points="133,21.1 137.5,23.1 128.9,23.1 		"/>
	</g>
</g>
<g id="Layer_3">
</g>
</svg>
