<?xml version="1.0" encoding="utf-8"?>
<!-- Generator: Adobe Illustrator 21.1.0, SVG Export Plug-In . SVG Version: 6.00 Build 0)  -->
<svg version="1.1" xmlns="http://www.w3.org/2000/svg" xmlns:xlink="http://www.w3.org/1999/xlink" x="0px" y="0px"
	 viewBox="0 0 166.7 185" style="enable-background:new 0 0 166.7 185;" xml:space="preserve">
<style type="text/css">
	.st0{fill:#564A70;}
	.st1{fill:#36223D;}
	.st2{fill:#65778C;}
	.st3{fill:#8DC6CF;}
	.st4{fill:#BFE7F3;}
	.st5{fill:#D6D6D6;}
	.st6{fill:#FFFFFF;}
	.st7{fill:#3A2121;}
	.st8{fill:#6D4A49;}
	.st9{fill:#8A6564;}
	.st10{fill:#CE8E8E;}
	.st11{fill:#F1C0BF;}
	.st12{fill:#8DC6CF;stroke:#8DC6CF;stroke-miterlimit:10;}
	.st13{fill:none;stroke:#8DC6CF;stroke-width:3;stroke-miterlimit:10;}
	.st14{fill:#CE8E8D;}
	.st15{fill:none;stroke:#564A70;stroke-miterlimit:10;}
</style>
<g id="Layer_1">
</g>
<g id="Layer_2">
	<g>
		<g>
			<path class="st3" d="M129.5,161.6H26.5v-22.3L74,89.5c11.7-13.3,17.5-23.9,17.5-31.7c0-6.3-1.4-11.2-4.2-14.5
				c-2.8-3.3-6.8-5-12.1-5c-5.2,0-9.4,2.2-12.7,6.6c-3.2,4.4-4.9,9.9-4.9,16.6H23.5c0-9.1,2.3-17.4,6.8-25.1
				c4.5-7.7,10.8-13.7,18.8-18c8-4.3,17-6.5,27-6.5c15.9,0,28.2,3.7,36.8,11s12.9,17.9,12.9,31.7c0,5.8-1.1,11.5-3.2,17
				c-2.2,5.5-5.5,11.3-10.1,17.3c-4.6,6-11.9,14.1-22,24.3l-19,22h58.1V161.6z"/>
		</g>
		<g>
			<path class="st4" d="M142.5,161.6H39.6v-22.3L87,89.5c11.7-13.3,17.5-23.9,17.5-31.7c0-6.3-1.4-11.2-4.2-14.5
				c-2.8-3.3-6.8-5-12.1-5c-5.2,0-9.4,2.2-12.7,6.6c-3.2,4.4-4.9,9.9-4.9,16.6H36.5c0-9.1,2.3-17.4,6.8-25.1
				c4.5-7.7,10.8-13.7,18.8-18c8-4.3,17-6.5,27-6.5c15.9,0,28.2,3.7,36.8,11s12.9,17.9,12.9,31.7c0,5.8-1.1,11.5-3.2,17
				c-2.2,5.5-5.5,11.3-10.1,17.3c-4.6,6-11.9,14.1-22,24.3l-19,22h58.1V161.6z"/>
		</g>
	</g>
</g>
<g id="Layer_3">
</g>
</svg>
