<?xml version="1.0" encoding="utf-8"?>
<!-- Generator: Adobe Illustrator 21.1.0, SVG Export Plug-In . SVG Version: 6.00 Build 0)  -->
<svg version="1.1" xmlns="http://www.w3.org/2000/svg" xmlns:xlink="http://www.w3.org/1999/xlink" x="0px" y="0px"
	 viewBox="0 0 166.7 185" style="enable-background:new 0 0 166.7 185;" xml:space="preserve">
<style type="text/css">
	.st0{fill:#564A70;}
	.st1{fill:#36223D;}
	.st2{fill:#65778C;}
	.st3{fill:#8DC6CF;}
	.st4{fill:#BFE7F3;}
	.st5{fill:#D6D6D6;}
	.st6{fill:#FFFFFF;}
	.st7{fill:#3A2121;}
	.st8{fill:#6D4A49;}
	.st9{fill:#8A6564;}
	.st10{fill:#CE8E8E;}
	.st11{fill:#F1C0BF;}
	.st12{fill:#8DC6CF;stroke:#8DC6CF;stroke-miterlimit:10;}
	.st13{fill:none;stroke:#8DC6CF;stroke-width:3;stroke-miterlimit:10;}
	.st14{fill:#CE8E8D;}
	.st15{fill:none;stroke:#564A70;stroke-miterlimit:10;}
</style>
<g id="Layer_1">
</g>
<g id="Layer_2">
	<g>
		<g>
			<path class="st3" d="M58.1,76.1h15.6c12.3,0,18.5-6,18.5-18.1c0-4.7-1.5-8.5-4.4-11.5c-2.9-3-7.1-4.5-12.4-4.5
				c-4.4,0-8.2,1.3-11.4,3.8c-3.2,2.5-4.8,5.7-4.8,9.5h-33c0-7.5,2.1-14.2,6.3-20.1c4.2-5.9,10-10.5,17.4-13.8
				c7.4-3.3,15.6-4.9,24.4-4.9c15.9,0,28.3,3.6,37.4,10.9c9.1,7.2,13.6,17.2,13.6,29.9c0,6.1-1.9,11.9-5.6,17.4
				c-3.8,5.5-9.2,9.9-16.4,13.3c7.6,2.7,13.5,6.9,17.8,12.5s6.5,12.5,6.5,20.7c0,12.7-4.9,22.9-14.7,30.5s-22.7,11.5-38.6,11.5
				c-9.3,0-18-1.8-26-5.3c-8-3.6-14-8.5-18.2-14.8s-6.2-13.5-6.2-21.5H57c0,4.4,1.8,8.2,5.3,11.4s7.9,4.8,13,4.8
				c5.8,0,10.4-1.6,13.9-4.8c3.5-3.2,5.2-7.4,5.2-12.4c0-7.2-1.8-12.3-5.4-15.3c-3.6-3-8.6-4.5-14.9-4.5H58.1V76.1z"/>
		</g>
		<g>
			<path class="st4" d="M69.5,76.2h15.6c12.3,0,18.5-6,18.5-18.1c0-4.7-1.5-8.5-4.4-11.5s-7.1-4.5-12.4-4.5c-4.4,0-8.2,1.3-11.4,3.8
				c-3.2,2.5-4.8,5.7-4.8,9.5h-33c0-7.5,2.1-14.2,6.3-20.1c4.2-5.9,10-10.5,17.4-13.8c7.4-3.3,15.6-4.9,24.4-4.9
				c15.9,0,28.3,3.6,37.4,10.9c9.1,7.2,13.6,17.2,13.6,29.9c0,6.1-1.9,11.9-5.6,17.4c-3.8,5.5-9.2,9.9-16.4,13.3
				c7.6,2.7,13.5,6.9,17.8,12.5c4.3,5.6,6.5,12.5,6.5,20.7c0,12.7-4.9,22.9-14.7,30.5s-22.7,11.5-38.6,11.5c-9.3,0-18-1.8-26-5.3
				c-8-3.6-14-8.5-18.2-14.8s-6.2-13.5-6.2-21.5h33.2c0,4.4,1.8,8.2,5.3,11.4c3.5,3.2,7.9,4.8,13,4.8c5.8,0,10.4-1.6,13.9-4.8
				c3.5-3.2,5.2-7.4,5.2-12.4c0-7.2-1.8-12.3-5.4-15.3c-3.6-3-8.6-4.5-14.9-4.5H69.5V76.2z"/>
		</g>
	</g>
</g>
<g id="Layer_3">
</g>
</svg>
