<?xml version="1.0" encoding="utf-8"?>
<!-- Generator: Adobe Illustrator 21.1.0, SVG Export Plug-In . SVG Version: 6.00 Build 0)  -->
<svg version="1.1" xmlns="http://www.w3.org/2000/svg" xmlns:xlink="http://www.w3.org/1999/xlink" x="0px" y="0px"
	 viewBox="0 0 284 383.4" style="enable-background:new 0 0 284 383.4;" xml:space="preserve">
<style type="text/css">
	.st0{fill:#564A70;}
	.st1{fill:#36223D;}
	.st2{fill:#65778C;}
	.st3{fill:#8DC6CF;}
	.st4{fill:#BFE7F3;}
	.st5{fill:#D6D6D6;}
	.st6{fill:#FFFFFF;}
	.st7{fill:#3A2121;}
	.st8{fill:#6D4A49;}
	.st9{fill:#8A6564;}
	.st10{fill:#CE8E8E;}
	.st11{fill:#F1C0BF;}
	.st12{fill:#8DC6CF;stroke:#8DC6CF;stroke-miterlimit:10;}
	.st13{fill:none;stroke:#8DC6CF;stroke-width:3;stroke-miterlimit:10;}
	.st14{fill:#CE8E8D;}
	.st15{fill:none;stroke:#564A70;stroke-miterlimit:10;}
</style>
<g id="Layer_1">
</g>
<g id="Layer_2">
	<g>
		<path class="st3" d="M92.1,182.4c2.4,5.5-11,15.1-14.1,24.1c-3.1,9,6.4,9.2,20.1,20.8c13.7,11.5,41.4,16.4,62.7,18.2
			c21.3,1.8,56.1-23.5,59-32.5c2.8-8.9-13.3-22.6-17.2-25.6c-3.9-3-7-19.2-7-19.2"/>
		<g id="XMLID_12_">
			<g>
				<path class="st3" d="M232.8,115.9c1.5,2,8.1,14.5,7.9,15c-1.3,2.8-1.9,14.1-3.8,14.5c-1.9,0.4-4.9-3.3-6.6-5.9
					c-0.6-0.9-0.6-4-0.4-7.7c0.4,1.8,0.7,3,0.7,3s0.8-5.7,1.3-11.8c0.2-2.4,0.4-5,0.5-7.2C232.5,115.8,232.7,115.8,232.8,115.9z"/>
				<path class="st3" d="M231.9,123.1c-0.5,6.1-1.3,11.8-1.3,11.8s-0.3-1.2-0.7-3c0.3-6.5,1.5-14.7,2.5-15.9
					C232.3,118.2,232.1,120.7,231.9,123.1z"/>
				<path class="st4" d="M232.4,116c-1,1.2-2.2,9.5-2.5,15.9c-0.2-0.7-0.4-1.5-0.6-2.4c0,0,0,0,0-0.1c-0.1-0.9-2-11.6-2.8-13.8
					c-0.5-3.9-7.2-12.1-12.2-16.4c0,0-0.1-0.1-0.1-0.1c-1.6-1.5-3.1-2.5-4.1-2.5c-3.6-0.6-18.8,3.1-20.7,3.6c-0.1,0-0.2,0-0.2,0
					s0,0,0,0c-2.2-2.7-4.7-5.2-7.4-7.4c1.1,0.8,19.2-2.8,21.1-2c1.9,0.8,9.8,2.8,13.9,3.4c4.1,0.6,12.8,12.4,15,14.8
					C232.3,109.7,232.5,112.5,232.4,116z"/>
				<path class="st0" d="M226.5,115.5c0.8,2.3,2.7,12.9,2.8,13.8C228.3,124.8,226.9,118.6,226.5,115.5z"/>
				<path class="st0" d="M226.5,115.5c0.4,3.1,1.7,9.3,2.8,13.8c-0.3-1-7.9-0.5-9.8,1.5c-1.9,2-12.2,3.8-14.1,4
					c-1.9,0.2-4.7-2.8-4.7-2.8s-0.3-3.5-0.6-7.9c0-0.1,0-0.2,0-0.3c-0.1-1.6-0.2-3.1-0.3-4.3c0-0.1,0-0.2,0-0.3
					c-0.2-1.7-1-3.9-2.2-6.1c0,0,0-0.1-0.1-0.1c-1.8-3.8-4.6-8.5-8.2-12.8c-0.1-0.1-0.1-0.2-0.1-0.2s0.1,0,0.2,0
					c1.9-0.4,16.9-3.4,20.7-3.6c1,0.1,2.4,1.1,4.1,2.5c0.1,0,0.1,0.1,0.1,0.1C219.3,103.9,225.9,113.7,226.5,115.5z"/>
				<path class="st3" d="M226.5,115.5c-0.6-1.9-7.2-11.6-12.2-16.4C219.3,103.4,226.1,111.7,226.5,115.5z"/>
				<path class="st0" d="M210.1,96.6c1,0,2.5,0.9,4.1,2.5C212.5,97.7,211,96.7,210.1,96.6z"/>
				<path class="st3" d="M210.1,96.6c-3.8,0.2-18.8,3.2-20.7,3.6C191.2,99.7,206.4,96,210.1,96.6z"/>
				<path class="st3" d="M200.1,124.3c0.3,4.4,0.6,7.9,0.6,7.9C200.3,129.3,200.2,126.6,200.1,124.3z"/>
				<path class="st0" d="M200.1,124c-0.1-1.4-0.2-2.8-0.3-4.3C199.9,121,200,122.4,200.1,124z"/>
				<path class="st3" d="M197.6,113.3c1.1,2.3,2,4.5,2.2,6.1C199.5,118,198.8,115.8,197.6,113.3z"/>
				<path class="st0" d="M197.5,113.2c-2.8-5.6-7.4-11.8-8.2-12.8C192.9,104.7,195.7,109.4,197.5,113.2z"/>
				<path class="st3" d="M194,168c4.1,8.8-0.3,16-1.7,21.5c-3-7.4-13.4-25.3-18.8-29.6c-6.4-5.1-10.6-9.9-17.6-10.5
					c-7.1-0.6-6.9-8.7-13.5-8.7c-6.5,0-25.7,19.8-26.6,28.2c-0.9,8.3-10.9,33.5,5.4,34.6c-3.8,0.3-7.6,0-10.5-0.8
					c-2.3-0.7-3.9-1.6-5-3c-3-3.5-3.7-10.1-7.8-23c-5.8-18,25.4-27.3,28.9-31.2c3.5-3.9,8.7-15.5,10.3-21.2
					c1.6-5.7-5.8-29.7-7.1-32.1c-0.9-1.7,1.3-1.6,3.9-1.2c0.3,0.1,0.6,0.1,0.9,0.2c1,0.2,1.8,0.3,2.3,0.4c0.1,0,0.2,0,0.3,0
					c3.5,0.4,12-1.9,13.6-4c0.2,0,0.3-0.1,0.4-0.1c1,1.3,0.3,15.1-1.2,19.7c-1.6,5.1,4.8,27.6,8.7,31.5S189.2,157.5,194,168z"/>
				<path class="st4" d="M192.8,190.8c-0.3,0.5-0.6,1.1-0.9,1.6c0-0.9,0.2-1.9,0.4-2.9C192.5,189.9,192.6,190.4,192.8,190.8z"/>
				<path class="st4" d="M191.8,192.3c0,1.7-0.3,2.9-1,3.9c-0.6,0.5-1.4,1-2.2,1.5C189.6,196.1,190.7,194.3,191.8,192.3z"/>
				<path class="st4" d="M188.6,197.7c0.9-0.5,1.6-0.9,2.2-1.5c-0.6,0.8-1.4,1.4-2.5,2C188.4,198,188.5,197.9,188.6,197.7z"/>
				<path class="st4" d="M189.2,100.2c0,0,0,0,0.1,0.2c0.8,1,5.4,7.2,8.2,12.8c0,0,0,0.1,0.1,0.1c1.2,2.6,2,4.7,2.2,6.1
					c0,0.1,0,0.2,0,0.3c0.1,1.5,0.2,2.9,0.3,4.3c0,0.1,0,0.2,0,0.3c0.1,2.3,0.2,5,0.6,7.9c0.6,6.1,2,13.1,5.6,19.4
					c4.3,7.6-5.9,26.5-13.4,39.3c-0.1-0.4-0.3-0.8-0.5-1.3c1.4-5.5,5.8-12.6,1.7-21.5c-4.8-10.5-31.4-25.5-35.3-29.4
					s-10.3-26.4-8.7-31.5c1.4-4.5,2.2-18.3,1.2-19.7c3.6-0.7,8.1-1.3,13.9-1.3c6,0,11.7,2.7,16.5,6.5
					C181.1,92.3,188.7,99.7,189.2,100.2C189.2,100.2,189.2,100.2,189.2,100.2z M185.9,130.5c2.1-1.6,3.7-4.3,2.6-4.7
					c-1.1-0.5-3.7-2.9-5.9-4.4c-2.3-1.5-6.5-0.6-9.4,0c-3,0.7-5.1,6.7-5.1,6.7c-0.6,1.5,4.4,4.4,7.9,4.9
					C179.4,133.4,183.8,132.1,185.9,130.5z"/>
				<path class="st0" d="M188.5,125.7c1.1,0.5-0.5,3.1-2.6,4.7c-2.1,1.6-6.5,2.9-10,2.4c-3.5-0.5-8.5-3.4-7.9-4.9c0,0,2.1-6,5.1-6.7
					c3-0.6,7.2-1.5,9.4,0C184.8,122.8,187.4,125.2,188.5,125.7z"/>
				<path class="st4" d="M188.6,197.7c-0.1,0.2-0.2,0.3-0.3,0.5c-0.9,0.4-2.1,0.8-3.4,1.2C186.3,198.8,187.6,198.3,188.6,197.7z"/>
				<path class="st4" d="M184.9,199.3c-1.3,0.5-2.7,0.9-4.4,1.3c-0.7,0.2-1.5,0.2-2.4,0.2c0.4,0,0.8-0.1,1.1-0.2
					C181.4,200.2,183.3,199.7,184.9,199.3z"/>
				<path class="st4" d="M181.7,92.7c2.7,2.2,5.2,4.7,7.4,7.4C188.7,99.7,181.1,92.3,181.7,92.7C181.6,92.7,181.7,92.7,181.7,92.7
					L181.7,92.7z"/>
				<path class="st4" d="M178.1,200.8c-5.7,0.5-13.2-4.2-18.7-8C165.3,196.3,172.9,200.5,178.1,200.8z"/>
				<path class="st2" d="M167.3,159.1c1.5,2.2-1.7,9.6-4.9,13c-3.2,3.4-11.8,5.4-16.6,4.6c-4.8-0.8-13.8-11-14-14.4
					c-0.2-3.4,6.4-9.4,9.6-10.4c3.2-1,6.9,0,6.9,0s2.8,0,7.7-0.4C160.9,151,165.8,156.9,167.3,159.1z"/>
				<path class="st4" d="M167.3,159.1c-1.5-2.2-6.4-8.1-11.3-7.6c-4.9,0.4-7.7,0.4-7.7,0.4s-3.6-1-6.9,0c-3.2,1-9.8,7-9.6,10.4
					c0.2,3.4,9.2,13.6,14,14.4c4.8,0.8,13.4-1.1,16.6-4.6C165.6,168.7,168.8,161.3,167.3,159.1z M155.8,149.4
					c7.1,0.6,11.2,5.4,17.6,10.5c5.4,4.3,15.8,22.1,18.8,29.6c-0.3,1-0.4,2-0.4,2.9v0c-1.2,2-2.3,3.8-3.2,5.3
					c-1.1,0.6-2.3,1.1-3.7,1.6c0,0,0,0,0,0c-1.6,0.4-3.5,0.8-5.6,1.3c-0.4,0.1-0.7,0.1-1.1,0.2c-5.2-0.3-12.8-4.6-18.7-8
					c-3.1-2.1-5.6-4-6.8-4.5c-3.5-1.5-8.3,3.6-14.1,9c-3.7,3.4-10.7,5.6-17.4,6.1c-16.3-1.1-6.4-26.3-5.4-34.6
					c1-8.4,20.1-28.2,26.6-28.2C148.9,140.7,148.8,148.8,155.8,149.4z"/>
				<path class="st2" d="M150.7,188.5c1.2,0,4.6,1.9,8.7,4.3c5.5,3.8,13.1,8.5,18.7,8c0.9,0.1,1.7,0,2.4-0.2
					c1.6-0.4,3.1-0.9,4.4-1.3c0,0,0,0,0,0c1.3-0.4,2.5-0.7,3.4-1.2c-1.5,2.6-2.6,4.3-2.7,4.9c-0.6,3-13.5,6-17.3,6
					c-3.9,0-10.9-4.8-16.7-6c-5.8-1.2-21.8,9.6-30.8,9.6c-7.3,0-11.6-5.9-18.5-12.3l3.2-0.6c1.2,1.4,2.7,2.3,5,3
					c3,0.9,6.7,1.1,10.5,0.8c0.2,0,0.5,0,0.7,0C139.1,203.9,147.5,188.6,150.7,188.5z"/>
				<path class="st3" d="M151.2,87.5c-0.2,0-0.3,0.1-0.4,0.1C150.9,87.3,151.1,87.3,151.2,87.5z"/>
				<path class="st3" d="M150.7,87.6c-1.6,2.1-10.1,4.5-13.6,4C139.8,91.8,143,89.2,150.7,87.6z"/>
				<path class="st3" d="M136.9,91.6c-0.5-0.1-1.3-0.2-2.3-0.4C135.4,91.3,136.2,91.4,136.9,91.6z"/>
				<path class="st2" d="M133.7,91c-2.5-0.4-4.8-0.5-3.9,1.2c1.3,2.4,8.7,26.4,7.1,32.1c-1.6,5.7-6.7,17.3-10.3,21.2
					c-3.5,3.9-34.7,13.2-28.9,31.2c4.1,12.9,4.8,19.4,7.8,23l-3.2,0.6c-1.6-1.5-3.3-3-5.2-4.4c-10.3-7.8-10.9-24.6-12.2-30
					c-0.6-2.7-0.6-14.3-0.5-25.2c0.2-10.8,0.5-21,0.5-21s2.9-5.5,6.9-11.9c1.7-2.7,3.6-5.6,5.7-8.3c3.4-3.7,7-7.2,7.4-7.6
					c0,0,0,0,0,0c0,0,0,0,0,0C112.9,87.5,127,89.8,133.7,91z M102.7,130.2c0,2.9,0,2.9,0,2.9s-0.7,3.2,4.4,4.2c5.1,1,9.9,2.9,12.1,0
					c2.2-2.9,1.8-8.4,0-10.1c-1.8-1.6-6.6-1.6-9.9,0C106,128.9,102.6,127.2,102.7,130.2z"/>
				<path class="st4" d="M152.6,188.4c1.2,0.5,3.7,2.3,6.8,4.5c-4.1-2.4-7.5-4.4-8.7-4.3c-3.2,0.1-11.6,15.4-28.9,15
					c-0.2,0-0.5,0-0.7,0c6.7-0.5,13.7-2.7,17.4-6.1C144.3,192,149.1,186.9,152.6,188.4z"/>
				<path class="st0" d="M119.2,127.2c1.8,1.6,2.2,7.1,0,10.1c-2.2,2.9-7,1-12.1,0c-5.1-1-4.4-4.2-4.4-4.2s0,0,0-2.9
					c0-2.9,3.3-1.3,6.6-2.9C112.6,125.6,117.3,125.6,119.2,127.2z"/>
				<path class="st3" d="M104.9,92C104.9,92,104.9,92,104.9,92C104.8,92,104.8,92,104.9,92L104.9,92z"/>
				<path class="st3" d="M97.4,99.6c1.6-2.1,3.2-4,4.8-5.7c0.8-0.8,1.6-1.4,2.6-2C104.4,92.4,100.8,95.9,97.4,99.6z"/>
				<path class="st3" d="M97.4,99.6c-2,2.6-3.9,5.5-5.7,8.3C91.8,106.2,94.5,102.9,97.4,99.6z"/>
				<path class="st0" d="M86.4,103.2c5.1,0,5.4,4.7,5.4,4.7c-4,6.3-6.9,11.9-6.9,11.9s-0.3,10.1-0.5,21h-0.1c0,0-24.5,0.3-26.4-1.9
					c-1.9-2.1-10.9-3.9-10.9-3.9c0-3,5.8-9.4,8.8-13.4c3-4,11.1-19.2,13.3-18.4C71.2,104,81.3,103.2,86.4,103.2z"/>
				<path class="st3" d="M102.2,94c-1.6,1.6-3.2,3.6-4.8,5.7c-2.9,3.2-5.6,6.6-5.7,8.3c0,0-0.2-4.7-5.4-4.7s-15.2,0.8-17.3,0
					c-2.1-0.8-10.3,14.4-13.3,18.4c-3,4-8.8,10.4-8.8,13.4c0,0,0,0.1,0,0.3c-0.1-0.4-0.2-4.1-0.2-8c0.1-3.4,0.3-6.9,1-8.2
					c1.7-3.3,9.6-13.9,12.4-15.9c2.8-2,16.7-8.2,19-8c2.3,0.2,9.8,2.8,12.4,2.6c2.5-0.2,12.5-5.4,13.1-5.8c0,0,0,0,0,0
					C103.9,92.6,103,93.2,102.2,94z"/>
				<path class="st3" d="M47,134.9c0,0.3,0,0.4,0,0.3v0C47,135,47,134.9,47,134.9z"/>
				<path class="st3" d="M46.9,127.3c-0.1,3.9,0.1,7.6,0.2,8v0c-0.2,2.3-1.2,15.7-3,18.4c-1.9,3-8.1-10-6.8-11
					C38.5,141.7,46.8,127.3,46.9,127.3L46.9,127.3z"/>
			</g>
		</g>
		<g>
			<circle class="st12" cx="175.3" cy="127.1" r="5.3"/>
			<circle class="st0" cx="174.9" cy="126.4" r="4.9"/>
			
				<ellipse transform="matrix(0.9227 -0.3854 0.3854 0.9227 -34.4886 78.648)" class="st4" cx="178.9" cy="125.3" rx="1.2" ry="1.2"/>
		</g>
		<g>
			<circle class="st12" cx="115.3" cy="130.9" r="4.9"/>
			<circle class="st0" cx="115.8" cy="130.3" r="4.5"/>
			
				<ellipse transform="matrix(0.3854 -0.9227 0.9227 0.3854 -50.4878 182.8084)" class="st4" cx="112" cy="129.3" rx="1.1" ry="1.1"/>
		</g>
		<path class="st0" d="M171.9,119.4c0,0,5.2-4,7.4-3.2c2.1,0.8,10.3,3.8,10.7,5.4c0.5,1.6,1.4,1.7,1.2,0.5s-2.8-2.9-5.3-3.8
			c-2.5-0.9-7.6-3.6-8.8-3c-1.2,0.5-4.8,3.4-5,3.8C171.9,119.4,171.9,119.4,171.9,119.4z"/>
		<path class="st0" d="M99.2,130.1c0,0,1.4-6.4,3.6-7.2c2.2-0.8,10.3-3.7,11.7-2.8c1.4,0.9,2.1,0.4,1.2-0.4c-0.9-0.8-4-0.4-6.5,0.5
			s-8.1,2.1-8.7,3.3s-1.5,5.6-1.4,6.1S99.2,130.1,99.2,130.1z"/>
		<path class="st0" d="M157.4,154.5c0,0-6.6,0.2-8.2,1s-3.9,2.8-5.6,2.1c-1.7-0.7-3-2.3-4.4-1.1c-1.4,1.2-1.1-2.8,3.1-4.1
			c4.2-1.3,7,1.5,8.7,1.6S157.4,154.5,157.4,154.5z"/>
		<path class="st0" d="M166.8,160.4c0,0,2.7,6.6-7.1,8.2c-9.8,1.6-5.1-8.1-3.4-7.8c1.7,0.3,2.4,1.6,2.5,3.7c0,2.2,2.4,3.7,5.4,0.6
			C167.1,162.1,166.8,160.4,166.8,160.4z"/>
		<path class="st0" d="M131.9,161.5c0,0,2.1,7.4,6.1,7s3.1-3,4.1-4.5c1-1.6,4-0.4,4.1,1.4c0.1,1.8,0.3,4.9-3,4.8
			C139.8,170.1,131.8,170.9,131.9,161.5z"/>
		<path class="st0" d="M148.6,167.4c0,0-1.2,1.3-0.4,3.3c0.8,2,0.5,5.8,1.5,6c1,0.2,3.7-0.3,4-0.7c0.4-0.4-2-2-2.8-2.8
			c-0.9-0.8-1.9-3.8-2.1-4.8C148.6,167.4,148.6,167.4,148.6,167.4z"/>
		<path class="st0" d="M141.4,197.1c0,0,5,2.2,10.2,1.6s11.5-3.2,11.5-3.2s-9.8-7.1-12-7.1C148.8,188.5,141.4,197.1,141.4,197.1z"/>
		<g>
			<path class="st1" d="M112.1,306.2v5h-2.9V297h5.5c1.1,0,2,0.2,2.8,0.6s1.4,0.9,1.9,1.7s0.7,1.5,0.7,2.5c0,1.4-0.5,2.5-1.4,3.3
				s-2.3,1.2-4,1.2H112.1z M112.1,303.8h2.6c0.8,0,1.4-0.2,1.8-0.5s0.6-0.9,0.6-1.6c0-0.7-0.2-1.3-0.6-1.7s-1-0.7-1.7-0.7h-2.7
				V303.8z"/>
			<path class="st1" d="M125.3,311.2h-2.9V297h2.9V311.2z"/>
			<path class="st1" d="M138.5,299.4h-4.4v11.8h-2.9v-11.8H127V297h11.6V299.4z"/>
			<path class="st1" d="M144.8,311.2V297h5c1.7,0,3,0.3,3.9,1s1.3,1.6,1.3,2.9c0,0.7-0.2,1.3-0.5,1.8s-0.9,0.9-1.5,1.2
				c0.7,0.2,1.3,0.5,1.7,1.1s0.6,1.2,0.6,2c0,1.4-0.4,2.4-1.3,3.1s-2.1,1.1-3.7,1.1H144.8z M147.8,302.9h2.2c1.5,0,2.2-0.6,2.2-1.8
				c0-0.6-0.2-1.1-0.6-1.4s-1-0.4-1.8-0.4h-2.1V302.9z M147.8,305v3.8h2.5c0.7,0,1.2-0.2,1.6-0.5s0.6-0.8,0.6-1.4c0-1.3-0.7-2-2-2
				H147.8z"/>
			<path class="st1" d="M168.5,297v9.4c0,1.6-0.5,2.8-1.5,3.7s-2.3,1.4-4,1.4c-1.7,0-3-0.4-4-1.3s-1.5-2.1-1.5-3.6V297h2.9v9.4
				c0,0.9,0.2,1.6,0.7,2s1.1,0.6,1.9,0.6c1.6,0,2.5-0.9,2.5-2.6V297H168.5z"/>
			<path class="st1" d="M173.9,308.8h6.2v2.4H171V297h2.9V308.8z"/>
			<path class="st1" d="M184.9,308.8h6.2v2.4H182V297h2.9V308.8z"/>
			<path class="st0" d="M71.5,339.2H62v-1.6l4.7-5.2c0.7-0.8,1.2-1.4,1.5-1.9s0.4-1,0.4-1.5c0-0.7-0.2-1.2-0.6-1.6s-0.9-0.6-1.5-0.6
				c-0.8,0-1.4,0.2-1.8,0.7s-0.6,1.1-0.6,1.9h-2.4c0-0.9,0.2-1.6,0.6-2.3s1-1.2,1.7-1.6c0.7-0.4,1.6-0.6,2.5-0.6
				c1.4,0,2.5,0.3,3.3,1s1.2,1.7,1.2,2.9c0,0.7-0.2,1.5-0.6,2.2s-1.1,1.7-2,2.7l-3.5,3.7h6.6V339.2z"/>
			<path class="st0" d="M76.2,331h1.4c0.7,0,1.3-0.2,1.7-0.6s0.6-0.9,0.6-1.6c0-0.7-0.2-1.2-0.5-1.6s-0.9-0.6-1.6-0.6
				c-0.6,0-1.2,0.2-1.6,0.6s-0.6,0.8-0.6,1.4h-2.4c0-0.7,0.2-1.4,0.6-2s0.9-1.1,1.6-1.4s1.5-0.5,2.3-0.5c1.4,0,2.5,0.4,3.3,1.1
				s1.2,1.7,1.2,3c0,0.6-0.2,1.2-0.6,1.8s-0.9,1-1.6,1.3c0.8,0.3,1.4,0.7,1.8,1.3s0.6,1.3,0.6,2.1c0,1.3-0.4,2.3-1.3,3
				s-2,1.1-3.5,1.1c-1.4,0-2.5-0.4-3.4-1.1s-1.3-1.7-1.3-2.9h2.4c0,0.6,0.2,1.1,0.6,1.5s1,0.6,1.7,0.6c0.7,0,1.3-0.2,1.7-0.6
				s0.6-1,0.6-1.7c0-0.7-0.2-1.3-0.7-1.7s-1.1-0.6-2-0.6h-1.4V331z"/>
			<path class="st0" d="M85.6,332.2l0.8-7.2H94v2.1h-5.7l-0.4,3.4c0.7-0.4,1.4-0.6,2.2-0.6c1.4,0,2.4,0.4,3.2,1.3s1.1,2,1.1,3.5
				c0,1.4-0.4,2.6-1.2,3.5s-2,1.3-3.4,1.3c-1.3,0-2.4-0.4-3.2-1.1s-1.3-1.7-1.4-2.9h2.3c0.1,0.7,0.3,1.2,0.7,1.6s0.9,0.6,1.6,0.6
				c0.7,0,1.3-0.3,1.7-0.8s0.6-1.2,0.6-2.1c0-0.9-0.2-1.6-0.7-2.1s-1.1-0.8-1.9-0.8c-0.4,0-0.8,0.1-1.1,0.2s-0.6,0.3-1,0.7
				L85.6,332.2z"/>
			<path class="st0" d="M110.9,334c0,1.6-0.4,2.9-1.1,3.9s-1.7,1.5-3,1.5c-1.2,0-2.1-0.4-2.8-1.1v5h-2.4v-14.6h2.2l0.1,1.1
				c0.7-0.8,1.6-1.3,2.8-1.3c1.3,0,2.3,0.5,3,1.4s1.1,2.3,1.1,4V334z M108.6,333.8c0-1.1-0.2-1.9-0.6-2.5s-1-0.9-1.8-0.9
				c-1,0-1.7,0.4-2.1,1.2v4.7c0.4,0.8,1.1,1.2,2.1,1.2c0.8,0,1.3-0.3,1.8-0.9S108.6,335.1,108.6,333.8z"/>
			<path class="st0" d="M112.6,333.8c0-1,0.2-2,0.6-2.8s1-1.5,1.7-1.9s1.6-0.7,2.6-0.7c1.4,0,2.6,0.5,3.5,1.4s1.4,2.1,1.4,3.7l0,0.6
				c0,1-0.2,2-0.6,2.8s-1,1.5-1.7,1.9s-1.6,0.7-2.6,0.7c-1.5,0-2.7-0.5-3.6-1.5s-1.3-2.3-1.3-4V333.8z M115,334
				c0,1.1,0.2,1.9,0.7,2.6s1.1,0.9,1.9,0.9s1.4-0.3,1.9-0.9s0.7-1.5,0.7-2.7c0-1.1-0.2-1.9-0.7-2.5s-1.1-0.9-1.9-0.9
				c-0.8,0-1.4,0.3-1.8,0.9S115,332.8,115,334z"/>
			<path class="st0" d="M131,338.2c-0.7,0.8-1.7,1.2-3,1.2c-1.1,0-2-0.3-2.6-1s-0.9-1.6-0.9-2.9v-6.8h2.4v6.8c0,1.3,0.6,2,1.7,2
				c1.2,0,1.9-0.4,2.3-1.2v-7.6h2.4v10.6H131L131,338.2z"/>
			<path class="st0" d="M138,328.6l0.1,1.2c0.8-0.9,1.8-1.4,3.1-1.4c2.2,0,3.3,1.3,3.4,3.8v7h-2.4v-6.8c0-0.7-0.1-1.2-0.4-1.5
				s-0.8-0.5-1.4-0.5c-1,0-1.7,0.4-2.1,1.3v7.5h-2.4v-10.6H138z"/>
			<path class="st0" d="M146.6,333.8c0-1.6,0.4-2.9,1.1-3.9s1.8-1.5,3-1.5c1.1,0,2,0.4,2.7,1.2v-5.4h2.4v15h-2.1l-0.1-1.1
				c-0.7,0.9-1.7,1.3-2.8,1.3c-1.2,0-2.2-0.5-3-1.5S146.6,335.6,146.6,333.8z M149,334c0,1.1,0.2,1.9,0.6,2.5s1,0.9,1.8,0.9
				c1,0,1.7-0.4,2.1-1.3v-4.5c-0.4-0.8-1.1-1.3-2.1-1.3c-0.8,0-1.4,0.3-1.8,0.9S149,332.8,149,334z"/>
			<path class="st0" d="M164.4,336.3c0-0.4-0.2-0.7-0.5-1s-0.9-0.4-1.7-0.6s-1.5-0.4-2-0.6c-1.2-0.6-1.8-1.4-1.8-2.5
				c0-0.9,0.4-1.7,1.2-2.3s1.7-0.9,2.9-0.9c1.3,0,2.3,0.3,3.1,0.9s1.2,1.4,1.2,2.4h-2.4c0-0.5-0.2-0.8-0.5-1.1s-0.8-0.5-1.3-0.5
				c-0.5,0-0.9,0.1-1.3,0.4s-0.5,0.6-0.5,1c0,0.4,0.2,0.6,0.5,0.8s0.9,0.4,1.9,0.6s1.7,0.4,2.2,0.7s0.9,0.6,1.2,1s0.4,0.9,0.4,1.4
				c0,1-0.4,1.7-1.2,2.3s-1.8,0.9-3.1,0.9c-0.9,0-1.6-0.2-2.3-0.5s-1.2-0.7-1.6-1.3s-0.6-1.1-0.6-1.8h2.3c0,0.6,0.2,1,0.6,1.3
				s0.9,0.5,1.6,0.5c0.6,0,1.1-0.1,1.4-0.4S164.4,336.7,164.4,336.3z"/>
			<path class="st0" d="M173.5,333.8c0-1,0.2-2,0.6-2.8s1-1.5,1.7-1.9s1.6-0.7,2.6-0.7c1.4,0,2.6,0.5,3.5,1.4s1.4,2.1,1.4,3.7l0,0.6
				c0,1-0.2,2-0.6,2.8s-1,1.5-1.7,1.9s-1.6,0.7-2.6,0.7c-1.5,0-2.7-0.5-3.6-1.5s-1.3-2.3-1.3-4V333.8z M175.9,334
				c0,1.1,0.2,1.9,0.7,2.6s1.1,0.9,1.9,0.9s1.4-0.3,1.9-0.9s0.7-1.5,0.7-2.7c0-1.1-0.2-1.9-0.7-2.5s-1.1-0.9-1.9-0.9
				c-0.8,0-1.4,0.3-1.8,0.9S175.9,332.8,175.9,334z"/>
			<path class="st0" d="M186.3,339.2v-8.8h-1.6v-1.8h1.6v-1c0-1.2,0.3-2.1,1-2.7s1.6-1,2.7-1c0.4,0,0.9,0.1,1.3,0.2l-0.1,1.9
				c-0.3-0.1-0.6-0.1-0.9-0.1c-1.1,0-1.7,0.6-1.7,1.7v0.9h2.1v1.8h-2.1v8.8H186.3z"/>
			<path class="st0" d="M198.6,339.2v-8.8H197v-1.8h1.6v-1c0-1.2,0.3-2.1,1-2.7s1.6-1,2.7-1c0.4,0,0.9,0.1,1.3,0.2l-0.1,1.9
				c-0.3-0.1-0.6-0.1-0.9-0.1c-1.1,0-1.7,0.6-1.7,1.7v0.9h2.1v1.8H201v8.8H198.6z"/>
			<path class="st0" d="M204.6,333.8c0-1,0.2-2,0.6-2.8s1-1.5,1.7-1.9s1.6-0.7,2.6-0.7c1.4,0,2.6,0.5,3.5,1.4s1.4,2.1,1.4,3.7l0,0.6
				c0,1-0.2,2-0.6,2.8s-1,1.5-1.7,1.9s-1.6,0.7-2.6,0.7c-1.5,0-2.7-0.5-3.6-1.5s-1.3-2.3-1.3-4V333.8z M206.9,334
				c0,1.1,0.2,1.9,0.7,2.6s1.1,0.9,1.9,0.9s1.4-0.3,1.9-0.9s0.7-1.5,0.7-2.7c0-1.1-0.2-1.9-0.7-2.5s-1.1-0.9-1.9-0.9
				c-0.8,0-1.4,0.3-1.8,0.9S206.9,332.8,206.9,334z"/>
			<path class="st0" d="M222.1,330.8c-0.3-0.1-0.6-0.1-1-0.1c-1.1,0-1.8,0.4-2.2,1.2v7.2h-2.4v-10.6h2.3l0.1,1.2
				c0.6-0.9,1.4-1.4,2.4-1.4c0.3,0,0.6,0,0.8,0.1L222.1,330.8z"/>
			<path class="st0" d="M227.8,337.5c0.6,0,1.1-0.2,1.5-0.5s0.6-0.8,0.6-1.3h2.2c0,0.7-0.2,1.3-0.6,1.8s-0.9,1-1.6,1.4
				s-1.4,0.5-2.1,0.5c-1.5,0-2.6-0.5-3.5-1.4s-1.3-2.3-1.3-4v-0.2c0-1.6,0.4-2.9,1.3-3.9s2-1.5,3.5-1.5c1.3,0,2.3,0.4,3.1,1.1
				s1.2,1.7,1.2,2.9h-2.2c0-0.6-0.2-1.1-0.6-1.5s-0.9-0.6-1.5-0.6c-0.8,0-1.4,0.3-1.8,0.8s-0.6,1.4-0.6,2.5v0.4c0,1.1,0.2,2,0.6,2.6
				S227.1,337.5,227.8,337.5z"/>
			<path class="st0" d="M238.7,339.4c-1.5,0-2.7-0.5-3.7-1.4s-1.4-2.2-1.4-3.8v-0.3c0-1.1,0.2-2,0.6-2.8s1-1.5,1.7-1.9
				s1.6-0.7,2.5-0.7c1.4,0,2.6,0.5,3.3,1.4s1.2,2.2,1.2,3.9v1h-6.9c0.1,0.9,0.4,1.6,0.9,2.1s1.2,0.8,1.9,0.8c1.1,0,2-0.4,2.7-1.3
				l1.3,1.2c-0.4,0.6-1,1.1-1.7,1.5S239.6,339.4,238.7,339.4z M238.5,330.3c-0.7,0-1.2,0.2-1.6,0.7s-0.7,1.1-0.8,1.9h4.5v-0.2
				c-0.1-0.8-0.3-1.4-0.6-1.8S239.1,330.3,238.5,330.3z"/>
		</g>
	</g>
</g>
<g id="Layer_3">
</g>
</svg>
