<?xml version="1.0" encoding="utf-8"?>
<!-- Generator: Adobe Illustrator 21.1.0, SVG Export Plug-In . SVG Version: 6.00 Build 0)  -->
<svg version="1.1" xmlns="http://www.w3.org/2000/svg" xmlns:xlink="http://www.w3.org/1999/xlink" x="0px" y="0px"
	 viewBox="0 0 438 488" style="enable-background:new 0 0 438 488;" xml:space="preserve">
<style type="text/css">
	.st0{fill:#564A70;}
	.st1{fill:#36223D;}
	.st2{fill:#65778C;}
	.st3{fill:#8DC6CF;}
	.st4{fill:#BFE7F3;}
	.st5{fill:#D6D6D6;}
	.st6{fill:#FFFFFF;}
	.st7{fill:#3A2121;}
	.st8{fill:#6D4A49;}
	.st9{fill:#8A6564;}
	.st10{fill:#CE8E8E;}
	.st11{fill:#F1C0BF;}
	.st12{fill:#8DC6CF;stroke:#8DC6CF;stroke-miterlimit:10;}
	.st13{fill:none;stroke:#8DC6CF;stroke-width:3;stroke-miterlimit:10;}
	.st14{fill:#CE8E8D;}
</style>
<g id="Layer_1">
</g>
<g id="Layer_2">
	<g>
		<g id="XMLID_8_">
			<g>
				<path class="st2" d="M373.2,182.6L373.2,182.6c0.4,1.1,0.7,2.2,1.1,3.4l-1,0.2c0,0-20.2,44.2-40.8,54.9c1.6-8.6-13.3-47.9-18-62
					c-2.1-6.2-7.1-10.7-13.4-14.3c-0.1-0.9-2.1-15.2,3.4-18c5.7-2.9,24.9-6.8,32.4-1.5c7.4,5.2,22.8,16.7,25.5,21.4
					C364.8,171.3,372.7,181.9,373.2,182.6z"/>
				<path class="st3" d="M365.8,161.2c0,0,29.3,9.7,31,12.5c3,5,0,41.5,0,41.5s-7.8,2.3-11.8,0c-1.7-1-6.6-15.9-10.7-29.2
					c-0.3-1.1-0.7-2.3-1-3.4c-1-3.2-1.9-6.2-2.7-8.9c-1.5-4.9-2.5-8.3-2.8-8.8C367.2,163.8,366.5,162.5,365.8,161.2L365.8,161.2z"/>
				<path class="st3" d="M370.5,173.7c0.8,2.6,1.7,5.7,2.7,8.9h0c-0.5-0.7-8.4-11.3-11-15.9c-2.6-4.7-18-16.2-25.5-21.4
					c-7.4-5.2-26.6-1.3-32.4,1.5c-5.6,2.8-3.5,17-3.4,18c-7.9-4.5-17.9-7.7-26.7-11.6c0,0,15.9-22.3,25.6-20.9
					c9.7,1.3,32.5-5,44.2,3.7c1.3,1,2.7,2.1,4,3.2c4.8,4.2,8.8,8.9,12.1,13.5c2.2,3,4,6,5.5,8.7c0.8,1.3,1.4,2.6,2,3.7
					C368,165.4,369,168.8,370.5,173.7z"/>
				<path class="st3" d="M331.5,294.5c0,0-12.4,32-17.7,40.4c5.7-10,8.1-21.5,4.6-29.5c-6.3-14.1-31.4-25.9-47.1-21.2
					c-15.7,4.7-29-34.5-29-34.5s-11.8-7.8-20.4-14.1c-8.6-6.3,11-52.6,7.8-60.4s11.8-28.3,11.8-28.3s17.3-0.8,33,6.3
					c8.8,3.9,18.7,7.2,26.7,11.6c6.3,3.6,11.3,8,13.4,14.3c4.7,14.1,19.6,53.4,18,62c-1.6,8.6,0.9,10.6,0.9,25.1
					S331.5,294.5,331.5,294.5z M308.8,221.9c0,0-2.7-1.5-6.3-5.1s-12.9-10.7-22.1-11c-9.2-0.3-22.8,16.2-22.8,16.2s3.2,2.4,8.5,10
					c5.4,7.6,21.5,5.7,31.6,5.1C301.2,236.8,308.6,221.9,308.8,221.9z"/>
				<path class="st0" d="M302.5,216.8c3.6,3.7,6.3,5.1,6.3,5.1c-0.2,0-7.5,14.8-11,15.1c-10.1,0.6-26.2,2.5-31.6-5.1
					c-5.4-7.6-8.5-10-8.5-10s13.6-16.5,22.8-16.2C289.5,206,298.9,213.1,302.5,216.8z"/>
				<path class="st0" d="M280.6,336.8c88.4-55.8-76.1,82.4-76.1,82.4s-51.8,19.6-72.2-29.8c-13.3-32.3-28.8-69.2-36.5-92.4l8.3-1.7
					c0.9,1.6,16.1,27.5,30.6,30.5c14.9,3.1,43.9,3.1,52.6,0C187.3,325.8,229.6,369,280.6,336.8z"/>
				<path class="st2" d="M229.6,273.2c3.1,4.7,2.4,18.8,0,22.8c-2.4,3.9-19.6,15.7-30.4,15.5c-10.8-0.2-5.7-3.8-12-0.6
					c-6.3,3.1-15.7-6.3-24.3-11c-8.6-4.7-6.3-29-5.5-33.7c0.8-4.7,13.3-12.6,19.6-15.7s22.2,6.3,22.2,6.3s10,0.8,15.5,3.1
					S226.5,268.5,229.6,273.2z"/>
				<path class="st2" d="M156.5,65.3c5.6,5.5,29.2,28.3,28.4,36.1c-0.8,7.8-9.7,27.4-18.2,30.6c-8.5,3.2-22.4,20.1-22.4,20.1
					c-17.7,10.9-34.4,25.7-39.4,43.5c0,0-0.8-11.8-6.3-20.4s-7.1-33,0-47.9s4.8-54.2,12.3-58.4c6.7-3.6,13.3-7.6,14.3-7.6
					C130.8,61.3,150.9,59.8,156.5,65.3z"/>
				<path class="st0" d="M173.7,198.4c0.9,4.7,0.6,11.6-2.5,12.8c-3.1,1.3-23.8,3.8-30.4-3.1c-6.6-6.9-11.9-11.3-11.9-11.3
					s16-10,19.1-13.5c3.1-3.4,15.6,0,15.6,0S172.7,193.7,173.7,198.4z"/>
				<path class="st3" d="M147.8,53.5c10,0.8,43.4,39.2,45.8,42.4c2.5,3.1,0.4,36.1,0.4,36.1c-5.5-0.4-28.4,6.9-49.8,20.1
					c0,0,14-16.9,22.4-20.1c8.5-3.1,17.4-22.7,18.2-30.6c0.8-7.8-22.8-30.6-28.4-36.1c-5.6-5.5-25.8-3.9-31.3-3.9
					c-1.1,0-7.6,3.9-14.3,7.6c-6.7,3.6-13.7,7-15.7,5.8c-6.5-3.9,8.9-15.7,13.6-21.2C113.5,48,137.8,52.7,147.8,53.5z"/>
				<path class="st4" d="M128.9,196.8c0,0,5.3,4.4,11.9,11.3c6.6,6.9,27.2,4.4,30.4,3.1c3.1-1.2,3.5-8.1,2.5-12.8
					c-0.9-4.7-10-15-10-15s-12.5-3.4-15.6,0C144.9,186.8,128.9,196.8,128.9,196.8z M132.3,389.4c20.4,49.4,72.2,29.8,72.2,29.8
					S369,281,280.6,336.8c-51,32.2-93.4-11-93.4-11c-8.6,3.1-37.7,3.1-52.6,0c-14.4-3-29.6-28.9-30.6-30.5c0-0.1,0-0.1,0-0.1
					s-5.3-27.4-12.3-20.7c-1.9,1.8,0,10.2,4.1,22.5C103.5,320.2,119,357.1,132.3,389.4z M144.3,152c21.4-13.2,44.4-20.5,49.8-20.1
					c10,0.8,47.3,14.9,47.3,14.9s-14.9,20.4-11.8,28.3s-16.5,54.1-7.8,60.4c8.6,6.3,20.4,14.1,20.4,14.1s13.3,39.2,29,34.5
					c15.7-4.7,40.8,7.1,47.1,21.2c3.5,8,1.1,19.5-4.6,29.5c-0.1,0.2-0.2,0.4-0.3,0.6c-4.3,7.5-10.4,14.2-17.1,17.8
					c-15.7,8.6-73,59.6-83.2,71.7s-38.5,6.7-38.5,6.7s-27.5-2.4-33-13.3c-5.5-11-22-40-24.3-47.1c-2.4-7.1-26.7-56.5-26.7-56.5
					S75.8,248.1,79,237.1c4-9.2,4-9.2,25.9-41.6C109.8,177.8,126.5,162.9,144.3,152z M229.6,296c2.4-3.9,3.1-18,0-22.8
					c-3.1-4.7-9.4-11-14.9-13.3s-15.5-3.1-15.5-3.1s-15.9-9.4-22.2-6.3s-18.8,11-19.6,15.7c-0.8,4.7-3.1,29,5.5,33.7
					c8.6,4.7,18,14.1,24.3,11c6.3-3.1,1.2,0.5,12,0.6C210,311.7,227.2,299.9,229.6,296z"/>
				<path class="st0" d="M104.1,295.2C104.1,295.2,104.1,295.2,104.1,295.2l-8.2,1.8c-4.1-12.3-5.9-20.7-4.1-22.5
					C98.7,267.8,104.1,295.2,104.1,295.2z"/>
			</g>
		</g>
		<circle class="st12" cx="161.4" cy="200" r="11.7"/>
		<circle class="st0" cx="162.4" cy="198.6" r="10.7"/>
		
			<ellipse transform="matrix(0.3854 -0.9227 0.9227 0.3854 -86.719 262.204)" class="st4" cx="153.5" cy="196.2" rx="2.5" ry="2.5"/>
		<circle class="st12" cx="274.4" cy="221.6" r="11.7"/>
		<circle class="st0" cx="273.3" cy="220.2" r="10.7"/>
		
			<ellipse transform="matrix(0.9227 -0.3854 0.3854 0.9227 -62.1265 125.6153)" class="st4" cx="282.3" cy="217.8" rx="2.5" ry="2.5"/>
		<path class="st2" d="M93.8,272.8c0,0,5.8,20.3,8.5,26c2.8,5.7,19.4,28,21,32.5c1.6,4.5,11.4,35,11.4,35s7,20.3,12,21.9
			s27,25.6,39.6,21.1c12.6-4.5,48.4-30.9,49.6-32.1s21.1-18.7,24-20.7c2.8-2,24.3-19.8,27.4-21.7c3.1-1.9,14.8-10.5,19.1-10.2
			c4.3,0.3-19.8,22-32.1,33.1c-12.3,11.1-40.4,37.4-42.6,41c-2.2,3.7-36.8,28.4-43.3,28.4c-6.5,0-45.9-6-55.7-37.4
			c-15.3-29.8-10.8-32.8-21.8-48.8c0,0-11.3-23.3-11.9-30.1c-0.6-6.8-6.3-20.2-8-24.9c-1.7-4.7-3.4-11.1-2.2-13.2
			C90.1,270.7,93.8,272.8,93.8,272.8z"/>
		<path class="st3" d="M172.4,330.1c0,0-14.7,5.6-14.3,11.6c0.3,6,1.6,11.4,0.9,17.5c-0.7,6.1-18.2,4-17.5,18.5
			c0.8,14.5,11.2,51.4,49.1,49.3s43.5-16.2,43.2-22.3c-0.3-6-8.3-23.7-8.2-31s17.9-24.7,6.3-26.1c-12-0.3-37.9-13.4-44.4-22.6"/>
		<path class="st0" d="M231.7,287.6c0,0,1.6,15.2-19.4,12.8s-5.8-19.8-2.5-18.1c3.3,1.6,4.1,4.7,2.9,9.1c-1.2,4.5,2.8,9,10.7,4.5
			C231.4,291.2,231.7,287.6,231.7,287.6z"/>
		<path class="st0" d="M157.4,272.2c0,0,3,15.8,11.4,15.7c8.4-0.1,7-5.6,9.3-8.6c2.3-3.1,8.4-0.1,8.2,3.7c-0.2,3.8-0.3,10.3-7.2,9.4
			C172.3,291.6,155.4,291.8,157.4,272.2z"/>
		<path class="st0" d="M215.8,263.2c0,0-17.1-1.2-21.6,0.6c-4.4,1.8-10.8,6.3-15.1,4.1s-7.2-6.7-11.2-4c-4,2.7-2.1-7.6,9.2-9.8
			c11.3-2.3,17.8,5.8,22.3,6.2S215.8,263.2,215.8,263.2z"/>
		<path class="st0" d="M194.4,285.4c0,0-4,2.5-3.4,8.1s-2.6,15-0.2,16.3c2.4,1.3,9.4,1.7,10.6,0.9c1.2-0.8-3.6-6.5-5.2-9.1
			c-1.7-2.6-2.2-11-2-13.6C194.4,285.4,194.4,285.4,194.4,285.4z"/>
		<path class="st2" d="M187.2,325.5c0,0-0.8,6.2-4.1,9.6c-3.3,3.4-4.1,14.8-2.8,17.2s4.7,12.8,4.7,15.8c0,3-4.5,14.6-4.1,18.7
			s2.8,11.2,4.5,13.2c1.6,2,1.8-1.8,1.8-1.8s-4.6-9.6-3.7-11.6c0.9-2,4.6-15,5.2-17.3c0.6-2.2-1.1-12.2-2.3-15.2
			c-1.2-3-1-11.6-0.2-13.2s5.3-6.5,5.3-7.1c0-0.6,1.7-3.3,1.7-3.3S187.7,327.5,187.2,325.5z"/>
		<path class="st0" d="M125.2,206.6c0,0,7.7,15.4,13.6,16s28.4,2.9,31.4-0.3c3-3.2,5.1-2.3,3.4,0.3s-9.9,3.7-16.9,2.9
			s-21.9-0.3-24.2-2.9s-7.3-13.4-7.3-14.7S125.2,206.6,125.2,206.6z"/>
		<path class="st0" d="M284,325.5c0,0,18.3-12.1,24.8-10.9c6.5,1.2,11,6,9.3,10.5c-1.7,4.5,6.8-6.1,0.4-10.5
			c-6.4-4.4-12.2-2.1-17.9,0S284,325.5,284,325.5z"/>
		<path class="st0" d="M81.9,270.4c0,0,2.3-10.1,7.8-9.2c5.5,0.9,15.8,15.9,17.1,19.5s2.2,9.3,2.2,9.3s0-13-2.2-16.5
			c-2.2-3.6-11.6-15-14.4-15.2c-2.8-0.2-11.5,5.5-11.2,7.5C81.5,267.7,81.9,270.4,81.9,270.4z"/>
	</g>
</g>
</svg>
