<?xml version="1.0" encoding="utf-8"?>
<!-- Generator: Adobe Illustrator 21.1.0, SVG Export Plug-In . SVG Version: 6.00 Build 0)  -->
<svg version="1.1" xmlns="http://www.w3.org/2000/svg" xmlns:xlink="http://www.w3.org/1999/xlink" x="0px" y="0px"
	 viewBox="0 0 284 383.4" style="enable-background:new 0 0 284 383.4;" xml:space="preserve">
<style type="text/css">
	.st0{fill:#564A70;}
	.st1{fill:#36223D;}
	.st2{fill:#65778C;}
	.st3{fill:#8DC6CF;}
	.st4{fill:#BFE7F3;}
	.st5{fill:#D6D6D6;}
	.st6{fill:#FFFFFF;}
	.st7{fill:#3A2121;}
	.st8{fill:#6D4A49;}
	.st9{fill:#8A6564;}
	.st10{fill:#CE8E8E;}
	.st11{fill:#F1C0BF;}
	.st12{fill:#8DC6CF;stroke:#8DC6CF;stroke-miterlimit:10;}
	.st13{fill:none;stroke:#8DC6CF;stroke-width:3;stroke-miterlimit:10;}
	.st14{fill:#CE8E8D;}
	.st15{fill:none;stroke:#564A70;stroke-miterlimit:10;}
</style>
<g id="Layer_1">
</g>
<g id="Layer_2">
	<g>
		<g>
			<path class="st1" d="M86.9,160.4c0,0,4.8,16.6,7.1,20.8c2.3,4.2-2.8,12.7-3.5,16.8c-0.7,4.1-1.4,16.7,2.9,19.1
				c4.3,2.5,34.9,23,37.8,27.3c2.9,4.3,23.4,7.2,29.4,5.6c6-1.6,17.5-7.4,18.9-11.7c1.4-4.3,19.8-32,24.8-36.5
				c5-4.5,10.9-13.6,10.9-20.6c0-7.1-4.1-15-6.8-15c-2.7,0-17.8,2-17.8,2L86.9,160.4z"/>
			<path class="st2" d="M101.2,167.8c0,0-1.8,2.8,0,4.3c1.8,1.4,5.8,1.4,5.6,7.3s1.5,6.5-0.6,10.4c-2.1,3.8-1.7,9.5,0.6,13.1
				c2.3,3.6,12.2,14,12.8,15.5c0.7,1.6,7.9,4.1,11.5,5.6c3.6,1.6,10.3,6.5,12.1,9.2c1.8,2.7,6,9.2,7.8,9.2s9.8,3.2,15.3,0
				c5.4-3.2,6.8-5.6,7.7-10.6c0.9-5,4.5-13.3,6.6-16.5c2.2-3.3,10.9-12.5,12.4-13s9.3-12.4,9.3-14.6s1.8-9,1.9-9.9
				c0.1-0.9,1.5-3.1,2.2-5.2s0.9-6.2-1.1-4.8c-2,1.4-7.7,5.2-7.7,5.2L101.2,167.8z"/>
			<path class="st3" d="M209.1,126.9c0,0-5.6-30.9-8.8-32.9c-3.2-2-16.6-18.9-16.6-18.9l1.8-3.5c0,0,17.8,6.8,22,16
				c4.2,9.3,2.9,27.4,2.9,29.7C210.5,119.6,209.1,126.9,209.1,126.9z"/>
			<path class="st3" d="M117.4,75c0,0-28.2,6.9-29.8,13c-1.6,6.1-10.9,38.7-10.9,42.4s1.2,9.9,1.2,9.9s8.4-11.3,8.4-14.7
				s1.9-17.7,5.1-23.1c3.2-5.4,22.5-24,24.2-25C117.3,76.5,117.4,75,117.4,75z"/>
			<path class="st1" d="M82.5,130.4c0,0,1,22.3,3.7,27c2.7,4.7,22.6,14.3,23.6,14.6c1,0.3,5.1,22.9,16.6,27
				c11.5,4.1,24.3,15.9,27.7,16.2c3.4,0.3,17.2-4.1,20.3-7.8s16.6-19.3,17.6-21.3c1-2,12.2-22,12.2-22s5.1-14.2,0-22.3
				c0,0,2.5-3.4,2.3-11.5s-3.3-15.9-3.3-16.9s-1.4-16.6-2.7-19.6s-18.9-26.7-24.7-27.7c-5.7-1-27.4-0.3-32.5,3.4
				c-5,3.7-30,0-39.8,12.2s-18.9,23.3-18.6,29.7C85.2,117.9,82.5,130.4,82.5,130.4z"/>
			<path class="st2" d="M144.4,132.4c0,0-7.9,2.7-9.6,5.1c-1.7,2.4-3.7,5.4-3.7,6.8s-0.3,7.4-2.7,7.8c-2.4,0.3-7.8-6.8-13.2-2
				c-5.4,4.7-8.4,10.1-8.4,13.5s3.9,7,4.9,8.5c1,1.5,4.9,13.1,7.1,16.3s6.1,9.6,10.3,10.1c4.2,0.5,11.8,4.4,13.2,5.2
				c1.4,0.8,10.5,9.8,12.5,9.8s12.2-3.4,14.7-5.7s4.4-2.2,5.9-3.5c1.5-1.4,3.5-6.4,4.7-7.6s9-11.3,9.6-11.3s6.8-11.3,7.8-12.3
				c1-1,6.8-16.2,6.8-18.1s-3-10.6-10-12.5s-7.6,1-11,3.2c-3.4,2.2-5.1-9-6.8-10.8c-1.7-1.9-8.8-3.2-10.6-3.2s-4.6,0-4.6,0
				L144.4,132.4z"/>
			<path class="st0" d="M152.2,130.4c-6.1,0.6-11.1,3.5-11.1,5.1c0,1.5-1,11.3,1.4,13s6.3,6.8,9.8,6.8c3.5,0,8.6-1.4,10.6-2.5
				s7.6-4.9,7.8-8.6s2.7-7.1,0-8.8c-2.7-1.7-4.9-2.7-9.3-3.7S158.4,129.9,152.2,130.4z"/>
			<path class="st1" d="M116.2,155.3c0,0-2.7,2.5,0.8,8.3s12.3,15.9,20.3,14.4s15-12.5,20.3-12.3c5.2,0.2,14,11.1,18.8,9.5
				c4.7-1.7,16.2-19.8,17.4-19.8s1.7,8.6,0,13.7c-1.7,5.1-9.5,16-12.3,18.6c-2.9,2.5-10.5,15.2-13.2,16.6c-2.7,1.4-10.5,3.2-12.8,3
				c-2.3-0.2-11.7-8.4-13.8-8.4s-8.8-2.2-10.1-3.9s-20.4-26-19.9-30.9C112.2,159,116.2,155.3,116.2,155.3z"/>
			<path class="st2" d="M96.1,124.8c0,0,6.3,0.3,6.8,2.5c0.5,2.2,0.7,4.6,2.5,6.6c1.9,2,0.2,3.8-3.7,6.6c-3.9,2.7-0.1,11-0.6,14.2
				c-0.5,3.2-5-1.2-5-4.1c0-2.9,0.7-9.3,1.7-11.5c1-2.2-1.7-7.3-1.7-10.8C96.1,124.8,96.1,124.8,96.1,124.8z"/>
			<path class="st2" d="M129.4,102.2c0,0-1.7,0.8-1.5,2c0.2,1.2,2.7,7.8,4.4,7.9c1.7,0.2,5.6-5.2,5.9-7.1c0.3-1.9-2.9-6.4-4.2-6.6
				c-1.4-0.2-3.9-0.3-4.2,1.7C129.4,102.2,129.4,102.2,129.4,102.2z"/>
			<path class="st2" d="M160.5,100c0,0,1.7,7.3,2.7,7.8c1,0.5,2.5,0.2,3.9,0c1.4-0.2,4.9-6.8,6.4-7.8c1.5-1-2.4-3.9-5.1-2.5
				c-2.7,1.4-2.9,0.8-4.6,0.9C162.2,98.5,160.5,100,160.5,100z"/>
			<path class="st2" d="M199.3,113c0,0-1.2,4.2-3.2,5.4c-2,1.2-3.2,5.6-3.2,6.4s3.7,5.7,6.4,6.8s2.7,3.2,3.7,2.2
				c1-1-3.4-9.2-3.5-10.3c-0.2-1.1,1.7-8.3,1.5-9.5C200.9,112.8,199.3,113,199.3,113z"/>
			<path class="st0" d="M170,118.8c0,0-0.9-9.2,2.6-9.3c3.5-0.2,8.5-4,14.2,0c5.7,4,2.2,8.5-2.4,11.3c-4.6,2.8-14.3,4.7-14.3,1.4
				S170,118.8,170,118.8z"/>
			<path class="st0" d="M114.5,120.5c0,0,3-6.6,6.5-6.3s8.7,0.7,10.6,4.2c1.9,3.5,3,4.8,1.9,6.8c-1.1,1.9-4.2,2.7-9.3,2.2
				s-9.7-1.9-9.7-4.4C114.5,120.5,114.5,120.5,114.5,120.5z"/>
			<path class="st1" d="M118.7,73.6c0,0-14.5,0.2-16.6,1c-2,0.8-19.9,11.7-23.3,12.7c-3.4,1-8.8,3.5-13,6.8
				c-4.2,3.2-7.8,5.2-9.3,5.8c-1.5,0.6-1.7,13.6-1.4,14.6c0.3,1,15.9,18.8,15.9,22.1c0,3.4-2.2,12.8-1,13.2c1.2,0.3,6.8,2,7.4,0
				s0.7-12,0.8-14.3c0.2-2.3,2.9-13.8,3.4-18.3c0.5-4.6,9.5-28.5,11-29.1s5.5-2.9,7.7-3.9C102.6,83.2,118.7,73.6,118.7,73.6z"/>
			<path class="st1" d="M180.5,69.4c0,0,3.8,2.3,6.6,2.3c2.8,0,9.4,0.3,11,0c1.6-0.3,15.1,5.2,17.2,5.2c2,0,11.7,3.7,11.7,4.6
				s1.5,11.3,0.7,15.7c-0.8,4.4-3.2,8.5-5.7,12.9s-6.8,11.8-6.4,14.9c0.3,3,2.2,7.4,2.2,9.2s-1,3.1-2.2,3.1s-6.1-7.6-6.3-10.3
				s0-12-0.2-16.6c-0.2-4.6-0.9-16.2-2.6-18.6c-1.8-2.4-3.4-3.9-6.8-7.4c-3.4-3.5-6.6-9.1-8.3-9.3c-1.7-0.2-3.8-1.6-5.1-1.4
				c-1.3,0.2-4.7,0-4.7,0L180.5,69.4z"/>
			<g>
				<circle class="st12" cx="175.3" cy="114.3" r="5.3"/>
				<circle class="st0" cx="174.8" cy="113.7" r="4.8"/>
				
					<ellipse transform="matrix(0.9227 -0.3854 0.3854 0.9227 -29.5872 77.6429)" class="st4" cx="178.9" cy="112.6" rx="1.1" ry="1.1"/>
			</g>
			<g>
				<circle class="st12" cx="127" cy="120.9" r="5.1"/>
				<circle class="st0" cx="127.4" cy="120.3" r="4.7"/>
				
					<ellipse transform="matrix(0.3854 -0.9227 0.9227 0.3854 -34.1307 187.3005)" class="st4" cx="123.5" cy="119.3" rx="1.1" ry="1.1"/>
			</g>
			<path class="st3" d="M155,178.2c0,0-0.7-0.4-1.8-0.6c-0.5-0.1-1-0.2-1.7-0.1c-2.1,0-8.4,0.3-9.7,1.9c-1.3,1.6-3.7,5.8-3.8,8.5
				c-0.1,2.7-1.1,6.9,0.1,7.2c1.2,0.3,0.7-0.5,3.4,1.8c2.6,2.3,4.5,7.9,6.3,8.7s7.3,1.9,10.7,1.2s7.6-2.9,8.5-5c0.9-2.1,2-7.5,3-8
				s4-0.7,4.8-2c0.8-1.3-0.4-13.6-1.7-14.8c-1.3-1.3-5.9-2-7.9-1.8c-1.9,0.2-5.5,0.9-7,1.6S155,178.2,155,178.2z"/>
			<path class="st2" d="M153.3,177.6l3.8-0.2c0,0-1.7,1-1.6,1.8c0.1,0.8-0.5,3.4,0,5.2c0.5,1.8,1.4,4.1,1.6,5.5
				c0.1,1.4-1.3,4.7-1.6,5.4c-0.3,0.7-0.6,3,0,4.8c0.6,1.9,0,1.8,0,1.8s-1-3.5-0.9-4.1c0.1-0.6,0.6-3.6,0.9-5.2
				c0.3-1.6,0.3-5.4-0.3-6.3c-0.6-0.8-1.2-3.1-1.2-3.9c0-0.8,0.1-2.6,0-3.1S154.1,178.2,153.3,177.6z"/>
			<path class="st1" d="M170.4,141.6c0,0,2.1,5.3-5.6,6.5c-7.7,1.2-4.1-6.5-2.7-6.2s1.9,1.3,2,3c0,1.7,1.9,2.9,4.3,0.5
				C170.7,143,170.4,141.6,170.4,141.6z"/>
			<path class="st1" d="M141.1,143.2c0,0,1.7,6,5,5.7c3.3-0.3,2.5-2.4,3.3-3.7s3.3-0.3,3.3,1.2s0.2,4-2.5,3.9
				C147.5,150.2,141,150.8,141.1,143.2z"/>
			<path class="st1" d="M164.1,132.8c0,0-5.3,0.1-6.7,0.5s-3.2,1.5-4.6,1.1s-2.4-1.2-3.6-0.6c-1.1,0.6-0.9-1.5,2.6-2.2
				s5.7,0.9,7.1,0.9C160.4,132.5,164.1,132.8,164.1,132.8z"/>
			<path class="st1" d="M156,147.1c0,0-0.8,0.9-0.5,2.5c0.4,1.6,0,4.5,0.6,4.8c0.6,0.3,2.3,0.1,2.5-0.2s-1.1-1.8-1.6-2.5
				s-1-3.2-1-3.9C156,147.1,156,147.1,156,147.1z"/>
		</g>
		<g>
			<path class="st1" d="M90.3,305.9H88v5.2H85v-14.2h5.3c1.7,0,3,0.4,3.9,1.1c0.9,0.7,1.4,1.8,1.4,3.2c0,1-0.2,1.8-0.6,2.4
				s-1.1,1.2-1.9,1.5l3.1,5.8v0.1H93L90.3,305.9z M88,303.6h2.4c0.7,0,1.3-0.2,1.7-0.6c0.4-0.4,0.6-0.9,0.6-1.5
				c0-0.7-0.2-1.2-0.6-1.6s-1-0.6-1.8-0.6H88V303.6z"/>
			<path class="st1" d="M109.6,304.4c0,1.4-0.2,2.6-0.7,3.7c-0.5,1.1-1.2,1.9-2.1,2.4c-0.9,0.6-2,0.9-3.2,0.9
				c-1.2,0-2.2-0.3-3.2-0.8c-0.9-0.6-1.6-1.4-2.1-2.4s-0.8-2.3-0.8-3.6v-0.7c0-1.4,0.3-2.6,0.8-3.7c0.5-1.1,1.2-1.9,2.1-2.5
				c0.9-0.6,2-0.9,3.2-0.9c1.2,0,2.2,0.3,3.2,0.9c0.9,0.6,1.6,1.4,2.1,2.5c0.5,1.1,0.8,2.3,0.8,3.7V304.4z M106.6,303.7
				c0-1.5-0.3-2.6-0.8-3.4c-0.5-0.8-1.3-1.2-2.3-1.2c-1,0-1.7,0.4-2.3,1.1c-0.5,0.8-0.8,1.9-0.8,3.4v0.7c0,1.5,0.3,2.6,0.8,3.4
				c0.5,0.8,1.3,1.2,2.3,1.2c1,0,1.7-0.4,2.3-1.2s0.8-1.9,0.8-3.4V303.7z"/>
			<path class="st1" d="M121.7,299.3h-4.4v11.8h-2.9v-11.8h-4.3v-2.4h11.6V299.3z"/>
			<path class="st1" d="M134.4,299.3H130v11.8h-2.9v-11.8h-4.3v-2.4h11.6V299.3z"/>
			<path class="st1" d="M147.4,307l1.9-10.1h2.9l-3.2,14.2h-2.9l-2.3-9.5l-2.3,9.5h-2.9l-3.2-14.2h2.9l1.9,10.1l2.3-10.1h2.5
				L147.4,307z"/>
			<path class="st1" d="M162.5,305h-5.6v3.8h6.6v2.4h-9.5v-14.2h9.5v2.4h-6.6v3.4h5.6V305z"/>
			<path class="st1" d="M168.4,311.1h-2.9v-14.2h2.9V311.1z"/>
			<path class="st1" d="M174.2,308.8h6.2v2.4h-9.2v-14.2h2.9V308.8z"/>
			<path class="st1" d="M190.7,305h-5.6v3.8h6.6v2.4h-9.5v-14.2h9.5v2.4h-6.6v3.4h5.6V305z"/>
			<path class="st1" d="M198.8,305.9h-2.3v5.2h-2.9v-14.2h5.3c1.7,0,3,0.4,3.9,1.1c0.9,0.7,1.4,1.8,1.4,3.2c0,1-0.2,1.8-0.6,2.4
				s-1.1,1.2-1.9,1.5l3.1,5.8v0.1h-3.1L198.8,305.9z M196.5,303.6h2.4c0.7,0,1.3-0.2,1.7-0.6c0.4-0.4,0.6-0.9,0.6-1.5
				c0-0.7-0.2-1.2-0.6-1.6s-1-0.6-1.8-0.6h-2.4V303.6z"/>
			<path class="st0" d="M59.4,330.9h1.4c0.7,0,1.3-0.2,1.7-0.6c0.4-0.4,0.6-0.9,0.6-1.6c0-0.7-0.2-1.2-0.5-1.6
				c-0.4-0.4-0.9-0.6-1.6-0.6c-0.6,0-1.2,0.2-1.6,0.6s-0.6,0.8-0.6,1.4h-2.4c0-0.7,0.2-1.4,0.6-2c0.4-0.6,0.9-1.1,1.6-1.4
				s1.5-0.5,2.3-0.5c1.4,0,2.5,0.4,3.3,1.1s1.2,1.7,1.2,3c0,0.6-0.2,1.2-0.6,1.8c-0.4,0.6-0.9,1-1.6,1.3c0.8,0.3,1.4,0.7,1.8,1.3
				c0.4,0.6,0.6,1.3,0.6,2.1c0,1.3-0.4,2.3-1.3,3c-0.9,0.8-2,1.1-3.5,1.1c-1.4,0-2.5-0.4-3.4-1.1c-0.9-0.7-1.3-1.7-1.3-2.9h2.4
				c0,0.6,0.2,1.1,0.6,1.5s1,0.6,1.7,0.6c0.7,0,1.3-0.2,1.7-0.6c0.4-0.4,0.6-1,0.6-1.7c0-0.7-0.2-1.3-0.7-1.7
				c-0.4-0.4-1.1-0.6-2-0.6h-1.4V330.9z"/>
			<path class="st0" d="M77.7,339.1h-9.6v-1.6l4.7-5.2c0.7-0.8,1.2-1.4,1.5-1.9c0.3-0.5,0.4-1,0.4-1.5c0-0.7-0.2-1.2-0.6-1.6
				s-0.9-0.6-1.5-0.6c-0.8,0-1.4,0.2-1.8,0.7c-0.4,0.5-0.6,1.1-0.6,1.9h-2.4c0-0.9,0.2-1.6,0.6-2.3c0.4-0.7,1-1.2,1.7-1.6
				s1.6-0.6,2.5-0.6c1.4,0,2.5,0.3,3.3,1c0.8,0.7,1.2,1.7,1.2,2.9c0,0.7-0.2,1.5-0.6,2.2s-1.1,1.7-2,2.7l-3.5,3.7h6.6V339.1z"/>
			<path class="st0" d="M88.6,328.7c0,0.7-0.2,1.3-0.5,1.9c-0.4,0.5-0.8,1-1.5,1.3c0.7,0.3,1.3,0.8,1.7,1.4s0.6,1.3,0.6,2
				c0,1.2-0.4,2.2-1.3,3c-0.8,0.7-2,1.1-3.4,1.1c-1.4,0-2.5-0.4-3.4-1.1s-1.3-1.7-1.3-3c0-0.8,0.2-1.4,0.6-2.1
				c0.4-0.6,1-1.1,1.7-1.4c-0.6-0.3-1.1-0.7-1.5-1.3c-0.4-0.5-0.5-1.2-0.5-1.9c0-1.2,0.4-2.2,1.2-2.9s1.8-1.1,3.2-1.1
				c1.3,0,2.4,0.4,3.2,1.1S88.6,327.5,88.6,328.7z M86.5,335.1c0-0.7-0.2-1.3-0.6-1.7s-1-0.6-1.7-0.6c-0.7,0-1.2,0.2-1.7,0.6
				c-0.4,0.4-0.6,1-0.6,1.7c0,0.7,0.2,1.3,0.6,1.7c0.4,0.4,1,0.6,1.7,0.6c0.7,0,1.3-0.2,1.7-0.6S86.5,335.9,86.5,335.1z M86.2,328.8
				c0-0.6-0.2-1.1-0.5-1.5c-0.4-0.4-0.8-0.6-1.4-0.6s-1.1,0.2-1.4,0.6s-0.5,0.9-0.5,1.6c0,0.7,0.2,1.2,0.5,1.6
				c0.4,0.4,0.8,0.6,1.4,0.6s1.1-0.2,1.4-0.6C86.1,329.9,86.2,329.4,86.2,328.8z"/>
			<path class="st0" d="M105.6,334c0,1.6-0.4,2.9-1.1,3.9s-1.7,1.5-3,1.5c-1.2,0-2.1-0.4-2.8-1.1v5h-2.4v-14.6h2.2l0.1,1.1
				c0.7-0.8,1.6-1.3,2.8-1.3c1.3,0,2.3,0.5,3,1.4s1.1,2.3,1.1,4V334z M103.3,333.8c0-1.1-0.2-1.9-0.6-2.5s-1-0.9-1.8-0.9
				c-1,0-1.7,0.4-2.1,1.2v4.7c0.4,0.8,1.1,1.2,2.1,1.2c0.8,0,1.3-0.3,1.8-0.9C103.1,335.9,103.3,335,103.3,333.8z"/>
			<path class="st0" d="M107.3,333.8c0-1,0.2-2,0.6-2.8s1-1.5,1.7-1.9s1.6-0.7,2.6-0.7c1.4,0,2.6,0.5,3.5,1.4s1.4,2.1,1.4,3.7l0,0.6
				c0,1-0.2,2-0.6,2.8s-1,1.5-1.7,1.9c-0.7,0.4-1.6,0.7-2.6,0.7c-1.5,0-2.7-0.5-3.6-1.5c-0.9-1-1.3-2.3-1.3-4V333.8z M109.7,334
				c0,1.1,0.2,1.9,0.7,2.6s1.1,0.9,1.9,0.9s1.4-0.3,1.9-0.9c0.4-0.6,0.7-1.5,0.7-2.7c0-1.1-0.2-1.9-0.7-2.5s-1.1-0.9-1.9-0.9
				c-0.8,0-1.4,0.3-1.8,0.9C109.9,331.8,109.7,332.7,109.7,334z"/>
			<path class="st0" d="M125.7,338.1c-0.7,0.8-1.7,1.2-3,1.2c-1.1,0-2-0.3-2.6-1c-0.6-0.7-0.9-1.6-0.9-2.9v-6.8h2.4v6.8
				c0,1.3,0.6,2,1.7,2c1.2,0,1.9-0.4,2.3-1.2v-7.6h2.4v10.6h-2.2L125.7,338.1z"/>
			<path class="st0" d="M132.7,328.6l0.1,1.2c0.8-0.9,1.8-1.4,3.1-1.4c2.2,0,3.3,1.3,3.4,3.8v7h-2.4v-6.8c0-0.7-0.1-1.2-0.4-1.5
				c-0.3-0.3-0.8-0.5-1.4-0.5c-1,0-1.7,0.4-2.1,1.3v7.5h-2.4v-10.6H132.7z"/>
			<path class="st0" d="M141.3,333.8c0-1.6,0.4-2.9,1.1-3.9c0.8-1,1.8-1.5,3-1.5c1.1,0,2,0.4,2.7,1.2v-5.4h2.4v15h-2.1l-0.1-1.1
				c-0.7,0.9-1.7,1.3-2.8,1.3c-1.2,0-2.2-0.5-3-1.5C141.7,336.8,141.3,335.5,141.3,333.8z M143.7,334c0,1.1,0.2,1.9,0.6,2.5
				c0.4,0.6,1,0.9,1.8,0.9c1,0,1.7-0.4,2.1-1.3v-4.5c-0.4-0.8-1.1-1.3-2.1-1.3c-0.8,0-1.4,0.3-1.8,0.9
				C143.9,331.8,143.7,332.8,143.7,334z"/>
			<path class="st0" d="M159.1,336.3c0-0.4-0.2-0.7-0.5-1c-0.3-0.2-0.9-0.4-1.7-0.6c-0.8-0.2-1.5-0.4-2-0.6
				c-1.2-0.6-1.8-1.4-1.8-2.5c0-0.9,0.4-1.7,1.2-2.3c0.8-0.6,1.7-0.9,2.9-0.9c1.3,0,2.3,0.3,3.1,0.9c0.8,0.6,1.2,1.4,1.2,2.4H159
				c0-0.5-0.2-0.8-0.5-1.1c-0.3-0.3-0.8-0.5-1.3-0.5c-0.5,0-0.9,0.1-1.3,0.4c-0.3,0.2-0.5,0.6-0.5,1c0,0.4,0.2,0.6,0.5,0.8
				c0.3,0.2,0.9,0.4,1.9,0.6c0.9,0.2,1.7,0.4,2.2,0.7c0.5,0.3,0.9,0.6,1.2,1c0.3,0.4,0.4,0.9,0.4,1.4c0,1-0.4,1.7-1.2,2.3
				c-0.8,0.6-1.8,0.9-3.1,0.9c-0.9,0-1.6-0.2-2.3-0.5c-0.7-0.3-1.2-0.7-1.6-1.3c-0.4-0.5-0.6-1.1-0.6-1.8h2.3c0,0.6,0.2,1,0.6,1.3
				s0.9,0.5,1.6,0.5c0.6,0,1.1-0.1,1.4-0.4C158.9,337,159.1,336.7,159.1,336.3z"/>
			<path class="st0" d="M168.2,333.8c0-1,0.2-2,0.6-2.8s1-1.5,1.7-1.9s1.6-0.7,2.6-0.7c1.4,0,2.6,0.5,3.5,1.4s1.4,2.1,1.4,3.7l0,0.6
				c0,1-0.2,2-0.6,2.8s-1,1.5-1.7,1.9c-0.7,0.4-1.6,0.7-2.6,0.7c-1.5,0-2.7-0.5-3.6-1.5c-0.9-1-1.3-2.3-1.3-4V333.8z M170.6,334
				c0,1.1,0.2,1.9,0.7,2.6s1.1,0.9,1.9,0.9s1.4-0.3,1.9-0.9c0.4-0.6,0.7-1.5,0.7-2.7c0-1.1-0.2-1.9-0.7-2.5s-1.1-0.9-1.9-0.9
				c-0.8,0-1.4,0.3-1.8,0.9C170.9,331.8,170.6,332.7,170.6,334z"/>
			<path class="st0" d="M181,339.1v-8.8h-1.6v-1.8h1.6v-1c0-1.2,0.3-2.1,1-2.7c0.7-0.6,1.6-1,2.7-1c0.4,0,0.9,0.1,1.3,0.2L186,326
				c-0.3-0.1-0.6-0.1-0.9-0.1c-1.1,0-1.7,0.6-1.7,1.7v0.9h2.1v1.8h-2.1v8.8H181z"/>
			<path class="st0" d="M193.3,339.1v-8.8h-1.6v-1.8h1.6v-1c0-1.2,0.3-2.1,1-2.7c0.7-0.6,1.6-1,2.7-1c0.4,0,0.9,0.1,1.3,0.2
				l-0.1,1.9c-0.3-0.1-0.6-0.1-0.9-0.1c-1.1,0-1.7,0.6-1.7,1.7v0.9h2.1v1.8h-2.1v8.8H193.3z"/>
			<path class="st0" d="M199.3,333.8c0-1,0.2-2,0.6-2.8s1-1.5,1.7-1.9s1.6-0.7,2.6-0.7c1.4,0,2.6,0.5,3.5,1.4s1.4,2.1,1.4,3.7l0,0.6
				c0,1-0.2,2-0.6,2.8s-1,1.5-1.7,1.9c-0.7,0.4-1.6,0.7-2.6,0.7c-1.5,0-2.7-0.5-3.6-1.5c-0.9-1-1.3-2.3-1.3-4V333.8z M201.6,334
				c0,1.1,0.2,1.9,0.7,2.6s1.1,0.9,1.9,0.9s1.4-0.3,1.9-0.9c0.4-0.6,0.7-1.5,0.7-2.7c0-1.1-0.2-1.9-0.7-2.5s-1.1-0.9-1.9-0.9
				c-0.8,0-1.4,0.3-1.8,0.9C201.9,331.8,201.6,332.7,201.6,334z"/>
			<path class="st0" d="M216.8,330.7c-0.3-0.1-0.6-0.1-1-0.1c-1.1,0-1.8,0.4-2.2,1.2v7.2h-2.4v-10.6h2.3l0.1,1.2
				c0.6-0.9,1.4-1.4,2.4-1.4c0.3,0,0.6,0,0.8,0.1L216.8,330.7z"/>
			<path class="st0" d="M222.5,337.4c0.6,0,1.1-0.2,1.5-0.5s0.6-0.8,0.6-1.3h2.2c0,0.7-0.2,1.3-0.6,1.8c-0.4,0.6-0.9,1-1.6,1.4
				c-0.7,0.3-1.4,0.5-2.1,0.5c-1.5,0-2.7-0.5-3.5-1.4c-0.9-1-1.3-2.3-1.3-4v-0.2c0-1.6,0.4-2.9,1.3-3.9s2-1.5,3.5-1.5
				c1.3,0,2.3,0.4,3.1,1.1s1.2,1.7,1.2,2.9h-2.2c0-0.6-0.2-1.1-0.6-1.5c-0.4-0.4-0.9-0.6-1.5-0.6c-0.8,0-1.4,0.3-1.8,0.8
				c-0.4,0.6-0.6,1.4-0.6,2.5v0.4c0,1.1,0.2,2,0.6,2.6C221.2,337.2,221.8,337.4,222.5,337.4z"/>
			<path class="st0" d="M233.4,339.3c-1.5,0-2.7-0.5-3.7-1.4c-0.9-0.9-1.4-2.2-1.4-3.8v-0.3c0-1.1,0.2-2,0.6-2.8
				c0.4-0.8,1-1.5,1.7-1.9c0.7-0.5,1.6-0.7,2.5-0.7c1.4,0,2.6,0.5,3.3,1.4c0.8,0.9,1.2,2.2,1.2,3.9v1h-6.9c0.1,0.9,0.4,1.6,0.9,2.1
				c0.5,0.5,1.2,0.8,1.9,0.8c1.1,0,2-0.4,2.7-1.3l1.3,1.2c-0.4,0.6-1,1.1-1.7,1.5C235.1,339.2,234.3,339.3,233.4,339.3z
				 M233.2,330.3c-0.7,0-1.2,0.2-1.6,0.7s-0.7,1.1-0.8,1.9h4.5v-0.2c-0.1-0.8-0.3-1.4-0.6-1.8S233.8,330.3,233.2,330.3z"/>
		</g>
	</g>
</g>
<g id="Layer_3">
</g>
</svg>
