<?xml version="1.0" encoding="utf-8"?>
<!-- Generator: Adobe Illustrator 21.1.0, SVG Export Plug-In . SVG Version: 6.00 Build 0)  -->
<svg version="1.1" xmlns="http://www.w3.org/2000/svg" xmlns:xlink="http://www.w3.org/1999/xlink" x="0px" y="0px"
	 viewBox="0 0 284 383.4" style="enable-background:new 0 0 284 383.4;" xml:space="preserve">
<style type="text/css">
	.st0{fill:#564A70;}
	.st1{fill:#36223D;}
	.st2{fill:#65778C;}
	.st3{fill:#8DC6CF;}
	.st4{fill:#BFE7F3;}
	.st5{fill:#D6D6D6;}
	.st6{fill:#FFFFFF;}
	.st7{fill:#3A2121;}
	.st8{fill:#6D4A49;}
	.st9{fill:#8A6564;}
	.st10{fill:#CE8E8E;}
	.st11{fill:#F1C0BF;}
	.st12{fill:#8DC6CF;stroke:#8DC6CF;stroke-miterlimit:10;}
	.st13{fill:none;stroke:#8DC6CF;stroke-width:3;stroke-miterlimit:10;}
	.st14{fill:#CE8E8D;}
	.st15{fill:none;stroke:#564A70;stroke-miterlimit:10;}
</style>
<g id="Layer_1">
</g>
<g id="Layer_2">
	<g>
		<path class="st3" d="M106.6,127.2c0,0-5.4-28.9-13.5-27c0,0-1.1,13.4-1.1,16.8c0,3.3-15.5,36-16.3,40.1c-0.8,4.1,13.4,52,13.4,52
			s9.5,28.8,12.9,31.3s42.2,17.1,71,9.9c0,0,44-46.2,45.2-61.6s-15.3-23-15.3-24.4s-0.4-41-0.2-42.4s-11.2-13.8-15.3-12
			C183.2,111.6,109.9,127.2,106.6,127.2z"/>
		<path class="st2" d="M86.9,201.9c0,0-13.3-39.8-11.3-44.8c2.1-5,19.4-42.8,19.9-44.4c0.6-1.6,17.1-2.7,16.9,1.1
			c-0.1,3.8-8.7,61.1-8.5,65.2S92.7,213.7,90.7,209C88.8,204.4,86.9,201.9,86.9,201.9z"/>
		<path class="st1" d="M105.5,172.3c0,0-14.9,23.3-14.9,33.2c0,9.9,8.1,32,14.3,35.7s37.4,15.8,48,11.4s43.3-43.3,40.3-47.1
			c-3-3.8-16.6,4.1-21.5,7.4c-4.9,3.2-43.7,15.4-62.4,4c0,0-8.3-22.5-5.6-30.4C106.4,178.5,105.5,172.3,105.5,172.3z"/>
		<path class="st1" d="M105.4,129.1c0,0,6.4-0.2,3.9,7.9l-5,37.1c0,0,6.9,18.5,9.2,21.5c2.3,3,12.4,14.7,26.4,9.2
			c0,0,26.5-20.4,28.5-26.6c2-6.2,8.7-55.4,8.8-56.3C177.3,121.1,105.4,129.1,105.4,129.1z"/>
		<path class="st2" d="M209.9,47.4c0,0,5.8-6,8.1,2s-11.6,74.7-19.2,84.6c-7.5,9.9-5.9-20-16.6-25c0,0,19.3-15.1,24.8-33.1
			C212.6,58,209.9,47.4,209.9,47.4z"/>
		<path class="st4" d="M207.6,47c0,0,10.2-6.8,7.8,16.9C213,87.6,204.9,90.7,202,93.8s-16.1,15.5-19.2,15.7
			c-3.1,0.2-5.4-2.5-5.5-4.4s11.2-38,17.7-44.5S207.6,47,207.6,47z"/>
		<path class="st2" d="M92.7,107.2c0,0,32.4-28.2,36.1-27.5c3.8,0.6,27.5-0.2,36.7,4.8c9.2,4.9,16.5,23.7,16.5,23.7
			s20.7,14.3,17.6,19.5c-3,5.2-6.4-4.9-12.6-5.5c-6.2-0.5,6.1,14.9-11.1,16.5c-17.2,1.6-65.5-26.4-77.9-21.4S92.7,107.2,92.7,107.2z
			"/>
		<path class="st2" d="M110.3,145.6c0,0-10.2-15.3-9.4-19.8c0.8-4.4,7.3-19.9,9.4-21.6c2.2-1.7,27.2-20.9,46.1-12.9
			s25.3,30.2,24.5,35.5c-0.8,5.3-8.5,13.4-12.3,23.6c-3.7,10.1-4.4,12.5-4.4,12.5l-47.8-10L110.3,145.6z"/>
		<path class="st1" d="M164.5,84.3c0,0,42-41.9,45.1-41.2s6.7,1.8,6.6,5.6s-2-5.5-6.6-1.1s-31.8,48-28.6,59.1S169.3,86.4,164.5,84.3
			z"/>
		<path class="st1" d="M138.7,86.8c0,0-19.8-51.7-27.3-52.2c-7.6-0.5-12.2,5-14.3,11.1c-2.1,6.1-11.1,56.6-7.4,68.8
			C93.4,126.8,99.4,100.7,138.7,86.8z"/>
		<path class="st4" d="M104.3,44.3c0,0,17.5,33.2,16.9,39.4c-0.5,6.2-27.6,24.2-27.8,23.2C93.3,105.9,91.7,53.5,104.3,44.3z"/>
		<path class="st4" d="M127,183.8c0,0-9.6,15.4-9.5,18.5c0,3.1,0.7,16.1,6.9,16.6c6.2,0.5,14.5-3.5,15.7-5.9
			c1.2-2.4,0.7-10.8-0.6-22.3C138.2,179.2,127,183.8,127,183.8z"/>
		<path class="st1" d="M133.3,147.2c0,0-2.7-18.5-1.8-24.1c0.9-5.7-13.8-9.7-19.1-6.1c-5.3,3.6-8.9,7.1-7.9,13.4
			s12.9,15.3,11.8,18.6s15.2,2.6,15.2,2.6L133.3,147.2z"/>
		<path class="st0" d="M112.1,120.3c0,0,3.7-3.7,11.3-2s7.7,10.3,4.2,15c0,0-10.4,3.4-12.7,1.3C112.6,132.5,108.1,127.6,112.1,120.3
			z"/>
		<circle class="st4" cx="124.5" cy="125.6" r="5.7"/>
		<circle class="st0" cx="125" cy="124.9" r="5.2"/>
		
			<ellipse transform="matrix(0.3854 -0.9227 0.9227 0.3854 -40.0142 187.4035)" class="st4" cx="120.7" cy="123.7" rx="1.2" ry="1.2"/>
		<path class="st1" d="M138.9,147.1c0,0,10.8-14.3,12.5-20.1c1.7-5.8,15.1-7.3,18.7,1s4.9,7.2,0.2,15.1s-4,10.3-10.7,14.5
			c-6.7,4.1-8,0.6-8,3.3C151.6,163.5,138.9,147.1,138.9,147.1z"/>
		<path class="st0" d="M152.5,134.9c0,0,5.8-9.7,8.9-8.5c3.1,1.2,10.6,5,7.9,11.2c-2.7,6.2-7.8,7.4-10.3,5.8
			C156.5,141.9,152.5,134.9,152.5,134.9z"/>
		<circle class="st4" cx="158.9" cy="134.3" r="5.2"/>
		<circle class="st0" cx="158.4" cy="133.7" r="4.7"/>
		
			<ellipse transform="matrix(0.9227 -0.3854 0.3854 0.9227 -38.5654 72.826)" class="st4" cx="162.4" cy="132.6" rx="1.1" ry="1.1"/>
		<path class="st7" d="M176.1,156.2c0,0,1.4-3,2.6-2.3c1.2,0.7,1,2.4,0,3.1c-1,0.7-3.1,2.5-3.3,1.9S176.1,156.2,176.1,156.2z"/>
		<path class="st7" d="M104.3,146.6c0,0-2-1.6-1.6-2.5s1.6-0.8,2.1-0.1c0.5,0.7,1.8,2.1,1.3,2.3S104.3,146.6,104.3,146.6z"/>
		<path class="st2" d="M136.7,170.8c0,0-1.1,3.1-3.2,4.5c-2.1,1.4-3.8,7.2-3.5,8.6c0.3,1.4,0.9,7.2,0.6,8.7c-0.4,1.6-4,7-4.3,9.2
			s0.2,6.1,0.8,7.3c0.6,1.2,1.2-0.7,1.2-0.7s-1.3-5.5-0.6-6.4c0.7-0.9,4.1-7.2,4.7-8.3c0.6-1.1,0.9-6.4,0.6-8.1
			c-0.3-1.7,0.8-6.1,1.4-6.8c0.6-0.7,3.5-2.7,3.6-3.1c0.1-0.3,1.2-1.5,1.2-1.5S136.7,171.9,136.7,170.8z"/>
		<path class="st0" d="M110.6,145.6c0,0,20.4-0.5,28.6-4.3s17.2,21.6,25.3,21.6c0,0-1,11.9-4.3,17.3c-3.2,5.4-11.4,18.9-16.7,18.4
			c-5.3-0.5-14.1-6.9-14.1-6.9s-13.5,0.7-16.4-3S105.9,175.3,110.6,145.6z"/>
		<path class="st1" d="M125.1,164.7c0,0,17.4,0.2,19.7,9.6s-4.7,13.3-7.4,13.2c-2.7,0-14.7-0.9-15.4-3.3c-0.6-2.5-2.3-6.4-1.7-9.1
			C121,172.3,121.3,166,125.1,164.7z"/>
		<path class="st0" d="M145.1,177.8c0,0,1.9,4.8-5.1,5.9c-7,1.1-3.7-5.8-2.5-5.6c1.2,0.2,1.8,1.1,1.8,2.7c0,1.5,1.7,2.7,3.9,0.5
			C145.3,179,145.1,177.8,145.1,177.8z"/>
		<path class="st0" d="M120.2,176.1c0,0,1.5,5.3,4.4,5c2.9-0.3,2.2-2.1,2.9-3.2c0.7-1.1,2.9-0.3,2.9,1c0.1,1.3,0.2,3.5-2.2,3.4
			C125.9,182.3,120.1,182.9,120.2,176.1z"/>
		<path class="st0" d="M135,167.3c0,0-4.1,0.1-5.1,0.6s-2.4,1.7-3.5,1.3c-1.1-0.4-1.9-1.4-2.7-0.7c-0.9,0.7-0.7-1.7,1.9-2.5
			c2.6-0.8,4.3,1,5.4,1C132.1,167,135,167.3,135,167.3z"/>
		<path class="st0" d="M133.2,180.6c0,0-1.1,0.7-0.9,2.2c0.2,1.5-0.7,4.1,0,4.4c0.7,0.3,2.6,0.4,2.9,0.2c0.3-0.2-1-1.7-1.4-2.4
			c-0.5-0.7-0.6-3-0.6-3.7C133.2,180.6,133.2,180.6,133.2,180.6z"/>
		<path class="st1" d="M162.4,119.7c3.7,0.5,7.4,3,7.5,3.5c0.1,0.5,2.1,1.7,2.1,1.7s-3.5-4.3-5.7-5.2c-2.2-0.9-7.4-2.4-7.8-0.9
			C157.9,120.2,158.7,119.2,162.4,119.7z"/>
		<g>
			<path class="st1" d="M58.8,310.6c-0.5,0.6-1.3,1.1-2.2,1.5c-1,0.3-2,0.5-3.2,0.5c-1.2,0-2.3-0.3-3.2-0.8s-1.6-1.3-2.1-2.3
				c-0.5-1-0.8-2.2-0.8-3.6v-1c0-1.4,0.2-2.6,0.7-3.7s1.2-1.8,2.1-2.4c0.9-0.5,2-0.8,3.2-0.8c1.7,0,3,0.4,4,1.2c1,0.8,1.5,2,1.7,3.5
				H56c-0.1-0.8-0.4-1.4-0.9-1.8c-0.4-0.4-1.1-0.6-1.8-0.6c-1,0-1.8,0.4-2.3,1.1c-0.5,0.7-0.8,1.9-0.8,3.3v0.9
				c0,1.5,0.3,2.6,0.8,3.4s1.4,1.1,2.5,1.1c1.1,0,1.9-0.2,2.4-0.7v-2.5h-2.7V305h5.6V310.6z"/>
			<path class="st1" d="M69.9,306.3h-5.6v3.8h6.6v2.4h-9.5v-14.2h9.5v2.4h-6.6v3.4h5.6V306.3z"/>
			<path class="st1" d="M78,307.2h-2.3v5.2h-2.9v-14.2H78c1.7,0,3,0.4,3.9,1.1c0.9,0.7,1.4,1.8,1.4,3.2c0,1-0.2,1.8-0.6,2.4
				s-1.1,1.2-1.9,1.5l3.1,5.8v0.1h-3.1L78,307.2z M75.6,304.9H78c0.7,0,1.3-0.2,1.7-0.6c0.4-0.4,0.6-0.9,0.6-1.5
				c0-0.7-0.2-1.2-0.6-1.6s-1-0.6-1.8-0.6h-2.4V304.9z"/>
			<path class="st1" d="M89.4,298.2l3.7,10.3l3.6-10.3h3.8v14.2h-2.9v-3.9l0.3-6.7l-3.8,10.6h-2l-3.8-10.6l0.3,6.7v3.9h-2.9v-14.2
				H89.4z"/>
			<path class="st1" d="M111.4,309.5h-5.1l-1,2.9h-3.1l5.3-14.2h2.7l5.3,14.2h-3.1L111.4,309.5z M107.1,307.1h3.6l-1.8-5.3
				L107.1,307.1z"/>
			<path class="st1" d="M128.5,312.4h-2.9l-5.7-9.4v9.4H117v-14.2h2.9l5.7,9.4v-9.4h2.9V312.4z"/>
			<path class="st1" d="M143.7,308.7c0-0.6-0.2-1-0.6-1.3s-1.1-0.6-2.1-0.9s-1.8-0.7-2.4-1c-1.6-0.9-2.4-2-2.4-3.5
				c0-0.8,0.2-1.5,0.6-2.1c0.4-0.6,1.1-1.1,1.9-1.4s1.7-0.5,2.7-0.5c1,0,1.9,0.2,2.7,0.6c0.8,0.4,1.4,0.9,1.9,1.6s0.7,1.4,0.7,2.3
				h-2.9c0-0.7-0.2-1.2-0.6-1.5s-1-0.5-1.7-0.5c-0.7,0-1.3,0.2-1.7,0.5c-0.4,0.3-0.6,0.7-0.6,1.2c0,0.5,0.2,0.8,0.7,1.2
				c0.5,0.3,1.2,0.6,2.1,0.9c1.7,0.5,2.9,1.1,3.6,1.9s1.1,1.7,1.1,2.8c0,1.2-0.5,2.2-1.4,2.9c-0.9,0.7-2.2,1-3.8,1
				c-1.1,0-2.1-0.2-3-0.6s-1.6-0.9-2.1-1.6c-0.5-0.7-0.7-1.5-0.7-2.4h2.9c0,1.6,0.9,2.4,2.8,2.4c0.7,0,1.2-0.1,1.6-0.4
				S143.7,309.2,143.7,308.7z"/>
			<path class="st1" d="M160.3,312.4h-2.9v-6.1h-5.7v6.1h-2.9v-14.2h2.9v5.8h5.7v-5.8h2.9V312.4z"/>
			<path class="st1" d="M171.5,306.3h-5.6v3.8h6.6v2.4H163v-14.2h9.5v2.4h-6.6v3.4h5.6V306.3z"/>
			<path class="st1" d="M177.3,307.4v5h-2.9v-14.2h5.5c1.1,0,2,0.2,2.8,0.6s1.4,0.9,1.9,1.7c0.4,0.7,0.7,1.5,0.7,2.5
				c0,1.4-0.5,2.5-1.4,3.3c-1,0.8-2.3,1.2-4,1.2H177.3z M177.3,305.1h2.6c0.8,0,1.4-0.2,1.8-0.5c0.4-0.4,0.6-0.9,0.6-1.6
				c0-0.7-0.2-1.3-0.6-1.7s-1-0.7-1.7-0.7h-2.7V305.1z"/>
			<path class="st1" d="M199,312.4H196v-6.1h-5.7v6.1h-2.9v-14.2h2.9v5.8h5.7v-5.8h2.9V312.4z"/>
			<path class="st1" d="M210.2,306.3h-5.6v3.8h6.6v2.4h-9.5v-14.2h9.5v2.4h-6.6v3.4h5.6V306.3z"/>
			<path class="st1" d="M218.3,307.2h-2.3v5.2H213v-14.2h5.3c1.7,0,3,0.4,3.9,1.1c0.9,0.7,1.4,1.8,1.4,3.2c0,1-0.2,1.8-0.6,2.4
				s-1.1,1.2-1.9,1.5l3.1,5.8v0.1h-3.1L218.3,307.2z M215.9,304.9h2.4c0.7,0,1.3-0.2,1.7-0.6c0.4-0.4,0.6-0.9,0.6-1.5
				c0-0.7-0.2-1.2-0.6-1.6s-1-0.6-1.8-0.6h-2.4V304.9z"/>
			<path class="st1" d="M225.9,312.4v-14.2h4.4c1.2,0,2.4,0.3,3.4,0.8s1.8,1.4,2.3,2.4c0.6,1,0.8,2.2,0.8,3.5v0.7
				c0,1.3-0.3,2.5-0.8,3.5c-0.5,1-1.3,1.8-2.3,2.4c-1,0.6-2.1,0.9-3.3,0.9H225.9z M228.8,300.6v9.5h1.4c1.1,0,2-0.4,2.6-1.1
				s0.9-1.8,0.9-3.2V305c0-1.4-0.3-2.5-0.9-3.3c-0.6-0.7-1.5-1.1-2.6-1.1H228.8z"/>
			<path class="st0" d="M63.8,340.4h-9.6v-1.6l4.7-5.2c0.7-0.8,1.2-1.4,1.5-1.9c0.3-0.5,0.4-1,0.4-1.5c0-0.7-0.2-1.2-0.6-1.6
				s-0.9-0.6-1.5-0.6c-0.8,0-1.4,0.2-1.8,0.7c-0.4,0.5-0.6,1.1-0.6,1.9H54c0-0.9,0.2-1.6,0.6-2.3c0.4-0.7,1-1.2,1.7-1.6
				s1.6-0.6,2.5-0.6c1.4,0,2.5,0.3,3.3,1c0.8,0.7,1.2,1.7,1.2,2.9c0,0.7-0.2,1.5-0.6,2.2s-1.1,1.7-2,2.7l-3.5,3.7h6.6V340.4z"/>
			<path class="st0" d="M68.5,332.2h1.4c0.7,0,1.3-0.2,1.7-0.6c0.4-0.4,0.6-0.9,0.6-1.6c0-0.7-0.2-1.2-0.5-1.6
				c-0.4-0.4-0.9-0.6-1.6-0.6c-0.6,0-1.2,0.2-1.6,0.6s-0.6,0.8-0.6,1.4h-2.4c0-0.7,0.2-1.4,0.6-2c0.4-0.6,0.9-1.1,1.6-1.4
				s1.5-0.5,2.3-0.5c1.4,0,2.5,0.4,3.3,1.1s1.2,1.7,1.2,3c0,0.6-0.2,1.2-0.6,1.8c-0.4,0.6-0.9,1-1.6,1.3c0.8,0.3,1.4,0.7,1.8,1.3
				c0.4,0.6,0.6,1.3,0.6,2.1c0,1.3-0.4,2.3-1.3,3c-0.9,0.8-2,1.1-3.5,1.1c-1.4,0-2.5-0.4-3.4-1.1c-0.9-0.7-1.3-1.7-1.3-2.9h2.4
				c0,0.6,0.2,1.1,0.6,1.5s1,0.6,1.7,0.6c0.7,0,1.3-0.2,1.7-0.6c0.4-0.4,0.6-1,0.6-1.7c0-0.7-0.2-1.3-0.7-1.7
				c-0.4-0.4-1.1-0.6-2-0.6h-1.4V332.2z"/>
			<path class="st0" d="M86.2,330c0,0.7-0.2,1.3-0.5,1.9c-0.4,0.5-0.8,1-1.5,1.3c0.7,0.3,1.3,0.8,1.7,1.4s0.6,1.3,0.6,2
				c0,1.2-0.4,2.2-1.3,3c-0.8,0.7-2,1.1-3.4,1.1c-1.4,0-2.5-0.4-3.4-1.1s-1.3-1.7-1.3-3c0-0.8,0.2-1.4,0.6-2.1
				c0.4-0.6,1-1.1,1.7-1.4c-0.6-0.3-1.1-0.7-1.5-1.3c-0.4-0.5-0.5-1.2-0.5-1.9c0-1.2,0.4-2.2,1.2-2.9s1.8-1.1,3.2-1.1
				c1.3,0,2.4,0.4,3.2,1.1S86.2,328.8,86.2,330z M84.1,336.4c0-0.7-0.2-1.3-0.6-1.7s-1-0.6-1.7-0.6c-0.7,0-1.2,0.2-1.7,0.6
				c-0.4,0.4-0.6,1-0.6,1.7c0,0.7,0.2,1.3,0.6,1.7c0.4,0.4,1,0.6,1.7,0.6c0.7,0,1.3-0.2,1.7-0.6S84.1,337.2,84.1,336.4z M83.8,330.1
				c0-0.6-0.2-1.1-0.5-1.5c-0.4-0.4-0.8-0.6-1.4-0.6s-1.1,0.2-1.4,0.6s-0.5,0.9-0.5,1.6c0,0.7,0.2,1.2,0.5,1.6
				c0.4,0.4,0.8,0.6,1.4,0.6s1.1-0.2,1.4-0.6C83.6,331.2,83.8,330.7,83.8,330.1z"/>
			<path class="st0" d="M103.2,335.3c0,1.6-0.4,2.9-1.1,3.9s-1.7,1.5-3,1.5c-1.2,0-2.1-0.4-2.8-1.1v5h-2.4v-14.6h2.2l0.1,1.1
				c0.7-0.8,1.6-1.3,2.8-1.3c1.3,0,2.3,0.5,3,1.4s1.1,2.3,1.1,4V335.3z M100.8,335.1c0-1.1-0.2-1.9-0.6-2.5s-1-0.9-1.8-0.9
				c-1,0-1.7,0.4-2.1,1.2v4.7c0.4,0.8,1.1,1.2,2.1,1.2c0.8,0,1.3-0.3,1.8-0.9C100.6,337.2,100.8,336.3,100.8,335.1z"/>
			<path class="st0" d="M104.9,335.1c0-1,0.2-2,0.6-2.8s1-1.5,1.7-1.9s1.6-0.7,2.6-0.7c1.4,0,2.6,0.5,3.5,1.4s1.4,2.1,1.4,3.7l0,0.6
				c0,1-0.2,2-0.6,2.8s-1,1.5-1.7,1.9c-0.7,0.4-1.6,0.7-2.6,0.7c-1.5,0-2.7-0.5-3.6-1.5c-0.9-1-1.3-2.3-1.3-4V335.1z M107.3,335.3
				c0,1.1,0.2,1.9,0.7,2.6s1.1,0.9,1.9,0.9s1.4-0.3,1.9-0.9c0.4-0.6,0.7-1.5,0.7-2.7c0-1.1-0.2-1.9-0.7-2.5s-1.1-0.9-1.9-0.9
				c-0.8,0-1.4,0.3-1.8,0.9C107.5,333.1,107.3,334,107.3,335.3z"/>
			<path class="st0" d="M123.2,339.4c-0.7,0.8-1.7,1.2-3,1.2c-1.1,0-2-0.3-2.6-1c-0.6-0.7-0.9-1.6-0.9-2.9v-6.8h2.4v6.8
				c0,1.3,0.6,2,1.7,2c1.2,0,1.9-0.4,2.3-1.2v-7.6h2.4v10.6h-2.2L123.2,339.4z"/>
			<path class="st0" d="M130.3,329.9l0.1,1.2c0.8-0.9,1.8-1.4,3.1-1.4c2.2,0,3.3,1.3,3.4,3.8v7h-2.4v-6.8c0-0.7-0.1-1.2-0.4-1.5
				c-0.3-0.3-0.8-0.5-1.4-0.5c-1,0-1.7,0.4-2.1,1.3v7.5H128v-10.6H130.3z"/>
			<path class="st0" d="M138.9,335.1c0-1.6,0.4-2.9,1.1-3.9c0.8-1,1.8-1.5,3-1.5c1.1,0,2,0.4,2.7,1.2v-5.4h2.4v15H146l-0.1-1.1
				c-0.7,0.9-1.7,1.3-2.8,1.3c-1.2,0-2.2-0.5-3-1.5C139.3,338.1,138.9,336.8,138.9,335.1z M141.2,335.3c0,1.1,0.2,1.9,0.6,2.5
				c0.4,0.6,1,0.9,1.8,0.9c1,0,1.7-0.4,2.1-1.3v-4.5c-0.4-0.8-1.1-1.3-2.1-1.3c-0.8,0-1.4,0.3-1.8,0.9
				C141.5,333.1,141.2,334.1,141.2,335.3z"/>
			<path class="st0" d="M156.6,337.6c0-0.4-0.2-0.7-0.5-1c-0.3-0.2-0.9-0.4-1.7-0.6c-0.8-0.2-1.5-0.4-2-0.6
				c-1.2-0.6-1.8-1.4-1.8-2.5c0-0.9,0.4-1.7,1.2-2.3c0.8-0.6,1.7-0.9,2.9-0.9c1.3,0,2.3,0.3,3.1,0.9c0.8,0.6,1.2,1.4,1.2,2.4h-2.4
				c0-0.5-0.2-0.8-0.5-1.1c-0.3-0.3-0.8-0.5-1.3-0.5c-0.5,0-0.9,0.1-1.3,0.4c-0.3,0.2-0.5,0.6-0.5,1c0,0.4,0.2,0.6,0.5,0.8
				c0.3,0.2,0.9,0.4,1.9,0.6c0.9,0.2,1.7,0.4,2.2,0.7c0.5,0.3,0.9,0.6,1.2,1c0.3,0.4,0.4,0.9,0.4,1.4c0,1-0.4,1.7-1.2,2.3
				c-0.8,0.6-1.8,0.9-3.1,0.9c-0.9,0-1.6-0.2-2.3-0.5c-0.7-0.3-1.2-0.7-1.6-1.3c-0.4-0.5-0.6-1.1-0.6-1.8h2.3c0,0.6,0.2,1,0.6,1.3
				s0.9,0.5,1.6,0.5c0.6,0,1.1-0.1,1.4-0.4C156.5,338.3,156.6,338,156.6,337.6z"/>
			<path class="st0" d="M165.8,335.1c0-1,0.2-2,0.6-2.8s1-1.5,1.7-1.9s1.6-0.7,2.6-0.7c1.4,0,2.6,0.5,3.5,1.4s1.4,2.1,1.4,3.7l0,0.6
				c0,1-0.2,2-0.6,2.8s-1,1.5-1.7,1.9c-0.7,0.4-1.6,0.7-2.6,0.7c-1.5,0-2.7-0.5-3.6-1.5c-0.9-1-1.3-2.3-1.3-4V335.1z M168.2,335.3
				c0,1.1,0.2,1.9,0.7,2.6s1.1,0.9,1.9,0.9s1.4-0.3,1.9-0.9c0.4-0.6,0.7-1.5,0.7-2.7c0-1.1-0.2-1.9-0.7-2.5s-1.1-0.9-1.9-0.9
				c-0.8,0-1.4,0.3-1.8,0.9C168.4,333.1,168.2,334,168.2,335.3z"/>
			<path class="st0" d="M178.6,340.4v-8.8H177v-1.8h1.6v-1c0-1.2,0.3-2.1,1-2.7c0.7-0.6,1.6-1,2.7-1c0.4,0,0.9,0.1,1.3,0.2l-0.1,1.9
				c-0.3-0.1-0.6-0.1-0.9-0.1c-1.1,0-1.7,0.6-1.7,1.7v0.9h2.1v1.8H181v8.8H178.6z"/>
			<path class="st0" d="M190.9,340.4v-8.8h-1.6v-1.8h1.6v-1c0-1.2,0.3-2.1,1-2.7c0.7-0.6,1.6-1,2.7-1c0.4,0,0.9,0.1,1.3,0.2
				l-0.1,1.9c-0.3-0.1-0.6-0.1-0.9-0.1c-1.1,0-1.7,0.6-1.7,1.7v0.9h2.1v1.8h-2.1v8.8H190.9z"/>
			<path class="st0" d="M196.8,335.1c0-1,0.2-2,0.6-2.8s1-1.5,1.7-1.9s1.6-0.7,2.6-0.7c1.4,0,2.6,0.5,3.5,1.4s1.4,2.1,1.4,3.7l0,0.6
				c0,1-0.2,2-0.6,2.8s-1,1.5-1.7,1.9c-0.7,0.4-1.6,0.7-2.6,0.7c-1.5,0-2.7-0.5-3.6-1.5c-0.9-1-1.3-2.3-1.3-4V335.1z M199.2,335.3
				c0,1.1,0.2,1.9,0.7,2.6s1.1,0.9,1.9,0.9s1.4-0.3,1.9-0.9c0.4-0.6,0.7-1.5,0.7-2.7c0-1.1-0.2-1.9-0.7-2.5s-1.1-0.9-1.9-0.9
				c-0.8,0-1.4,0.3-1.8,0.9C199.4,333.1,199.2,334,199.2,335.3z"/>
			<path class="st0" d="M214.3,332c-0.3-0.1-0.6-0.1-1-0.1c-1.1,0-1.8,0.4-2.2,1.2v7.2h-2.4v-10.6h2.3l0.1,1.2
				c0.6-0.9,1.4-1.4,2.4-1.4c0.3,0,0.6,0,0.8,0.1L214.3,332z"/>
			<path class="st0" d="M220.1,338.7c0.6,0,1.1-0.2,1.5-0.5s0.6-0.8,0.6-1.3h2.2c0,0.7-0.2,1.3-0.6,1.8c-0.4,0.6-0.9,1-1.6,1.4
				c-0.7,0.3-1.4,0.5-2.1,0.5c-1.5,0-2.7-0.5-3.5-1.4c-0.9-1-1.3-2.3-1.3-4V335c0-1.6,0.4-2.9,1.3-3.9s2-1.5,3.5-1.5
				c1.3,0,2.3,0.4,3.1,1.1s1.2,1.7,1.2,2.9h-2.2c0-0.6-0.2-1.1-0.6-1.5c-0.4-0.4-0.9-0.6-1.5-0.6c-0.8,0-1.4,0.3-1.8,0.8
				c-0.4,0.6-0.6,1.4-0.6,2.5v0.4c0,1.1,0.2,2,0.6,2.6C218.7,338.5,219.3,338.7,220.1,338.7z"/>
			<path class="st0" d="M231,340.6c-1.5,0-2.7-0.5-3.7-1.4c-0.9-0.9-1.4-2.2-1.4-3.8v-0.3c0-1.1,0.2-2,0.6-2.8
				c0.4-0.8,1-1.5,1.7-1.9c0.7-0.5,1.6-0.7,2.5-0.7c1.4,0,2.6,0.5,3.3,1.4c0.8,0.9,1.2,2.2,1.2,3.9v1h-6.9c0.1,0.9,0.4,1.6,0.9,2.1
				c0.5,0.5,1.2,0.8,1.9,0.8c1.1,0,2-0.4,2.7-1.3l1.3,1.2c-0.4,0.6-1,1.1-1.7,1.5C232.7,340.5,231.9,340.6,231,340.6z M230.7,331.6
				c-0.7,0-1.2,0.2-1.6,0.7s-0.7,1.1-0.8,1.9h4.5V334c-0.1-0.8-0.3-1.4-0.6-1.8S231.4,331.6,230.7,331.6z"/>
		</g>
		<path class="st2" d="M202.7,148c0,0-0.1,1.1-0.4,3c-1,5.5-3.8,17.6-10.5,25.2c-9,10.2-16.3,19.8-16.3,19.8s1,3.3,8,0
			c7-3.3,24.7-10.7,26-15.2s1.1-10.1,1.1-10.1l-7.7-6.6"/>
	</g>
</g>
<g id="Layer_3">
</g>
</svg>
