<?xml version="1.0" encoding="utf-8"?>
<!-- Generator: Adobe Illustrator 21.1.0, SVG Export Plug-In . SVG Version: 6.00 Build 0)  -->
<svg version="1.1" xmlns="http://www.w3.org/2000/svg" xmlns:xlink="http://www.w3.org/1999/xlink" x="0px" y="0px"
	 viewBox="0 0 533 341" style="enable-background:new 0 0 533 341;" xml:space="preserve">
<style type="text/css">
	.st0{fill:#564A70;}
	.st1{fill:#36223D;}
	.st2{fill:#65778C;}
	.st3{fill:#8DC6CF;}
	.st4{fill:#BFE7F3;}
	.st5{fill:#D6D6D6;}
	.st6{fill:#FFFFFF;}
	.st7{fill:#3A2121;}
	.st8{fill:#6D4A49;}
	.st9{fill:#8A6564;}
	.st10{fill:#CE8E8E;}
	.st11{fill:#F1C0BF;}
	.st12{fill:#8DC6CF;stroke:#8DC6CF;stroke-miterlimit:10;}
	.st13{fill:none;stroke:#8DC6CF;stroke-width:3;stroke-miterlimit:10;}
	.st14{fill:#CE8E8D;}
</style>
<g id="Layer_1">
	<rect class="st0" width="533" height="341"/>
	<g>
		<path class="st6" d="M25,15.4l12.9,34.3l12.9-34.3h10.1v44.8h-7.7V45.4l0.8-19.7L40.7,60.2h-5.6L21.9,25.7l0.8,19.7v14.8h-7.7
			V15.4H25z"/>
		<path class="st6" d="M78.3,60.2h-7.7V15.4h7.7V60.2z"/>
		<path class="st6" d="M111.2,48.6c0-2-0.7-3.5-2.1-4.5c-1.4-1.1-3.9-2.1-7.5-3.2c-3.6-1.1-6.5-2.3-8.6-3.6c-4.1-2.6-6.1-5.9-6.1-10
			c0-3.6,1.5-6.6,4.4-8.9c2.9-2.3,6.8-3.5,11.5-3.5c3.1,0,5.9,0.6,8.3,1.7c2.4,1.1,4.4,2.8,5.7,4.9c1.4,2.1,2.1,4.5,2.1,7.1h-7.7
			c0-2.3-0.7-4.2-2.2-5.5c-1.5-1.3-3.6-2-6.3-2c-2.5,0-4.5,0.5-5.9,1.6c-1.4,1.1-2.1,2.6-2.1,4.5c0,1.6,0.8,3,2.3,4.1
			c1.5,1.1,4,2.2,7.5,3.2c3.5,1,6.3,2.2,8.4,3.5c2.1,1.3,3.7,2.8,4.6,4.5c1,1.7,1.5,3.7,1.5,6c0,3.7-1.4,6.7-4.3,8.9
			s-6.7,3.3-11.6,3.3c-3.2,0-6.2-0.6-8.9-1.8c-2.7-1.2-4.8-2.9-6.3-5c-1.5-2.1-2.3-4.6-2.3-7.4h7.8c0,2.5,0.8,4.5,2.5,5.9
			c1.7,1.4,4.1,2.1,7.2,2.1c2.7,0,4.7-0.5,6.1-1.6C110.5,51.9,111.2,50.4,111.2,48.6z"/>
		<path class="st6" d="M158.5,15.4v29.9c0,4.8-1.5,8.5-4.6,11.3c-3,2.8-7.1,4.2-12.2,4.2c-5.1,0-9.2-1.4-12.2-4.1s-4.5-6.5-4.5-11.4
			V15.4h7.7v29.9c0,3,0.8,5.3,2.3,6.9c1.5,1.6,3.8,2.4,6.7,2.4c6,0,9-3.2,9-9.5V15.4H158.5z"/>
		<path class="st6" d="M202.4,60.2h-7.8l-19.9-31.8v31.8h-7.8V15.4h7.8l20,31.9V15.4h7.7V60.2z"/>
		<path class="st6" d="M211.5,60.2V15.4h13.2c4,0,7.5,0.9,10.5,2.6c3.1,1.8,5.4,4.3,7.1,7.5c1.7,3.2,2.5,6.9,2.5,11.1v2.2
			c0,4.2-0.8,8-2.5,11.2c-1.7,3.2-4.1,5.7-7.2,7.4c-3.1,1.7-6.7,2.6-10.7,2.6H211.5z M219.3,21.7V54h5.1c4.1,0,7.2-1.3,9.4-3.8
			s3.3-6.2,3.3-11v-2.5c0-4.9-1.1-8.6-3.2-11.1c-2.1-2.6-5.2-3.8-9.2-3.8H219.3z"/>
		<path class="st6" d="M278.8,40.2h-18.4V54h21.5v6.2h-29.3V15.4h29v6.3h-21.3V34h18.4V40.2z"/>
		<path class="st6" d="M304.7,43H296v17.2h-7.8V15.4H304c5.2,0,9.2,1.2,12,3.5s4.2,5.7,4.2,10.1c0,3-0.7,5.5-2.2,7.5
			c-1.4,2-3.5,3.6-6,4.7L322,59.8v0.4h-8.3L304.7,43z M296,36.7h8c2.6,0,4.7-0.7,6.1-2c1.5-1.3,2.2-3.1,2.2-5.4c0-2.4-0.7-4.3-2-5.6
			c-1.4-1.3-3.4-2-6.1-2H296V36.7z"/>
		<path class="st6" d="M350.9,48.6c0-2-0.7-3.5-2.1-4.5c-1.4-1.1-3.9-2.1-7.5-3.2c-3.6-1.1-6.5-2.3-8.6-3.6c-4.1-2.6-6.1-5.9-6.1-10
			c0-3.6,1.5-6.6,4.4-8.9c2.9-2.3,6.8-3.5,11.5-3.5c3.1,0,5.9,0.6,8.3,1.7s4.4,2.8,5.7,4.9s2.1,4.5,2.1,7.1h-7.7
			c0-2.3-0.7-4.2-2.2-5.5c-1.5-1.3-3.6-2-6.3-2c-2.5,0-4.5,0.5-5.9,1.6c-1.4,1.1-2.1,2.6-2.1,4.5c0,1.6,0.8,3,2.3,4.1
			c1.5,1.1,4,2.2,7.5,3.2c3.5,1,6.3,2.2,8.4,3.5s3.7,2.8,4.6,4.5c1,1.7,1.5,3.7,1.5,6c0,3.7-1.4,6.7-4.3,8.9
			c-2.9,2.2-6.7,3.3-11.6,3.3c-3.2,0-6.2-0.6-8.9-1.8c-2.7-1.2-4.8-2.9-6.3-5c-1.5-2.1-2.3-4.6-2.3-7.4h7.8c0,2.5,0.8,4.5,2.5,5.9
			s4.1,2.1,7.2,2.1c2.7,0,4.7-0.5,6.1-1.6S350.9,50.4,350.9,48.6z"/>
		<path class="st6" d="M397.9,21.7h-14v38.5h-7.7V21.7h-13.8v-6.3h35.5V21.7z"/>
		<path class="st6" d="M438.6,39c0,4.4-0.8,8.2-2.3,11.5c-1.5,3.3-3.7,5.9-6.5,7.6c-2.8,1.8-6.1,2.7-9.7,2.7c-3.6,0-6.9-0.9-9.7-2.7
			c-2.8-1.8-5-4.3-6.6-7.6c-1.5-3.3-2.3-7.1-2.4-11.3v-2.5c0-4.4,0.8-8.2,2.3-11.6c1.5-3.3,3.7-5.9,6.5-7.7c2.8-1.8,6.1-2.7,9.7-2.7
			s6.9,0.9,9.7,2.6c2.8,1.8,5,4.3,6.5,7.6c1.5,3.3,2.3,7.1,2.3,11.5V39z M430.8,36.6c0-5-0.9-8.8-2.8-11.4c-1.9-2.6-4.5-4-8-4
			c-3.4,0-6,1.3-7.9,4s-2.9,6.4-2.9,11.2V39c0,4.9,1,8.7,2.9,11.4c1.9,2.7,4.6,4,8,4c3.4,0,6.1-1.3,7.9-3.9s2.8-6.5,2.8-11.5V36.6z"
			/>
		<path class="st6" d="M482.1,39c0,4.4-0.8,8.2-2.3,11.5c-1.5,3.3-3.7,5.9-6.5,7.6c-2.8,1.8-6.1,2.7-9.7,2.7c-3.6,0-6.9-0.9-9.7-2.7
			s-5-4.3-6.6-7.6c-1.5-3.3-2.3-7.1-2.4-11.3v-2.5c0-4.4,0.8-8.2,2.3-11.6s3.7-5.9,6.5-7.7c2.8-1.8,6.1-2.7,9.7-2.7s6.9,0.9,9.7,2.6
			c2.8,1.8,5,4.3,6.5,7.6s2.3,7.1,2.3,11.5V39z M474.3,36.6c0-5-0.9-8.8-2.8-11.4s-4.5-4-8-4c-3.4,0-6,1.3-7.9,4
			c-1.9,2.6-2.9,6.4-2.9,11.2V39c0,4.9,1,8.7,2.9,11.4c1.9,2.7,4.6,4,8,4c3.4,0,6.1-1.3,7.9-3.9s2.8-6.5,2.8-11.5V36.6z"/>
		<path class="st6" d="M489.8,60.2V15.4H503c4,0,7.5,0.9,10.5,2.6s5.4,4.3,7.1,7.5s2.5,6.9,2.5,11.1v2.2c0,4.2-0.8,8-2.5,11.2
			s-4.1,5.7-7.2,7.4c-3.1,1.7-6.7,2.6-10.7,2.6H489.8z M497.6,21.7V54h5.1c4.1,0,7.2-1.3,9.4-3.8c2.2-2.6,3.3-6.2,3.3-11v-2.5
			c0-4.9-1.1-8.6-3.2-11.1s-5.2-3.8-9.2-3.8H497.6z"/>
	</g>
	<g>
		<path class="st3" d="M59,207.2v63.5H14v-187h74.6c14.3,0,27,2.6,38,7.9c11,5.3,19.5,12.8,25.6,22.5s9.1,20.7,9.1,33.1
			c0,18.2-6.5,32.8-19.6,43.7c-13.1,10.9-31,16.4-53.8,16.4H59z M59,172.4h29.5c8.7,0,15.4-2.2,20-6.6c4.6-4.4,6.9-10.5,6.9-18.5
			c0-8.7-2.4-15.7-7.1-20.9c-4.7-5.2-11.1-7.9-19.3-8H59V172.4z"/>
		<path class="st3" d="M331.9,83.7v122.4c0,13.9-3,25.9-8.9,36c-5.9,10.1-14.4,17.9-25.4,23.2c-11,5.3-24.1,8-39.2,8
			c-22.8,0-40.7-5.9-53.8-17.7c-13.1-11.8-19.8-28-20-48.6V83.7h45.3v124.2c0.5,20.5,10,30.7,28.5,30.7c9.3,0,16.4-2.6,21.2-7.7
			c4.8-5.1,7.2-13.5,7.2-25V83.7H331.9z"/>
		<path class="st3" d="M405.1,207.2v63.5H360v-187h74.6c14.3,0,27,2.6,38,7.9c11,5.3,19.5,12.8,25.6,22.5c6,9.7,9.1,20.7,9.1,33.1
			c0,18.2-6.5,32.8-19.6,43.7c-13.1,10.9-31,16.4-53.8,16.4H405.1z M405.1,172.4h29.5c8.7,0,15.4-2.2,20-6.6
			c4.6-4.4,6.9-10.5,6.9-18.5c0-8.7-2.4-15.7-7.1-20.9c-4.7-5.2-11.1-7.9-19.3-8h-30.1V172.4z"/>
	</g>
	<g>
		<path class="st4" d="M72.9,207.4v63.5H27.8v-187h74.6c14.3,0,27,2.6,38,7.9c11,5.3,19.5,12.8,25.6,22.5s9.1,20.7,9.1,33.1
			c0,18.2-6.5,32.8-19.6,43.7c-13.1,10.9-31,16.4-53.8,16.4H72.9z M72.9,172.6h29.5c8.7,0,15.4-2.2,20-6.6
			c4.6-4.4,6.9-10.5,6.9-18.5c0-8.7-2.4-15.7-7.1-20.9c-4.7-5.2-11.1-7.9-19.3-8H72.9V172.6z"/>
		<path class="st4" d="M345.7,83.9v122.4c0,13.9-3,25.9-8.9,36c-5.9,10.1-14.4,17.9-25.4,23.2c-11,5.3-24.1,8-39.2,8
			c-22.8,0-40.7-5.9-53.8-17.7c-13.1-11.8-19.8-28-20-48.6V83.9h45.3v124.2c0.5,20.5,10,30.7,28.5,30.7c9.3,0,16.4-2.6,21.2-7.7
			c4.8-5.1,7.2-13.5,7.2-25V83.9H345.7z"/>
		<path class="st4" d="M418.9,207.4v63.5h-45.1v-187h74.6c14.3,0,27,2.6,38,7.9c11,5.3,19.5,12.8,25.6,22.5c6,9.7,9.1,20.7,9.1,33.1
			c0,18.2-6.5,32.8-19.6,43.7c-13.1,10.9-31,16.4-53.8,16.4H418.9z M418.9,172.6h29.5c8.7,0,15.4-2.2,20-6.6
			c4.6-4.4,6.9-10.5,6.9-18.5c0-8.7-2.4-15.7-7.1-20.9c-4.7-5.2-11.1-7.9-19.3-8h-30.1V172.6z"/>
	</g>
	<g>
		<path class="st6" d="M12.9,316.1l1.1-10.4h11.1v3h-8.2l-0.6,4.9c1-0.5,2-0.8,3.2-0.8c2,0,3.5,0.6,4.6,1.9c1.1,1.3,1.6,2.9,1.6,5.1
			c0,2.1-0.6,3.8-1.8,5c-1.2,1.2-2.9,1.9-5,1.9c-1.9,0-3.5-0.5-4.7-1.6s-1.9-2.5-2-4.2h3.3c0.1,1,0.5,1.8,1.1,2.3
			c0.6,0.5,1.4,0.8,2.3,0.8c1.1,0,1.9-0.4,2.5-1.1c0.6-0.8,0.9-1.8,0.9-3.1c0-1.3-0.3-2.2-1-3s-1.5-1.1-2.7-1.1
			c-0.6,0-1.2,0.1-1.6,0.2c-0.4,0.2-0.9,0.5-1.4,1L12.9,316.1z"/>
		<path class="st6" d="M41.2,305.7l5.9,15.8l5.9-15.8h4.6v20.6h-3.6v-6.8l0.4-9.1l-6.1,15.9h-2.6l-6.1-15.9l0.4,9.1v6.8h-3.6v-20.6
			H41.2z"/>
		<path class="st6" d="M65.9,326.3h-3.6v-20.6h3.6V326.3z"/>
		<path class="st6" d="M81.3,321c0-0.9-0.3-1.6-1-2.1c-0.6-0.5-1.8-1-3.4-1.5c-1.7-0.5-3-1.1-4-1.7c-1.9-1.2-2.8-2.7-2.8-4.6
			c0-1.7,0.7-3,2-4.1c1.4-1.1,3.1-1.6,5.3-1.6c1.4,0,2.7,0.3,3.8,0.8c1.1,0.5,2,1.3,2.6,2.3c0.6,1,1,2.1,1,3.2h-3.6
			c0-1.1-0.3-1.9-1-2.5c-0.7-0.6-1.6-0.9-2.9-0.9c-1.2,0-2.1,0.2-2.7,0.8c-0.6,0.5-1,1.2-1,2.1c0,0.8,0.3,1.4,1,1.9
			c0.7,0.5,1.9,1,3.5,1.5c1.6,0.5,2.9,1,3.9,1.6c1,0.6,1.7,1.3,2.1,2.1s0.7,1.7,0.7,2.8c0,1.7-0.7,3.1-2,4.1c-1.3,1-3.1,1.5-5.4,1.5
			c-1.5,0-2.9-0.3-4.1-0.8c-1.3-0.6-2.2-1.3-2.9-2.3c-0.7-1-1-2.1-1-3.4H73c0,1.2,0.4,2.1,1.2,2.7c0.8,0.6,1.9,1,3.3,1
			c1.2,0,2.2-0.3,2.8-0.8C80.9,322.5,81.3,321.8,81.3,321z"/>
		<path class="st6" d="M103.9,319.6c-0.2,2.2-1,3.9-2.4,5.1c-1.4,1.2-3.3,1.8-5.6,1.8c-1.6,0-3.1-0.4-4.3-1.2
			c-1.3-0.8-2.2-1.9-2.9-3.3c-0.7-1.4-1-3.1-1.1-5v-1.9c0-1.9,0.3-3.7,1-5.1c0.7-1.5,1.7-2.6,3-3.4c1.3-0.8,2.8-1.2,4.5-1.2
			c2.3,0,4.1,0.6,5.5,1.8c1.4,1.2,2.2,3,2.4,5.2h-3.6c-0.2-1.5-0.6-2.6-1.3-3.2c-0.7-0.7-1.7-1-3.1-1c-1.6,0-2.8,0.6-3.6,1.7
			c-0.8,1.1-1.3,2.8-1.3,5v1.8c0,2.2,0.4,3.9,1.2,5.1c0.8,1.2,2,1.8,3.5,1.8c1.4,0,2.5-0.3,3.2-0.9c0.7-0.6,1.2-1.7,1.3-3.2H103.9z"
			/>
		<path class="st6" d="M123.7,316.5c0,2-0.3,3.8-1,5.3c-0.7,1.5-1.7,2.7-3,3.5c-1.3,0.8-2.8,1.2-4.5,1.2c-1.7,0-3.2-0.4-4.5-1.2
			c-1.3-0.8-2.3-2-3-3.5c-0.7-1.5-1.1-3.3-1.1-5.2v-1.2c0-2,0.4-3.8,1.1-5.3s1.7-2.7,3-3.5c1.3-0.8,2.8-1.2,4.5-1.2
			c1.7,0,3.2,0.4,4.5,1.2c1.3,0.8,2.3,2,3,3.5c0.7,1.5,1.1,3.3,1.1,5.3V316.5z M120.1,315.4c0-2.3-0.4-4-1.3-5.3
			c-0.9-1.2-2.1-1.8-3.7-1.8c-1.5,0-2.8,0.6-3.6,1.8s-1.3,2.9-1.3,5.1v1.2c0,2.3,0.4,4,1.3,5.3c0.9,1.2,2.1,1.9,3.7,1.9
			c1.6,0,2.8-0.6,3.7-1.8c0.9-1.2,1.3-3,1.3-5.3V315.4z"/>
		<path class="st6" d="M143.8,326.3h-3.6l-9.2-14.6v14.6h-3.6v-20.6h3.6l9.2,14.7v-14.7h3.6V326.3z"/>
		<path class="st6" d="M164,319.6c-0.2,2.2-1,3.9-2.4,5.1c-1.4,1.2-3.3,1.8-5.6,1.8c-1.6,0-3.1-0.4-4.3-1.2
			c-1.3-0.8-2.2-1.9-2.9-3.3c-0.7-1.4-1-3.1-1.1-5v-1.9c0-1.9,0.3-3.7,1-5.1c0.7-1.5,1.7-2.6,3-3.4c1.3-0.8,2.8-1.2,4.5-1.2
			c2.3,0,4.1,0.6,5.5,1.8c1.4,1.2,2.2,3,2.4,5.2h-3.6c-0.2-1.5-0.6-2.6-1.3-3.2c-0.7-0.7-1.7-1-3.1-1c-1.6,0-2.8,0.6-3.6,1.7
			c-0.8,1.1-1.3,2.8-1.3,5v1.8c0,2.2,0.4,3.9,1.2,5.1c0.8,1.2,2,1.8,3.5,1.8c1.4,0,2.5-0.3,3.2-0.9c0.7-0.6,1.2-1.7,1.3-3.2H164z"/>
		<path class="st6" d="M179.4,317.1h-8.5v6.3h9.9v2.9h-13.5v-20.6h13.4v2.9h-9.8v5.7h8.5V317.1z"/>
		<path class="st6" d="M187.5,318.6v7.6h-3.6v-20.6h7.9c2.3,0,4.1,0.6,5.5,1.8s2,2.8,2,4.8c0,2-0.7,3.6-2,4.7
			c-1.3,1.1-3.2,1.7-5.6,1.7H187.5z M187.5,315.8h4.3c1.3,0,2.2-0.3,2.9-0.9c0.7-0.6,1-1.5,1-2.6c0-1.1-0.3-2-1-2.7
			c-0.7-0.7-1.6-1-2.8-1h-4.4V315.8z"/>
		<path class="st6" d="M217.5,308.6h-6.4v17.7h-3.6v-17.7h-6.4v-2.9h16.4V308.6z"/>
		<path class="st6" d="M224.2,326.3h-3.6v-20.6h3.6V326.3z"/>
		<path class="st6" d="M245.2,316.5c0,2-0.3,3.8-1,5.3c-0.7,1.5-1.7,2.7-3,3.5c-1.3,0.8-2.8,1.2-4.5,1.2c-1.7,0-3.2-0.4-4.5-1.2
			c-1.3-0.8-2.3-2-3-3.5c-0.7-1.5-1.1-3.3-1.1-5.2v-1.2c0-2,0.4-3.8,1.1-5.3s1.7-2.7,3-3.5c1.3-0.8,2.8-1.2,4.5-1.2
			c1.7,0,3.2,0.4,4.5,1.2c1.3,0.8,2.3,2,3,3.5c0.7,1.5,1.1,3.3,1.1,5.3V316.5z M241.6,315.4c0-2.3-0.4-4-1.3-5.3
			c-0.9-1.2-2.1-1.8-3.7-1.8c-1.5,0-2.8,0.6-3.6,1.8s-1.3,2.9-1.3,5.1v1.2c0,2.3,0.4,4,1.3,5.3c0.9,1.2,2.1,1.9,3.7,1.9
			c1.6,0,2.8-0.6,3.7-1.8c0.9-1.2,1.3-3,1.3-5.3V315.4z"/>
		<path class="st6" d="M265.3,326.3h-3.6l-9.2-14.6v14.6h-3.6v-20.6h3.6l9.2,14.7v-14.7h3.6V326.3z"/>
		<path class="st6" d="M280.5,321c0-0.9-0.3-1.6-1-2.1c-0.6-0.5-1.8-1-3.4-1.5c-1.7-0.5-3-1.1-4-1.7c-1.9-1.2-2.8-2.7-2.8-4.6
			c0-1.7,0.7-3,2-4.1c1.4-1.1,3.1-1.6,5.3-1.6c1.4,0,2.7,0.3,3.8,0.8c1.1,0.5,2,1.3,2.6,2.3c0.6,1,1,2.1,1,3.2h-3.6
			c0-1.1-0.3-1.9-1-2.5c-0.7-0.6-1.6-0.9-2.9-0.9c-1.2,0-2.1,0.2-2.7,0.8c-0.6,0.5-1,1.2-1,2.1c0,0.8,0.3,1.4,1,1.9
			c0.7,0.5,1.9,1,3.5,1.5c1.6,0.5,2.9,1,3.9,1.6c1,0.6,1.7,1.3,2.1,2.1s0.7,1.7,0.7,2.8c0,1.7-0.7,3.1-2,4.1c-1.3,1-3.1,1.5-5.4,1.5
			c-1.5,0-2.9-0.3-4.1-0.8c-1.3-0.6-2.2-1.3-2.9-2.3c-0.7-1-1-2.1-1-3.4h3.6c0,1.2,0.4,2.1,1.2,2.7c0.8,0.6,1.9,1,3.3,1
			c1.2,0,2.2-0.3,2.8-0.8C280.2,322.5,280.5,321.8,280.5,321z"/>
		<path class="st6" d="M311.2,316.5c0,2-0.3,3.8-1,5.3c-0.7,1.5-1.7,2.7-3,3.5c-1.3,0.8-2.8,1.2-4.5,1.2c-1.7,0-3.2-0.4-4.5-1.2
			s-2.3-2-3-3.5c-0.7-1.5-1.1-3.3-1.1-5.2v-1.2c0-2,0.4-3.8,1.1-5.3c0.7-1.5,1.7-2.7,3-3.5s2.8-1.2,4.5-1.2c1.7,0,3.2,0.4,4.5,1.2
			c1.3,0.8,2.3,2,3,3.5c0.7,1.5,1.1,3.3,1.1,5.3V316.5z M307.6,315.4c0-2.3-0.4-4-1.3-5.3c-0.9-1.2-2.1-1.8-3.7-1.8
			c-1.5,0-2.8,0.6-3.6,1.8c-0.9,1.2-1.3,2.9-1.3,5.1v1.2c0,2.3,0.4,4,1.3,5.3c0.9,1.2,2.1,1.9,3.7,1.9c1.6,0,2.8-0.6,3.7-1.8
			c0.9-1.2,1.3-3,1.3-5.3V315.4z"/>
		<path class="st6" d="M326.9,317.6h-8.3v8.7H315v-20.6h13.1v2.9h-9.5v6.1h8.3V317.6z"/>
		<path class="st6" d="M352.5,308.6h-6.4v17.7h-3.6v-17.7h-6.4v-2.9h16.4V308.6z"/>
		<path class="st6" d="M371.8,326.3h-3.6v-9.1H359v9.1h-3.6v-20.6h3.6v8.6h9.2v-8.6h3.6V326.3z"/>
		<path class="st6" d="M388.2,317.1h-8.5v6.3h9.9v2.9h-13.5v-20.6h13.4v2.9h-9.8v5.7h8.5V317.1z"/>
		<path class="st6" d="M403.7,318.6v7.6h-3.6v-20.6h7.9c2.3,0,4.1,0.6,5.5,1.8s2,2.8,2,4.8c0,2-0.7,3.6-2,4.7
			c-1.3,1.1-3.2,1.7-5.6,1.7H403.7z M403.7,315.8h4.3c1.3,0,2.2-0.3,2.9-0.9c0.7-0.6,1-1.5,1-2.6c0-1.1-0.3-2-1-2.7
			c-0.7-0.7-1.6-1-2.8-1h-4.4V315.8z"/>
		<path class="st6" d="M422.6,326.3h-3.6v-20.6h3.6V326.3z"/>
		<path class="st6" d="M441.7,308.6h-6.4v17.7h-3.6v-17.7h-6.4v-2.9h16.4V308.6z"/>
		<path class="st6" d="M451.1,326.3v-20.6h7.1c2.3,0,4.1,0.5,5.3,1.4c1.2,0.9,1.8,2.3,1.8,4.2c0,0.9-0.3,1.8-0.8,2.5
			s-1.3,1.3-2.2,1.8c1.1,0.3,2,0.9,2.6,1.7c0.6,0.8,0.9,1.8,0.9,3c0,1.9-0.6,3.4-1.9,4.5s-3,1.6-5.3,1.6H451.1z M454.7,314.4h3.5
			c1.1,0,2-0.3,2.6-0.8s0.9-1.2,0.9-2.1c0-1-0.3-1.8-0.9-2.2c-0.6-0.5-1.5-0.7-2.7-0.7h-3.5V314.4z M454.7,317v6.4h4
			c1.1,0,2-0.3,2.6-0.8c0.6-0.6,0.9-1.3,0.9-2.3c0-2.1-1.1-3.2-3.3-3.3H454.7z"/>
		<path class="st6" d="M484.7,305.7v13.8c0,2.2-0.7,3.9-2.1,5.2c-1.4,1.3-3.3,1.9-5.6,1.9c-2.4,0-4.2-0.6-5.6-1.9
			c-1.4-1.3-2.1-3-2.1-5.2v-13.8h3.6v13.8c0,1.4,0.3,2.4,1,3.2c0.7,0.7,1.7,1.1,3.1,1.1c2.8,0,4.1-1.5,4.1-4.4v-13.7H484.7z"/>
		<path class="st6" d="M492.2,323.4h9.4v2.9h-12.9v-20.6h3.6V323.4z"/>
		<path class="st6" d="M508.1,323.4h9.4v2.9h-12.9v-20.6h3.6V323.4z"/>
	</g>
</g>
<g id="Layer_2">
</g>
</svg>
